<?xml version="1.0" standalone="no"?>
<!DOCTYPE svg PUBLIC "-//W3C//DTD SVG 1.1//EN" "http://www.w3.org/Graphics/SVG/1.1/DTD/svg11.dtd" >
<svg>
<metadata>
Created by FontForge 20090914 at Thu Oct  6 20:52:40 2016
 By www-data
Copyright (c) Takis Katsoulidis and George D. Matthiopoulos, 1993-2001. All rights reserved.
</metadata>
<defs>
<font id="GFSNeohellenic-Regular" horiz-adv-x="500" >
  <font-face 
    font-family="GFS Neohellenic"
    font-weight="400"
    font-stretch="normal"
    units-per-em="1000"
    panose-1="2 0 5 0 0 0 0 2 0 4"
    ascent="800"
    descent="-200"
    x-height="387"
    cap-height="621"
    bbox="-186 -286.004 949.996 1051"
    underline-thickness="40"
    underline-position="-270"
    unicode-range="U+0020-U+FFFC"
  />
<missing-glyph 
d="M63 0v700h375v-700h-375zM125 63h250v575h-250v-575z" />
    <glyph glyph-name="ff" unicode="ff" horiz-adv-x="493" 
d="M493 502c-42.667 42.667 -80.666 62.332 -113.999 58.999c-24.667 -2.66699 -40 -18.667 -46 -48c-2.66699 -13.333 -4 -52 -4 -116c74 3.33301 114 7 120 11v-68c-10 4.66699 -50 7.33398 -120 8.00098v-36c0 -89.333 0.166992 -159.833 0.5 -211.5
s0.833008 -85.167 1.5 -100.5h-67c4 34 6 137.667 6 311v38c-30 0 -76.333 -1 -139 -3v-34c0 -89.333 0.166992 -159.833 0.5 -211.5s0.833008 -85.167 1.5 -100.5h-67c4 34 6 137.667 6 311v38c-35.333 -1.33301 -57.333 -3.33301 -66 -6v58c10 -5.33301 32 -7.33301 66 -6
c-0.666992 23.333 -0.833984 42.5 -0.500977 57.5s0.833008 25.833 1.5 32.5c0.666992 16 4.66699 32 12 48c16.667 36 49.667 54 99 54c22.667 0 44 -4 64 -12c4 -2 9 -4.33301 15 -7l21 -9c16.667 34.667 49.334 52 98.001 52c23.333 0 44.666 -4.33301 63.999 -13
c8 -4.66699 23.667 -10.667 47 -18v-78zM272.001 499.998c-35.333 28 -65.667 40.665 -91 37.998c-24.667 -2.66699 -40 -18.667 -46 -48c-2.66699 -13.333 -4 -44.333 -4 -93c26 -1.33301 50.5 -2.16602 73.5 -2.49902s44.5 -0.166016 64.5 0.500977
c0 46.667 1 81.667 3 105z" />
    <glyph glyph-name="fi" unicode="fi" horiz-adv-x="405" 
d="M348 -1h-65.999c2.66699 54 4 109.167 4 165.5s-0.666992 114.5 -2 174.5h-67.5c-25.667 0 -54.5 0.333008 -86.5 1v-26c0 -90 0.166992 -161 0.5 -213s0.833008 -85.667 1.5 -101h-67c4 34 6 138.333 6 313v28c-35.333 -1.33301 -57.333 -3.33301 -66 -6v58
c12.667 -2.66699 34.334 -4.66699 65.001 -6c1.33301 72.667 6.66602 122 15.999 148c18 50.667 59.333 76.334 124 77.001c22 0 44.667 -4 68 -12c15.333 -5.33301 28.166 -9.5 38.499 -12.5s18.166 -5.16699 23.499 -6.5v-78c-8 8 -17.167 15.5 -27.5 22.5
s-21.166 13.167 -32.499 18.5s-23.166 9.66602 -35.499 12.999s-23.833 5 -34.5 5c-40.667 0 -65.334 -20.333 -74.001 -61c-4.66699 -22.667 -6.66699 -60 -6 -112h218c-5.33301 -132 -5.33301 -262 0 -390z" />
    <glyph glyph-name="fl" unicode="fl" horiz-adv-x="405" 
d="M351 591c-2 -27.333 -3.00098 -108.004 -3.00098 -242.004c0 -20 0.166992 -47.167 0.5 -81.5s0.833008 -76.5 1.5 -126.5l1.5 -109c0.333008 -23.333 0.5 -34 0.5 -32h-65c1.33301 34.667 2.33301 80.334 3 137.001s1 124.334 1 203.001h-161
c0 -98.667 0.166992 -176.167 0.5 -232.5s0.833008 -92.166 1.5 -107.499h-67c5.33301 72 7.33301 185.667 6 341c-35.333 -1.33301 -57.333 -3.33301 -66 -6v58c12.667 -2.66699 34.334 -4.66699 65.001 -6c0.666992 25.333 1 45.333 1 60s0.333008 24.667 1 30
c0.666992 20 4.66699 39 12 57c18 50.667 59.333 76.334 124 77.001c28 0 59 -6.66699 93 -20h50zM290.999 388.996c0 25.333 -0.333008 50.3301 -1 74.9971s-1.66699 49.334 -3 74.001c-28.667 15.333 -55 23 -79 23c-40 0.666992 -64.667 -19.666 -74 -60.999
c-1.33301 -8 -2.5 -21.167 -3.5 -39.5s-1.16699 -42.166 -0.5 -71.499h161z" />
    <glyph glyph-name="ffi" unicode="ffi" horiz-adv-x="586" 
d="M547 -1h-66c2.66699 54 4 109.167 4 165.5s-0.666992 114.5 -2 174.5h-63.5c-23.667 0 -50.5 0.333008 -80.5 1v-26c0 -90 0.166992 -161 0.5 -213s0.833008 -85.667 1.5 -101h-67c3.33301 32 5.33301 136.333 6 313v26h-149v-27c0 -89.333 0.166992 -159.833 0.5 -211.5
s0.833008 -85.167 1.5 -100.5h-67c4 34 6 137.667 6 311v31c-35.333 -1.33301 -57.333 -3.33301 -66 -6v58c10 -5.33301 31.667 -7.33301 65 -6v60c0 15.333 0.333008 26.666 1 33.999c2 20 6.33301 37 13 51c16.667 36.667 52 55 106 55
c25.333 0 47.666 -4.33301 66.999 -13c3.33301 -1.33301 7.16602 -3.16602 11.499 -5.49902s9.83301 -4.83301 16.5 -7.5c2.66699 -0.666992 5.5 -1.33398 8.5 -2.00098s6.83301 -1.66699 11.5 -3c22.667 36 60.334 54.333 113.001 55c22.667 0 47 -5.33301 73 -16
c6.66699 -2.66699 22.334 -7.66699 47.001 -15v-78c-38 38 -78 57.667 -120 59c-40 0.666992 -64.667 -19.666 -74 -60.999c-4.66699 -22.667 -6.66699 -60 -6 -112h208c-5.33301 -132 -5.33301 -262 0 -390zM286 499c-36 28 -68.9971 41.998 -98.9971 41.998
c-12.667 0 -24.334 -4.5 -35.001 -13.5s-17.334 -21.5 -20.001 -37.5c-0.666992 -3.33301 -1 -13.333 -1 -30v-70c31.333 -1.33301 80.666 -2.33301 147.999 -3c0.666992 24.667 1.5 46.334 2.5 65.001s2.5 34.334 4.5 47.001z" />
    <glyph glyph-name="ffl" unicode="ffl" horiz-adv-x="605" 
d="M553 601c-1.33301 -22.667 -2.5 -54.8359 -3.5 -96.5029s-1.5 -93.5 -1.5 -155.5c0 -20 0.166992 -47.167 0.5 -81.5s0.833008 -76.5 1.5 -126.5l1.5 -109c0.333008 -23.333 0.5 -34 0.5 -32h-65c1.33301 34.667 2.33301 80.334 3 137.001s1 124.334 1 203.001h-152
c0 -98.667 0.166992 -176.167 0.5 -232.5s0.833008 -92.166 1.5 -107.499h-67c2.66699 40.667 4.66699 97 6 169v170h-149c0 -87.333 0.166992 -159 0.5 -215s0.833008 -97.333 1.5 -124h-67c4.66699 62.667 6.66699 176.667 6 342
c-35.333 -1.33301 -57.333 -3.33301 -66 -6v58c10 -5.33301 31.667 -7.33301 65 -6c-0.666992 80.667 4 132.334 14 155.001c16.667 35.333 51.667 53.666 105 54.999c21.333 0 41.333 -3.5 60 -10.5l56 -20.5c22.667 36 57 54 103 54c28 0 59 -6.66699 93 -20h51z
M491 388.998c0 42.667 -0.167969 77.166 -0.500977 103.499s-0.833008 44.833 -1.5 55.5c-29.333 15.333 -56 23 -80 23c-33.333 0.666992 -54.666 -19.666 -63.999 -60.999c-4.66699 -22.667 -6.66699 -63 -6 -121h152zM285.999 507.997
c-38 29.333 -72.999 42.667 -104.999 40c-24.667 -2.66699 -40 -18.667 -46 -48c-2.66699 -13.333 -4 -50 -4 -110c31.333 -1.33301 80.666 -2.33301 147.999 -3c0.666992 28 1.5 52 2.5 72s2.5 36.333 4.5 49z" />
    <glyph glyph-name=".notdef" 
d="M63 0v700h375v-700h-375zM125 63h250v575h-250v-575z" />
    <glyph glyph-name="space" unicode=" " horiz-adv-x="398" 
 />
    <glyph glyph-name="exclam" unicode="!" horiz-adv-x="209" 
d="M140 540c-6.66699 -24 -10 -90 -10 -198c0 -74.667 0.166992 -132.667 0.5 -174s0.833008 -66.333 1.5 -75h-52c1.33301 10.667 2.33301 36.667 3 78s1 98.333 1 171c0 115.333 -3.66699 181.333 -11 198h67zM141 17c0 -10 -3.66699 -18.5 -11 -25.5
s-15.666 -10.5 -24.999 -10.5c-10 0 -18.5 3.5 -25.5 10.5s-10.5 15.5 -10.5 25.5s3.5 18.5 10.5 25.5s15.5 10.5 25.5 10.5c9.33301 0 17.666 -3.5 24.999 -10.5s11 -15.5 11 -25.5z" />
    <glyph glyph-name="quotedbl" unicode="&#x22;" horiz-adv-x="245" 
d="M109 626l-18 -177h-49l2 181zM203 626l-18 -177h-49l2 181z" />
    <glyph glyph-name="numbersign" unicode="#" horiz-adv-x="803" 
d="M286 226h173l36 173h-173zM699 226l-11 -52h-188l-38 -175h-52l38 175h-173l-38 -175h-52l38 175h-164l11 52h164l36 173h-164l12 52h164l37 177h52l-37 -177h173l37 177h52l-37 -177h188l-12 -52h-188l-36 -173h188z" />
    <glyph glyph-name="dollar" unicode="$" horiz-adv-x="528" 
d="M274 271v-221.001c32 -3.33301 63.667 5.33398 95 26.001c38 24 54.333 56.667 49 98c-4 33.333 -21.333 56.333 -52 69l-46 14zM239 352.999l0.000976562 219.999c-34.667 -2 -63.5 -13.667 -86.5 -35s-34.5 -48.333 -34.5 -81c0 -3.33301 0.166992 -6.83301 0.5 -10.5
s0.833008 -7.16699 1.5 -10.5c4 -24 15.333 -41.333 34 -52c9.33301 -5.33301 37.666 -15.666 84.999 -30.999zM274.001 -74.002l-35 -0.00292969v63c-40 -1.33301 -86.667 7.66699 -140 27c-18.667 6.66699 -33.667 9 -45 7c0 18 1 51.667 3 101h38
c2 -11.333 11.333 -23 28 -35c36 -26 74.667 -39.667 116 -41v234c-63.333 18.667 -106.333 35.667 -129 51c-39.333 27.333 -59 65 -59 113c0 51.333 18.667 94.666 56 129.999c35.333 32.667 79.333 51.334 132 56.001v71h35v-69c16.667 0 50.334 -6.33301 101.001 -19
c32.667 -7.33301 50.667 -10.666 54 -9.99902v-38.5c0 -16.333 0.333008 -36.833 1 -61.5h-38c-4 21.333 -9.33301 34.333 -16 39c-25.333 16.667 -59.333 26.667 -102 30c0 -157.333 0.333008 -236 1 -236c2 2.66699 20 -0.333008 54 -9
c35.333 -9.33301 65 -21.666 89 -36.999c50 -31.333 73.333 -76.666 70 -135.999c-3.33301 -53.333 -28 -95.333 -74 -126c-40.667 -26.667 -87.334 -39.667 -140.001 -39v-65z" />
    <glyph glyph-name="percent" unicode="%" horiz-adv-x="680" 
d="M638 156c-2.66699 -108.667 -41.001 -163.001 -115.001 -163.001c-76 0 -114 54 -114 162c0 48.667 8.33301 87.334 25 116.001c18.667 34.667 48.334 52 89.001 52c80.667 0 119 -55.667 115 -167zM582.999 150.999c0.666992 30 -2.00098 54.002 -8.00098 72.002
c-8.66699 28 -25.667 41.333 -51 40c-37.333 -0.666992 -56.666 -38.334 -57.999 -113.001c0 -28.667 3 -51.334 9 -68.001c9.33301 -27.333 26 -40.333 50 -39c38.667 0 58 36 58 108zM269.998 460.001c-2.66699 -108.667 -41.001 -163.001 -115.001 -163.001
c-76 0 -114 54 -114 162c0 48.667 8.33301 87.334 25 116.001c18.667 34.667 48.334 52 89.001 52c80.667 0 119 -55.667 115 -167zM214.997 455c0.666992 30 -2.00098 54.002 -8.00098 72.002c-8.66699 28 -25.667 41.333 -51 40
c-37.333 -0.666992 -56.666 -38.334 -57.999 -113.001c0 -28.667 3 -51.334 9 -68.001c9.33301 -27.333 26 -40.333 50 -39c38.667 0 58 36 58 108zM472.996 647.002l-238 -735h-44l236 735h46z" />
    <glyph glyph-name="ampersand" unicode="&#x26;" horiz-adv-x="556" 
d="M537 0l-85.999 -0.00390625l-56 70c-18.667 -25.333 -44.667 -45.333 -78 -60s-68.666 -22 -105.999 -22c-30 0 -57.167 4.66699 -81.5 14s-45 22.333 -62 39s-29.833 36.834 -38.5 60.501s-12.667 49.834 -12 78.501c2 78.667 47.667 142.667 137 192l-27 38.5
c-8 11.667 -14.833 22.667 -20.5 33s-9.83398 20.666 -12.501 30.999s-4 21.5 -4 33.5c0 40.667 12.667 73.334 38 98.001s58 37 98 37c20 0 38 -3.5 54 -10.5s29.833 -16.333 41.5 -28s20.5 -25.167 26.5 -40.5s9 -31.666 9 -48.999c0 -35.333 -8.5 -65.166 -25.5 -89.499
s-44.5 -47.5 -82.5 -69.5l141 -180c4.66699 8.66699 8.5 17 11.5 25s5.16699 16.333 6.5 25s2.5 18 3.5 28s1.83301 21.333 2.5 34h63c-2.66699 -32.667 -7.33398 -62.5 -14.001 -89.5s-15.667 -51.833 -27 -74.5zM295.001 507.996
c0 9.33301 -1.49902 18.8311 -4.49902 28.498s-7.33301 18.334 -13 26.001s-12.834 13.834 -21.501 18.501s-19 7 -31 7c-20 0 -37.333 -7.5 -52 -22.5s-22 -33.167 -22 -54.5s5.16699 -39.5 15.5 -54.5s25.833 -34.167 46.5 -57.5c54.667 24.667 82 61 82 109z
M353.002 117.994l-163.998 205.999c-76 -35.333 -111.333 -88.666 -106 -159.999c3.33301 -36 17 -64.5 41 -85.5s53.667 -31.5 89 -31.5c25.333 0 51.166 6.83301 77.499 20.5s47.166 30.5 62.499 50.5z" />
    <glyph glyph-name="quotesingle" unicode="'" horiz-adv-x="173" 
d="M120 626l-18 -177h-49l2 181z" />
    <glyph glyph-name="parenleft" unicode="(" horiz-adv-x="297" 
d="M287 -228l-95.9941 -0.00292969c-60.667 92.667 -100.667 161.334 -120 206.001c-32.667 72 -49 147.333 -49 226c0 82.667 15.667 162 47 238c21.333 48.667 60.666 118 117.999 208c30.667 0 54.167 -0.166992 70.5 -0.5s26.166 -0.833008 29.499 -1.5l-49 -66.5
c-16.667 -22.333 -32.334 -44.5 -47.001 -66.5s-28 -44 -40 -66s-21.333 -43.333 -28 -64c-8.66699 -25.333 -15.334 -52.666 -20.001 -81.999s-7.33398 -61 -8.00098 -95c-2 -73.333 16.667 -148.666 56 -225.999c11.333 -21.333 28.166 -49.5 50.499 -84.5
s50.833 -76.833 85.5 -125.5z" />
    <glyph glyph-name="parenright" unicode=")" horiz-adv-x="297" 
d="M287 218c0 -84 -16.0029 -162.997 -48.0029 -236.997c-20 -48.667 -59.333 -118.334 -118 -209.001c-59.333 0 -92.333 0.666992 -99 2l48.5 66.5c16.333 22.333 31.833 44.666 46.5 66.999s27.834 44.333 39.501 66s21.167 42.834 28.5 63.501
c8.66699 25.333 15.334 52.666 20.001 81.999s7.33398 61 8.00098 95c2 73.333 -16.667 148.666 -56 225.999c-22 42.667 -67 112.667 -135 210h95c30.667 -46.667 56 -87.167 76 -121.5s35 -62.5 45 -84.5c32.667 -72 49 -147.333 49 -226z" />
    <glyph glyph-name="asterisk" unicode="*" horiz-adv-x="494" 
d="M408 354l-26.9961 -48.001c-8.66699 9.33301 -22.334 20.333 -41.001 33s-42.334 27.334 -71.001 44.001c0 -73.333 3.33301 -118.666 10 -135.999h-54c5.33301 16 8.66602 31.667 9.99902 47c1.33301 9.33301 1.33301 39 0 89l-52 -29.5
c-13.333 -7.66699 -22.333 -13.167 -27 -16.5c-12 -8.66699 -22.667 -19 -32 -31l-28 49c17.333 4 32 9 44 15c3.33301 1.33301 11.5 5.66602 24.5 12.999l52.5 30l-54 31c-13.333 7.33301 -21.666 12 -24.999 14c-14 6.66699 -28 10.667 -42 12l26 48
c18.667 -19.333 56 -44.333 112 -75c0.666992 50.667 0.666992 81 0 91c-0.666992 7.33301 -1.83398 14.666 -3.50098 21.999s-3.83398 14.333 -6.50098 21h54c-7.33301 -21.333 -10.333 -66.333 -9 -135l52 29.5c13.333 7.66699 22.333 13.167 27 16.5
c12.667 7.33301 23 17.333 31 30l29 -48c-18 -4 -33 -9 -45 -15c-3.33301 -1.33301 -11.5 -5.66602 -24.5 -12.999l-53.5 -31l54 -30c13.333 -7.33301 22.333 -12 27 -14c12 -6.66699 26 -11 42 -13z" />
    <glyph glyph-name="plus" unicode="+" horiz-adv-x="554" 
d="M525 214h-222v-214h-53v214h-205v49h205v215h53v-215h221z" />
    <glyph glyph-name="comma" unicode="," horiz-adv-x="191" 
d="M122 6c0 -66.667 -26.333 -106.333 -79 -119v35c27.333 5.33301 41 31.333 41 78h-28v67h66v-61z" />
    <glyph glyph-name="hyphen" unicode="-" horiz-adv-x="313" 
d="M271 183h-228v54h228v-54z" />
    <glyph glyph-name="period" unicode="." horiz-adv-x="261" 
d="M169 31c0 -10.667 -4.33105 -20.167 -12.998 -28.5s-18.667 -12.5 -30 -12.5c-10.667 0 -20.334 4.16699 -29.001 12.5s-13 17.833 -13 28.5c0 11.333 4.16699 21.333 12.5 30s18.166 13 29.499 13s21.333 -4.33301 30 -13s13 -18.667 13 -30z" />
    <glyph glyph-name="slash" unicode="/" horiz-adv-x="323" 
d="M308 647l-238 -735h-64l236 735h66z" />
    <glyph glyph-name="zero" unicode="0" horiz-adv-x="535" 
d="M498 311c-7.33301 -218 -84 -327.001 -230 -327.001c-152.667 0 -229 108 -229 324c0 96.667 16.667 174.334 50 233.001c38.667 68.667 98 103 178 103c82.667 0 143.667 -31.667 183 -95c34.667 -56.667 50.667 -136 48 -238zM424 308.999
c1.33301 87.333 -7.66602 152.001 -26.999 194.001c-25.333 56 -69.333 82.667 -132 80c-102 -5.33301 -153.333 -97 -154 -275c-1.33301 -78 7.66699 -137.667 27 -179c24.667 -54.667 67.667 -82 129 -82c103.333 1.33301 155.666 88.666 156.999 261.999z" />
    <glyph glyph-name="one" unicode="1" horiz-adv-x="535" 
d="M302 0l-87 -0.000976562c7.33301 25.333 11.333 67.666 12 126.999v185v165c0 38.667 -0.333008 61.667 -1 69c-9.33301 1.33301 -21.666 1.33301 -36.999 0v26c25.333 8 47 24.667 65 50c27.333 0 40.333 -5.66699 39 -17c-0.666992 -5.33301 -1 -32.666 -1 -81.999
v-217v-179c1.33301 -61.333 4.66602 -103.666 9.99902 -126.999z" />
    <glyph glyph-name="two" unicode="2" horiz-adv-x="535" 
d="M459 -4c-46 2 -86.1699 3.50098 -120.503 4.50098s-63.5 1.16699 -87.5 0.5c-17.333 0.666992 -40.666 1 -69.999 1s-65 -0.666992 -107 -2v35l47 48.5l87 89.5c43.333 43.333 71.666 72.666 84.999 87.999c34 40 58 78.667 72 116c12 30 18 58 18 84
c0 37.333 -12.333 67.333 -37 90c-21.333 20 -47.666 30 -78.999 30c-44.667 0.666992 -78 -16.333 -100 -51c-13.333 -21.333 -21.333 -46 -24 -74h-59c0.666992 13.333 3.33398 27.333 8.00098 42c9.33301 33.333 23 60 41 80c30 33.333 75.667 51.666 137 54.999
c53.333 2 96 -13 128 -45c24 -24 39.667 -55.333 47 -94c2 -11.333 3 -22.666 3 -33.999c0 -79.333 -46 -167.333 -138 -264l-135 -142h173c32.667 0 51.334 3.33301 56.001 10c5.33301 7.33301 8.33301 17 9 29h46c-2.66699 -38 -2.66699 -70.333 0 -97z" />
    <glyph glyph-name="three" unicode="3" horiz-adv-x="535" 
d="M461 175c0 -51.333 -18.3311 -94.3311 -54.998 -128.998c-41.333 -39.333 -96.333 -57.333 -165 -54c-62.667 3.33301 -110.334 12.333 -143.001 27l22 63c24.667 -10.667 38.667 -16.334 42 -17.001c27.333 -9.33301 54.666 -14.333 81.999 -15
c42 -0.666992 76.667 9.5 104 30.5s42.333 50.5 45 88.5c2.66699 44.667 -13.333 81.334 -48 110.001c-31.333 25.333 -67 37 -107 35c-0.666992 1.33301 -1 22.666 -1 63.999c36.667 -2.66699 67.334 6.66602 92.001 27.999c24 21.333 36.667 46.666 38 75.999
c1.33301 30 -7.16699 53.667 -25.5 71s-41.5 25.666 -69.5 24.999c-26.667 -1.33301 -50.334 -10.333 -71.001 -27c-23.333 -19.333 -39.333 -44.666 -48 -75.999l-51 21c9.33301 38.667 28.333 70.5 57 95.5s63 38.833 103 41.5c54 3.33301 96.667 -9.66699 128 -39
c26.667 -26 40.667 -59 42 -99c0.666992 -33.333 -9 -63.666 -29 -90.999c-22 -29.333 -51 -47.333 -87 -54c48.667 -11.333 85 -33 109 -65c24 -30 36 -66.667 36 -110z" />
    <glyph glyph-name="four" unicode="4" horiz-adv-x="535" 
d="M460 153c-10 2.66699 -20.333 4.5 -31 5.5s-21.667 1.83301 -33 2.5v-103c0.666992 -6.66699 1.66699 -14.667 3 -24s3.66602 -20.666 6.99902 -33.999h-87c4 14 7 25.5 9 34.5s3.33301 15.167 4 18.5v109c-63.333 0.666992 -148.333 0.666992 -255 0v47l64.5 93l57.5 83
l103 155c26 40.667 44.333 70.667 55 90c0.666992 0.666992 7 0.666992 19 0c12.667 0 19.334 -0.333008 20.001 -1v-106v-198v-107c7.33301 -0.666992 16.5 -0.333984 27.5 0.999023s23.167 3.33301 36.5 6v-72zM331 215l-0.000976562 162.499
c0 43.667 0.333008 77.167 1 100.5l-79 -111l-102 -151c44 -0.666992 80.833 -1.16699 110.5 -1.5s52.834 -0.166016 69.501 0.500977z" />
    <glyph glyph-name="five" unicode="5" horiz-adv-x="535" 
d="M453 216c0 -52 -13.9971 -98.332 -41.9971 -138.999c-29.333 -44 -69.333 -72.333 -120 -85c-24 -6.66699 -53 -10 -87 -10c-48.667 0 -95 6.66699 -139 20l21 63c44 -15.333 84 -23 120 -23c50 0 92.667 15.667 128 47c34.667 30.667 52.667 71.334 54 122.001
c0.666992 50.667 -17.333 92 -54 124c-39.333 33.333 -92.333 50 -159 50c-6.66699 0 -13.167 -0.166992 -19.5 -0.5s-12.833 -0.833008 -19.5 -1.5c-10.667 -2.66699 -17.334 -10.334 -20.001 -23.001h-42c0 160 -2.33301 249.333 -7 268c52 -3.33301 99 -5.33301 141 -6
c26.667 -0.666992 57.167 -0.5 91.5 0.5s72.833 2.5 115.5 4.5c-2.66699 -20.667 -2.66699 -48 0 -82h-50c-0.666992 7.33301 -1.66699 11.666 -3 12.999l-5 5c-4 5.33301 -25.333 8 -64 8h-162c-1.33301 -21.333 -2 -42.5 -2 -63.5s0.333008 -41.833 1 -62.5
c7.33301 0.666992 14.666 1.16699 21.999 1.5s14.666 0.5 21.999 0.5c93.333 0 165 -24 215 -72c42.667 -42 64 -95 64 -159z" />
    <glyph glyph-name="six" unicode="6" horiz-adv-x="535" 
d="M468 163c-0.666992 -48.667 -17.3369 -90.335 -50.0039 -125.002c-35.333 -38 -82 -57 -140 -57c-67.333 0 -119.333 20 -156 60c-37.333 41.333 -53.666 94.666 -48.999 159.999c1.33301 24.667 4.66602 47.834 9.99902 69.501s12.333 42.167 21 61.5
c16.667 38 46.334 82.667 89.001 134c50.667 63.333 118 122 202 176l40 -47l-26 -16c-8.66699 -5.33301 -17.334 -11 -26.001 -17c-20.667 -15.333 -40.167 -31.166 -58.5 -47.499s-36.166 -33.166 -53.499 -50.499c-55.333 -60.667 -94.666 -119 -117.999 -175
c34.667 36 78.334 54 131.001 54c57.333 0 103 -18 137 -54c32.667 -32.667 48.334 -74.667 47.001 -126zM406.997 161.999c0.666992 18 -1.83301 34.668 -7.5 50.001s-14 28.666 -25 39.999s-24.333 20.166 -40 26.499s-33.5 9.5 -53.5 9.5c-14 0 -28 -2 -42 -6
s-27.5 -9.5 -40.5 -16.5s-25 -15.167 -36 -24.5s-20.5 -19 -28.5 -29c-2 -11.333 -3 -22.333 -3 -33c0 -44 13.5 -79 40.5 -105s63.833 -39.333 110.5 -40c18 0 34.5 3.16699 49.5 9.5s28 15.333 39 27s19.667 25.334 26 41.001s9.83301 32.5 10.5 50.5z" />
    <glyph glyph-name="seven" unicode="7" horiz-adv-x="535" 
d="M488 590c-78 -100 -135.665 -194.666 -172.998 -283.999c-19.333 -47.333 -34.333 -96.333 -45 -147s-17.334 -103.667 -20.001 -159c-50 -1.33301 -75 -1.33301 -75 0c12.667 107.333 31.334 196 56.001 266c17.333 50.667 40.166 101 68.499 151s61.833 100 100.5 150
h-200c-34.667 0 -55.334 -4.33301 -62.001 -13c-5.33301 -6 -8.33301 -18 -9 -36h-50c3.33301 49.333 3.33301 85.666 0 108.999l115 -3.5c34 -1 64.333 -1.5 91 -1.5c41.333 0 109 2 203 6v-38z" />
    <glyph glyph-name="eight" unicode="8" horiz-adv-x="535" 
d="M471 173c0 -49.333 -15.998 -90.3311 -47.998 -122.998c-36 -38 -86 -57 -150 -57c-66 -0.666992 -117.667 18.666 -155 57.999c-32.667 33.333 -49 75.666 -49 126.999c0 45.333 14 85.666 42 120.999s64.667 54 110 56c-36 0 -65.333 13 -88 39
c-21.333 24.667 -32 53.667 -32 87c-0.666992 40.667 13.333 75.334 42 104.001c32 32.667 75.333 48.667 130 48c54 -1.33301 95.667 -16.666 125 -45.999c26.667 -26.667 40 -59.334 40 -98.001c0 -36 -11.333 -67.333 -34 -94s-51.334 -40 -86.001 -40
c45.333 0 82.666 -19 111.999 -57c28 -35.333 41.667 -77 41 -125zM378.002 491.002c0 25.333 -8.66699 46.667 -26 64c-18.667 18.667 -45 28 -79 28c-35.333 0 -63.333 -10.333 -84 -31c-18.667 -18 -28 -40.333 -28 -67c0 -28 9.33301 -50.333 28 -67
c20.667 -20 49 -30 85 -30c32.667 0 58.667 10.667 78 32c18 19.333 26.667 43 26 71zM406.002 173.003c1.33301 40 -9 73.335 -31 100.002c-24.667 30.667 -57.667 46 -99 46c-42.667 0 -77.334 -14.333 -104.001 -43c-23.333 -26.667 -35.666 -58.667 -36.999 -96
c-0.666992 -36.667 10.333 -67.334 33 -92.001c24.667 -26.667 60 -40.667 106 -42c40.667 0 73 13 97 39c22 23.333 33.667 52.666 35 87.999z" />
    <glyph glyph-name="nine" unicode="9" horiz-adv-x="535" 
d="M468 410c-2 -24 -5.6748 -47.1699 -11.0078 -69.5029s-13.166 -44.666 -23.499 -66.999s-23.166 -45 -38.499 -68s-33.333 -47.5 -54 -73.5c-32.667 -40 -69.667 -75.333 -111 -106l-42 -27.5l-42 -27.5l-41 47c18.667 10 37.667 21 57 33
c46 29.333 85 61.666 117 96.999c26.667 28.667 49.334 57.5 68.001 86.5s33.334 58.833 44.001 89.5c-35.333 -36 -80.333 -54 -135 -54c-29.333 0 -55.666 4.5 -78.999 13.5s-43.166 21.833 -59.499 38.5s-28.666 36.334 -36.999 59.001s-11.833 47.667 -10.5 75
c2 48.667 19.333 89.334 52 122.001c34.667 36 81.334 54 140.001 54c66.667 0 118.667 -20.667 156 -62c38 -41.333 54.667 -94.666 50 -159.999zM405.992 400.997c0.666992 4.66699 1.16699 9.33301 1.5 14s0.5 9.33398 0.5 14.001c0 44 -12.667 79.833 -38 107.5
s-61.333 41.5 -108 41.5c-38 0 -69 -13 -93 -39c-22.667 -24.667 -34.667 -54.334 -36 -89.001c-1.33301 -34 8.66699 -62.667 30 -86c22.667 -26 54.667 -39 96 -39c26.667 0 54.667 7.66699 84 23c28 15.333 49 33 63 53z" />
    <glyph glyph-name="colon" unicode=":" horiz-adv-x="244" 
d="M157 363c0 -12 -4.33301 -22.165 -13 -30.498s-18.667 -12.5 -30 -12.5c-10.667 0 -20.334 4.16699 -29.001 12.5s-13 18.5 -13 30.5c0 11.333 4.33301 21.166 13 29.499s18.334 12.5 29.001 12.5c11.333 0 21.333 -4.33301 30 -13s13 -18.334 13 -29.001zM157 7.00195
c0 -10.667 -4.33105 -20.332 -12.998 -28.999s-18.667 -13 -30 -13c-10.667 0 -20.334 4.16699 -29.001 12.5s-13 18.166 -13 29.499c0 12 4.16699 22.167 12.5 30.5s18.166 12.5 29.499 12.5s21.333 -4.16699 30 -12.5s13 -18.5 13 -30.5z" />
    <glyph glyph-name="semicolon" unicode=";" horiz-adv-x="260" 
d="M178 355c0 -11.333 -4.16699 -21.166 -12.5 -29.499s-18.166 -12.5 -29.499 -12.5c-10.667 0 -20.334 4.16699 -29.001 12.5s-13 18.166 -13 29.499c0 21.333 14 32 42 32s42 -10.667 42 -32zM178 32c-3.33301 -65.333 -29.668 -103.334 -79.001 -114.001v35
c22.667 4.66699 35 16.334 37 35.001c-11.333 0 -21.666 4.33301 -30.999 13s-14 19.334 -14 32.001c0 12 4.5 22.333 13.5 31s19.5 13 31.5 13c11.333 0 21.333 -4.33301 30 -13s12.667 -19.334 12 -32.001z" />
    <glyph glyph-name="less" unicode="&#x3c;" horiz-adv-x="472" 
d="M413 -37l-291 295v46l291 291l-2 -76l-234 -237l234 -237z" />
    <glyph glyph-name="equalorig" unicode="=" horiz-adv-x="788" 
d="M670 315h-552v49h552v-49zM670 141h-552v50h552v-50z" />
    <glyph glyph-name="greater" unicode="&#x3e;" horiz-adv-x="472" 
d="M357 258l-292 -295l2 82l236 237l-236 237l-2 76l292 -291v-46z" />
    <glyph glyph-name="question" unicode="?" horiz-adv-x="426" 
d="M382 474c0 -86 -38 -157.335 -114 -214.002c-26.667 -20 -46 -37.667 -58 -53c-14.667 -21.333 -23.334 -48.666 -26.001 -81.999c0 1.33301 0.166992 0.166016 0.5 -3.50098l1.5 -16.5h-65c0 4.66699 0.333008 8.66699 1 12c0 52.667 20.667 99.667 62 141l37.5 32
l37.5 32c28 27.333 47.667 64 59 110c3.33301 15.333 5 29.333 5 42c0 32 -8.33301 58.333 -25 79c-19.333 23.333 -47.333 35 -84 35s-65.667 -13.667 -87 -41c-11.333 -14.667 -18.666 -31 -21.999 -49l-40 1c-2 48.667 -3 82.334 -3 101.001
c10.667 -2.66699 33.667 2 69 14l31 10c8.66699 2.66699 16.5 4.83398 23.5 6.50098s13.333 2.83398 19 3.50098s11.834 1 18.501 1c22.667 0 43.667 -2.66699 63 -8s36.166 -14.333 50.499 -27s25.5 -29.334 33.5 -50.001s12 -46 12 -76zM188 25.998
c0 -10 -3.66699 -18.5 -11 -25.5s-15.666 -10.5 -24.999 -10.5c-10 0 -18.5 3.5 -25.5 10.5s-10.5 15.5 -10.5 25.5s3.5 18.5 10.5 25.5s15.5 10.5 25.5 10.5c9.33301 0 17.666 -3.5 24.999 -10.5s11 -15.5 11 -25.5z" />
    <glyph glyph-name="at" unicode="@" horiz-adv-x="935" 
d="M873 197c-4 -74 -24.333 -130.334 -61 -169.001c-32.667 -34 -73 -50 -121 -48c-34 1.33301 -62.833 10.666 -86.5 27.999s-38.834 41 -45.501 71c-14.667 -29.333 -37.334 -53 -68.001 -71s-63 -27 -97 -27c-61.333 0 -109.666 20.667 -144.999 62
c-32.667 36.667 -49 84.334 -49 143.001c0 51.333 16.667 96.666 50 135.999c36.667 42.667 84.667 64 144 64c74 0 129.667 -33 167 -99c8.66699 46.667 39.667 83.667 93 111l6 -62c-45.333 -41.333 -68 -91.666 -68 -150.999c-1.33301 -85.333 31.334 -133 98.001 -143
c25.333 -4 48.666 5.66699 69.999 29c24 26.667 38 66 42 118c0.666992 5.33301 1 11 1 17v17c0 90.667 -28.333 163 -85 217c-56 54 -133.333 81 -232 81s-182.334 -31.667 -251.001 -95c-70.667 -66 -106 -152 -106 -258c0 -90 26 -165 78 -225
c40 -46 92.667 -80.667 158 -104c50.667 -17.333 92.334 -24.666 125.001 -21.999c0 -42 -1.33301 -62 -4 -60c-123.333 0 -224.666 36.333 -303.999 109c-84.667 76 -127 177.333 -127 304s45 229 135 307c83.333 71.333 183.333 107 300 107
c114.667 0 207.667 -32.667 279 -98c75.333 -70 110 -166.333 104 -289zM533 184.999c0 38 -14.3311 71 -42.998 99c-28 28.667 -60.667 43 -98 43c-32.667 0 -62.334 -14 -89.001 -42c-26 -27.333 -39 -60.333 -39 -99c0 -22 3.16699 -42 9.5 -60
s15.166 -33.5 26.499 -46.5s25 -23 41 -30s33.667 -10.5 53 -10.5c38 0 70.667 13.667 98 41s41 62.333 41 105z" />
    <glyph glyph-name="A" unicode="A" horiz-adv-x="613" 
d="M587 0l-91.001 0.00195312c-4.66699 21.333 -27.667 89.666 -69 204.999h-251c-42.667 -108.667 -67 -177 -73 -205h-80c32.667 64.667 115.667 275.667 249 633h71l58.5 -158.5l51.5 -136.5c74.667 -200.667 119.334 -313.334 134.001 -338.001zM405.999 266.002
l-52.5 154.001l-46.5 147c-9.33301 -28.667 -23 -67.834 -41 -117.501l-69 -183.5h209z" />
    <glyph glyph-name="B" unicode="B" horiz-adv-x="586" 
d="M522 170c0 -62 -24.666 -108.002 -73.999 -138.002c-36 -22 -79.667 -33 -131 -33h-231c6.66699 24.667 10.667 66.667 12 126v289c0 68.667 -0.333008 110.667 -1 126s-1.83398 30 -3.50098 44s-4.16699 27.333 -7.5 40h229c126.667 0 190 -53.667 190 -161
c0 -35.333 -12.667 -66.666 -38 -93.999c-22 -23.333 -48.333 -38.333 -79 -45c30.667 -7.33301 59.667 -23.333 87 -48c31.333 -31.333 47 -66.666 47 -105.999zM445.001 462.998c0 47.333 -21.333 80 -64 98c-22.667 9.33301 -47 14 -73 14l-151 -1v-227h151
c24.667 0 48.667 5 72 15c43.333 19.333 65 53 65 101zM456.001 169.998c-1.33301 47.333 -25.666 83 -72.999 107c-30.667 15.333 -57.334 23 -80.001 23h-146v-246h155c97.333 0 145.333 38.667 144 116z" />
    <glyph glyph-name="C" unicode="C" horiz-adv-x="533" 
d="M479 106c-2.66699 -22.667 -4.5 -41.668 -5.5 -57.001s-1.5 -27.333 -1.5 -36c-4 0.666992 -21.333 -2.66602 -52 -9.99902c-32 -8.66699 -64 -13 -96 -13c-83.333 0 -151.333 33 -204 99c-50.667 61.333 -76 134.333 -76 219c0 92 24 168 72 228
c52 65.333 122.333 98 211 98c27.333 0 56.333 -3.66699 87 -11c30 -6.66699 47.333 -9.66699 52 -9c0 -8.66699 0.666992 -20.834 2 -36.501s3.33301 -35.167 6 -58.5h-47c-1.33301 9.33301 -5.33301 21 -12 35c-16.667 14.667 -47 21.667 -91 21
c-66 -2 -118.667 -30 -158 -84c-35.333 -50.667 -53 -112 -53 -184c0 -67.333 19.667 -126.333 59 -177c42.667 -54 96.667 -81 162 -81c40 0 67.333 7.33301 82 22c6.66699 6.66699 12 18.334 16 35.001h47z" />
    <glyph glyph-name="D" unicode="D" horiz-adv-x="564" 
d="M529 303c0 -88.667 -29 -161.334 -87 -218.001c-56.667 -56.667 -129.667 -85 -219 -85h-184c4.66699 18 7.66699 43 9 75c2 32 3 111 3 237v134.5c0 35.667 -0.333008 62.834 -1 81.501s-1.83398 35.667 -3.50098 51s-4.16699 29.333 -7.5 42h191
c96.667 0 171.334 -29.333 224.001 -88c50 -56 75 -132.667 75 -230zM455 303c0 165.333 -77 247.999 -231 247.999h-107v-115c-0.666992 -25.333 -1 -47.666 -1 -66.999v-48c0 -54 1 -139.333 3 -256h103c69.333 0 125.333 22.333 168 67c43.333 45.333 65 102.333 65 171z
" />
    <glyph glyph-name="E" unicode="E" horiz-adv-x="525" 
d="M485 -5c-42.667 2 -81.001 3.5 -115.001 4.5s-64.333 1.16699 -91 0.5c-20.667 -0.666992 -47.834 -1.5 -81.501 -2.5l-120.5 -3.5c6.66699 22 10 132 10 330c0 179.333 -3.33301 280 -10 302c44.667 -2.66699 103.334 -4.66699 176.001 -6
c26.667 -0.666992 57.167 -0.5 91.5 0.5s72.833 2.5 115.5 4.5c-3.33301 -23.333 -3.33301 -55.333 0 -96h-50l-2 16c0 2 -2 5 -6 9c-2.66699 4.66699 -24 7 -64 7h-185c-1.33301 -62 -1.33301 -129.667 0 -203c144.667 0 228 4.66699 250 14v-86
c-31.333 10 -114.666 14 -249.999 12c-0.666992 -74 -0.666992 -153.333 0 -238h211c36 0 57 4 63 12c4 6 7 16.333 9 31h49c-3.33301 -49.333 -3.33301 -85.333 0 -108z" />
    <glyph glyph-name="F" unicode="F" horiz-adv-x="470" 
d="M460 535l-50 0.00390625c0 14.667 -4 24 -12 28c-4.66699 2.66699 -16 4 -34 4h-211v-209c52.667 0 95.167 0.166992 127.5 0.5s54.5 0.833008 66.5 1.5c24.667 2 43.334 6 56.001 12v-83c-6 1.33301 -14.167 2.66602 -24.5 3.99902s-23.166 2.66602 -38.499 3.99902
c-38 2 -72.833 3 -104.5 3s-60.167 -0.666992 -85.5 -2v-75c0 -26.667 0.333008 -55 1 -85s2 -56.333 4 -79s5.33301 -42.334 10 -59.001h-87c4 15.333 7 34.666 9 57.999c1.33301 17.333 2.16602 37.166 2.49902 59.499s0.166016 46.833 -0.500977 73.5
c-0.666992 48 -1.16699 83 -1.5 105s-0.5 31.333 -0.5 28v220c-1.33301 38.667 -4.66602 68 -9.99902 88c21.333 0 50.666 -1 87.999 -3c42 -2 71.333 -3 88 -3c34.667 -0.666992 69.167 -0.666992 103.5 0s68.833 2.33398 103.5 5.00098v-96z" />
    <glyph glyph-name="G" unicode="G" horiz-adv-x="527" 
d="M501 16c-22.667 1.33301 -53.998 -4.00098 -93.998 -16.001c-21.333 -6 -49 -9 -83 -9c-85.333 0 -154 32.333 -206 97c-49.333 60.667 -74 134 -74 220c0 90.667 24.333 166.334 73 227.001c52 66 122.333 99 211 99c29.333 0 57.666 -3 84.999 -9
c6 -0.666992 16.667 -3.66699 32 -9c10 -3.33301 17 -4.33301 21 -3c1.33301 -30 4.33301 -61.333 9 -94h-47c-4.66699 23.333 -16 39.666 -34 48.999c-13.333 6 -33.333 9 -60 9c-69.333 0 -124.333 -29 -165 -87c-36.667 -52.667 -55 -114.667 -55 -186
c0 -66 19.667 -124.333 59 -175c43.333 -53.333 97 -80 161 -80c28 0 49 2.66699 63 8c21.333 8 31.666 24.333 30.999 49l-1 121h-15c-22 0 -35.333 -1 -40 -3c-10.667 -2.66699 -16.667 -12 -18 -28h-49c2.66699 38.667 2.66699 69.667 0 93
c36.667 -0.666992 70.5 -1.16699 101.5 -1.5s59.833 -0.166016 86.5 0.500977v-165c0 -22.667 -0.333008 -13 -1 29c1.33301 -54 4.33301 -99.333 9 -136z" />
    <glyph glyph-name="H" unicode="H" horiz-adv-x="635" 
d="M580 0h-86.998c4.66699 16.667 7.83398 48.667 9.50098 96s2.16699 110.333 1.5 189h-352c0 -160.667 3.66699 -255.667 11 -285h-89c7.33301 25.333 11.333 68 12 128v286c0 68 -0.333008 109.667 -1 125s-1.83398 29.666 -3.50098 42.999s-4.16699 26.333 -7.5 39h89
c-11.333 -41.333 -15.333 -131.666 -12 -270.999h353c0.666992 74.667 0.166992 134.5 -1.5 179.5s-4.83398 75.5 -9.50098 91.5h86c-3.33301 -12.667 -5.83301 -29.5 -7.5 -50.5s-2.83398 -46.5 -3.50098 -76.5v-184c0 -176 4 -279.333 12 -310z" />
    <glyph glyph-name="I" unicode="I" horiz-adv-x="230" 
d="M165 621c-3.33301 -12.667 -5.83008 -29.499 -7.49707 -50.499s-2.83398 -46.5 -3.50098 -76.5v-184v-181c1.33301 -62.667 4.66602 -105.667 9.99902 -129h-87c7.33301 25.333 11.333 68 12 128v286c0 68 -0.333008 109.667 -1 125s-1.83398 29.666 -3.50098 42.999
s-4.16699 26.333 -7.5 39h88z" />
    <glyph glyph-name="J" unicode="J" horiz-adv-x="235" 
d="M203 622c-4.66699 -16.667 -7 -81.333 -7 -194c0 -245.333 -3.33301 -377 -10 -395c-11.333 -30 -40.666 -45 -87.999 -45c-10 0 -18.833 0.833008 -26.5 2.5s-14.667 3.5 -21 5.5s-12.5 3.5 -18.5 4.5s-12 0.833008 -18 -0.5c-1.33301 48.667 -1.33301 72.667 0 72
l36 -1c0.666992 -8.66699 6.66699 -16 18 -22c8.66699 -4.66699 18 -7 28 -7c19.333 0 29.666 8.66699 30.999 26c1.33301 16 2.33301 53.833 3 113.5s1 142.167 1 247.5c0 112 -2.33301 176.333 -7 193h79z" />
    <glyph glyph-name="K" unicode="K" horiz-adv-x="590" 
d="M552 0l-109 -0.000976562c-9.33301 28.667 -24.666 56 -45.999 82c-9.33301 11.333 -22.666 26 -39.999 44l-64 64c-60.667 58.667 -110.334 101.334 -149.001 128.001l123 124l72 73l34 35c23.333 27.333 35.666 51.666 36.999 72.999h125c-21.333 -16 -53 -46 -95 -90
l-65 -67l-65 -66l-31.5 -31l-41.5 -41c42.667 -35.333 77.667 -65.333 105 -90c97.333 -91.333 167.333 -170.666 210 -237.999zM154 622.999c-8 -31.333 -12 -134.334 -12 -309.001v-183c0.666992 -32 1.83398 -58.667 3.50098 -80s4.16699 -38.333 7.5 -51h-88
c7.33301 25.333 11.333 68 12 128v287c0 68 -0.333008 109.667 -1 125s-1.83398 29.833 -3.50098 43.5s-4.16699 26.834 -7.5 39.501h89z" />
    <glyph glyph-name="L" unicode="L" horiz-adv-x="530" 
d="M485 -5c-42.667 2 -80.9971 3.50098 -114.997 4.50098s-64.333 1.16699 -91 0.5c-20.667 -0.666992 -47.834 -1.5 -81.501 -2.5l-120.5 -3.5c6.66699 22 10 132.333 10 331v183.5c0 29 0.333008 26.5 1 -7.5c-0.666992 28 -1.83398 52 -3.50098 72
s-4.16699 36.333 -7.5 49h88c-3.33301 -12.667 -5.83301 -29.834 -7.5 -51.501s-2.83398 -48.5 -3.50098 -80.5v-179l-1 -254h211c36 0 57 4 63 12c4 6 7 16.333 9 31h49c-2 -48 -2 -83 0 -105z" />
    <glyph glyph-name="M" unicode="M" horiz-adv-x="763" 
d="M703 623c-10 -18.667 -16.6719 -60.334 -20.0049 -125.001c-0.666992 -12.667 -1.16699 -34.667 -1.5 -66s-0.5 -72.333 -0.5 -123v-183c0.666992 -30 1.83398 -55.333 3.50098 -76s4.16699 -37.334 7.5 -50.001h-84c3.33301 12.667 5.83301 29.5 7.5 50.5
s2.83398 46.5 3.50098 76.5v180v246c-7.33301 -30.667 -30.666 -84.5 -69.999 -161.5s-94.333 -177.833 -165 -302.5c-41.333 70.667 -77.333 134.667 -108 192c-73.333 136.667 -115.333 225.667 -126 267v-241v-180c0.666992 -30.667 1.83398 -56.5 3.50098 -77.5
s4.16699 -37.5 7.5 -49.5h-81c3.33301 12.667 5.83301 29.334 7.5 50.001s2.83398 46 3.50098 76v183v123c0 31.333 -0.333008 53.333 -1 66c-3.33301 64.667 -10 106.334 -20 125.001h98l215 -411l219 411h101z" />
    <glyph glyph-name="N" unicode="N" horiz-adv-x="636" 
d="M578 623c-3.33301 -12.667 -5.83398 -29.499 -7.50098 -50.499s-2.83398 -46.833 -3.50098 -77.5c0.666992 18 1 11.667 1 -19v-166v-310h-58l-87 125l-76 111l-135.5 201c-33.667 50.667 -56.167 86 -67.5 106v-233v-181c0.666992 -30.667 1.83398 -56.667 3.50098 -78
s4.16699 -38.333 7.5 -51h-83c3.33301 12.667 5.83301 29.5 7.5 50.5s2.83398 46.833 3.50098 77.5v184v123c0 31.333 -0.333008 53 -1 65c-3.33301 64 -9.66602 105 -18.999 123c63.333 -0.666992 94.666 -0.666992 93.999 0l83.5 -115.5l75.5 -107.5
c54.667 -79.333 97.5 -143.833 128.5 -193.5s50.833 -84.834 59.5 -105.501v210v156.5c0 30.333 0.333008 39.5 1 27.5c-0.666992 60 -4.66699 102.667 -12 128h85z" />
    <glyph glyph-name="O" unicode="O" horiz-adv-x="697" 
d="M643 304c0 -86 -26.667 -159.333 -80 -220c-56 -62.667 -126.333 -94 -211 -94c-88 0 -159 31.333 -213 94c-52 58.667 -78 132 -78 220c0 93.333 24.333 170.333 73 231c52.667 66 125.334 99 218.001 99c93.333 0 166.666 -33 219.999 -99
c47.333 -60.667 71 -137.667 71 -231zM571 304c0 78.667 -17.667 141.667 -53 189c-38.667 50.667 -94.334 76 -167.001 76c-68 0 -122.333 -28 -163 -84c-37.333 -50.667 -56 -111.334 -56 -182.001c0 -66.667 19.667 -123.667 59 -171c42 -51.333 95.667 -77 161 -77
c66.667 0 120.334 25.333 161.001 76c38.667 46.667 58 104.334 58 173.001z" />
    <glyph glyph-name="P" unicode="P" horiz-adv-x="511" 
d="M480 448c0 -62 -24.001 -109.332 -72.001 -141.999c-34 -22.667 -71.667 -35.667 -113 -39c-6 0 -14.667 -0.166992 -26 -0.5s-23.833 -0.666016 -37.5 -0.999023s-27.167 -0.5 -40.5 -0.5h-35c0 -9.33301 -0.166992 -16.833 -0.5 -22.5s-0.5 -13.167 -0.5 -22.5
s-0.166992 -22.833 -0.5 -40.5s-0.5 -42.834 -0.5 -75.501c0.666992 -22.667 1.83398 -42.5 3.50098 -59.5s4.16699 -31.833 7.5 -44.5h-88c3.33301 12.667 5.83301 29.167 7.5 49.5s2.83398 45.5 3.50098 75.5v184v184c-0.666992 31.333 -1.83398 57.666 -3.50098 78.999
s-4.16699 38.333 -7.5 51h219c38 0 74.667 -11 110 -33c49.333 -32 74 -79.333 74 -142zM409.999 448.001c0 34 -9.33301 60.3359 -28 79.0029c-13.333 14 -30.666 24 -51.999 30c-6 1.33301 -12 2.33301 -18 3s-11.667 1.66699 -17 3
c-19.333 2.66699 -65.333 3.66699 -138 3l-1 -241c40 -0.666992 71.5 -0.833984 94.5 -0.500977s37.833 1.16602 44.5 2.49902c77.333 11.333 115.666 51.666 114.999 120.999z" />
    <glyph glyph-name="Q" unicode="Q" horiz-adv-x="698" 
d="M535 -123l-106.999 0.00195312c-0.666992 3.33301 -2.5 10 -5.5 20s-7.83301 23 -14.5 39l-28 55c-4.66699 -0.666992 -9.33398 -1 -14.001 -1h-14c-88 0 -159 31.333 -213 94c-52 58.667 -78 132 -78 220c0 93.333 24.333 170.333 73 231
c52.667 66 125.334 99 218.001 99c93.333 0 166.666 -33 219.999 -99c47.333 -60.667 71 -137.667 71 -231c0 -67.333 -17.667 -128.666 -53 -183.999c-35.333 -54.667 -82 -92.334 -140 -113.001l6 -11c2 -4.66699 6.33301 -12.334 13 -23.001s15.667 -24.334 27 -41.001
c22 -32.667 35 -51 39 -55zM571.001 304.002c0 78.667 -17.667 141.667 -53 189c-38.667 50.667 -94.334 76 -167.001 76c-68 0 -122.333 -28 -163 -84c-37.333 -50.667 -56 -111.334 -56 -182.001c0 -66.667 19.667 -123.667 59 -171c42 -51.333 95.667 -77 161 -77
c66.667 0 120.334 25.333 161.001 76c38.667 46.667 58 104.334 58 173.001z" />
    <glyph glyph-name="R" unicode="R" horiz-adv-x="540" 
d="M502 0h-88.001c0.666992 2.66699 1.16699 5.16699 1.5 7.5s0.5 5.16602 0.5 8.49902c0 42.667 -13 90.667 -39 144c-30 64 -67.667 103 -113 117c-17.333 5.33301 -41 8.33301 -71 9c-6.66699 -0.666992 -13.167 -1 -19.5 -1s-12.833 -0.333008 -19.5 -1v-170
c0.666992 -25.333 1.83398 -47.5 3.50098 -66.5s4.16699 -34.833 7.5 -47.5h-88c3.33301 12.667 5.83301 29.167 7.5 49.5s2.83398 45.5 3.50098 75.5v184v184c-0.666992 31.333 -1.83398 57.666 -3.50098 78.999s-4.16699 38.333 -7.5 51h219c24.667 0 48.167 -3 70.5 -9
s42 -15.5 59 -28.5s30.333 -30 40 -51s14.5 -46.5 14.5 -76.5c0 -89.333 -49.667 -144.666 -149 -165.999c81.333 -27.333 138.333 -124.666 171 -291.999zM409.999 458c0 18.667 -2.83203 34.502 -8.49902 47.502s-13.5 23.5 -23.5 31.5s-22.167 14 -36.5 18
s-29.833 6.66699 -46.5 8c-19.333 2.66699 -65.333 3.66699 -138 3l-1 -221c40 -0.666992 71.5 -0.833984 94.5 -0.500977s37.833 1.16602 44.5 2.49902c37.333 5.33301 65.666 16 84.999 32s29.333 42.333 30 79z" />
    <glyph glyph-name="S" unicode="S" horiz-adv-x="505" 
d="M471 157c-2.66699 -64.667 -35.6641 -111.002 -98.9971 -139.002c-47.333 -22 -107 -31.333 -179 -28c-27.333 0.666992 -64.333 9.66699 -111 27c-21.333 7.33301 -36.333 9.66602 -45 6.99902c0 18 1 51.667 3 101h38c2 -11.333 11.333 -23 28 -35
c38 -28 80.333 -42 127 -42c44.667 0 83.334 9.33301 116.001 28c40 22.667 57.333 55 52 97c-2.66699 26 -15.334 47 -38.001 63c-16 12.667 -41 24 -75 34l-44 12l-44 12c-49.333 15.333 -86 31.333 -110 48c-37.333 29.333 -56 67.333 -56 114
c0 59.333 22.667 105 68 137c40 28.667 91.667 42.334 155 41.001c17.333 0 51 -6.33301 101 -19c32.667 -7.33301 50.667 -10.666 54 -9.99902v-38.5c0 -16.333 0.333008 -36.833 1 -61.5h-38c-4 21.333 -9.33301 34.333 -16 39c-30.667 20.667 -68.334 31 -113.001 31
c-100.667 0 -149.334 -42 -146.001 -126c2 -50 54.333 -85 157 -105c147.333 -29.333 218.666 -91.666 213.999 -186.999z" />
    <glyph glyph-name="T" unicode="T" horiz-adv-x="640" 
d="M604 521h-49.999c-0.666992 16.667 -3.33398 29 -8.00098 37c-8 8 -29 12 -63 12h-128v-269v-160c0 -30 -0.333008 -36.333 -1 -19c0.666992 -28.667 1.83398 -53.167 3.50098 -73.5s4.16699 -36.5 7.5 -48.5h-87c7.33301 25.333 11.333 66 12 122v179v270h-126
c-33.333 0 -54 -4 -62 -12c-4.66699 -8 -7.33398 -20.333 -8.00098 -37h-51c3.33301 42 3.33301 75.667 0 101h561c-2 -22 -2 -56 0 -102z" />
    <glyph glyph-name="U" unicode="U" horiz-adv-x="635" 
d="M585 621c-7.33301 -27.333 -11 -102.665 -11 -225.998v-24.5c0 -9.66699 0.333008 -20.834 1 -33.501s1 -23.667 1 -33v-23c0 -86 -19.333 -153.667 -58 -203c-47.333 -60 -113.333 -90 -198 -90c-85.333 0 -151.333 29 -198 87c-37.333 47.333 -56 109.666 -56 186.999
c0 -3.33301 0.166992 7 0.5 31l1.5 113c0.666992 28 0.833984 54 0.500977 78s-1.16602 46 -2.49902 66c-2 32.667 -5.33301 56.334 -10 71.001h92c-5.33301 -22.667 -9 -73.667 -11 -153c-0.666992 -40.667 -1.16699 -79 -1.5 -115s-0.5 -70 -0.5 -102
c0 -130.667 62.333 -196 187 -196c58 0 103 17.333 135 52c35.333 39.333 53 104 53 194c0 73.333 -1 139.666 -3 198.999c-0.666992 30 -1.83398 55 -3.50098 75s-3.83398 35.333 -6.50098 46h88z" />
    <glyph glyph-name="V" unicode="V" horiz-adv-x="594" 
d="M578 621c-28.667 -50 -108.665 -257.667 -239.998 -623h-75c-4 12.667 -14.333 41.334 -31 86.001l-70 185l-88 230c-22.667 58 -39.334 98.667 -50.001 122h78c3.33301 -12.667 12.166 -39.334 26.499 -80.001l59.5 -165l74.5 -200c19 -52 32.167 -89.667 39.5 -113
l31.5 91.5l77.5 220.5c48 136.667 75 218.667 81 246h86z" />
    <glyph glyph-name="W" unicode="W" horiz-adv-x="950" 
d="M933 624c-8.66699 -22.667 -30.333 -85.5 -65 -188.5l-145 -434.5h-75l-67.5 208l-99.5 304l-71 -215l-97 -297h-75l-94.5 283l-114.5 340h78l64 -215l106 -343c50 154.667 105 340.667 165 558h80c16.667 -61.333 71.667 -247.333 165 -558l103 344
c26.667 92.667 45.667 164 57 214h86z" />
    <glyph glyph-name="X" unicode="X" horiz-adv-x="640" 
d="M633 0l-104.003 0.000976562c-4.66699 10.667 -11.167 24.167 -19.5 40.5s-19.166 35.166 -32.499 56.499l-149 195l-159 -195c-22 -26 -40.333 -58.333 -55 -97h-106c10.667 22.667 105 134 283 334l-58 71.5l-50 62.5c-38 46 -68.5 81.833 -91.5 107.5
s-38.833 41.5 -47.5 47.5h113c4.66699 -12 23.334 -42 56.001 -90l119 -156l118 153c19.333 26 36 57 50 93h103c-15.333 -18 -42.166 -51.167 -80.499 -99.5l-150.5 -190.5l70 -83.5l59 -71.5c86 -106 130 -165.333 132 -178z" />
    <glyph glyph-name="Y" unicode="Y" horiz-adv-x="525" 
d="M517 623c-11.333 -12 -26.666 -31.332 -45.999 -57.999l-72 -103l-50 -76l-50 -76c0.666992 -30.667 1 -61 1 -91s0.333008 -60.333 1 -91c1.33301 -62 4.66602 -104.667 9.99902 -128h-88c7.33301 25.333 11.333 67.666 12 126.999v183l-56 85.5l-56 85.5
c-28 42 -51 74.667 -69 98s-31.333 38 -40 44h116c-1.33301 -18 9 -44.333 31 -79l111 -177l109 176c22 36 33.667 62.667 35 80h101z" />
    <glyph glyph-name="Z" unicode="Z" horiz-adv-x="585" 
d="M554 621l-398.001 -564h263c36 0 57 4.33301 63 13c5.33301 6.66699 8 16.667 8 30h51c-3.33301 -46 -3.33301 -82.667 0 -110c-94 5.33301 -167.667 7.33301 -221 6c-30 0.666992 -66.333 0.833984 -109 0.500977s-92.334 -1.16602 -149.001 -2.49902v37l372 528h-228
c-38.667 0 -60 -2.33301 -64 -7c-3.33301 -4.66699 -5.66602 -13 -6.99902 -25h-51c2.66699 40.667 2.66699 73 0 97c42.667 -2 81.167 -3.5 115.5 -4.5s64.833 -1.16699 91.5 -0.5c31.333 -0.666992 68.833 -0.833984 112.5 -0.500977s93.834 1.16602 150.501 2.49902z" />
    <glyph glyph-name="bracketleft" unicode="[" horiz-adv-x="356" 
d="M320 -227h-232v879h232l-1 -45h-174v-780h175v-54z" />
    <glyph glyph-name="backslash" unicode="\" horiz-adv-x="323" 
d="M72 647l236 -735h-64l-238 735h66z" />
    <glyph glyph-name="bracketright" unicode="]" horiz-adv-x="385" 
d="M266 -227h-232v52h176v781h-176v46h232v-879z" />
    <glyph glyph-name="asciicircum" unicode="^" 
d="M450 244h-62l-138 311l-138 -311h-63l177 382h48z" />
    <glyph glyph-name="underscore" unicode="_" horiz-adv-x="485" 
d="M485 -121h-485v48h485v-48z" />
    <glyph glyph-name="grave" unicode="`" horiz-adv-x="540" 
d="M278 459l-51 -16l-61 167l68 23z" />
    <glyph glyph-name="a" unicode="a" horiz-adv-x="427" 
d="M272 288c-0.666992 44.667 -25.3311 65.6689 -73.998 63.002c-12 -0.666992 -24.833 -3.16699 -38.5 -7.5s-26.667 -9.83301 -39 -16.5s-24 -14.334 -35 -23.001s-19.833 -17.667 -26.5 -27v60c34.667 40.667 81.667 61.667 141 63c38 0.666992 68.667 -8 92 -26
c27.333 -21.333 41 -53 41 -95v-206c0 -15.333 5.66699 -23 17 -23c4 0 19.667 10 47 30v-54c-22 -23.333 -41.333 -35 -58 -35c-34.667 0 -56 16.333 -64 49c-30.667 -32 -72.334 -48.667 -125.001 -50c-16 0 -30.667 2.83301 -44 8.5s-25 13.5 -35 23.5
s-17.667 21.667 -23 35s-8 27.666 -8 42.999c0 33.333 11.333 61 34 83c21.333 20 49.666 32.667 84.999 38c13.333 1.33301 29.333 3.5 48 6.5l65 10.5v50zM275.003 90.002l-0.000976562 96l-40.5 -5.5l-60.5 -8.5c-22 -3.33301 -40.167 -11 -54.5 -23
s-21.5 -25.667 -21.5 -41c0 -18.667 5.83301 -34.167 17.5 -46.5s26.834 -18.5 45.501 -18.5c14 0 33.667 5 59 15c26 11.333 44.333 22 55 32z" />
    <glyph glyph-name="b" unicode="b" horiz-adv-x="431" 
d="M414 194c0 -60.667 -19.334 -109.332 -58.001 -145.999c-39.333 -37.333 -87 -56 -143 -56c-52 0 -88 14.333 -108 43l4 -35h-65c0 7.33301 0.166992 17.166 0.5 29.499s0.833008 26.833 1.5 43.5v31c0 20 0.333008 50 1 90s1 70.167 1 90.5v31.5v71
c0.666992 104.667 -1.33301 175.667 -6 213h68c-1.33301 -22.667 -2.5 -51.5 -3.5 -86.5s-1.5 -76.833 -1.5 -125.5v-39c24 30 60 45 108 45c60.667 0 109.334 -18.333 146.001 -55s55 -85 55 -145zM352.999 194.002c0 20.667 -3.16699 40.001 -9.5 58.001
s-15.666 33.667 -27.999 47s-27 23.666 -44 30.999s-35.833 11 -56.5 11c-45.333 0 -82 -16 -110 -48c-0.666992 -20.667 -0.833984 -47.334 -0.500977 -80.001s1.16602 -72 2.49902 -118c20 -32 56 -48 108 -48c40 0 72.833 13.333 98.5 40s38.834 62.334 39.501 107.001z
" />
    <glyph glyph-name="c" unicode="c" horiz-adv-x="368" 
d="M340 17c-8.66699 -3.33301 -16.168 -6.5 -22.501 -9.5s-12.166 -5.16699 -17.499 -6.5c-18 -5.33301 -39 -8.33301 -63 -9c-62 -2.66699 -112.333 16.333 -151 57c-36 39.333 -53.667 88.333 -53 147c1.33301 52 17.666 96.333 48.999 133
c32.667 36.667 75.334 58 128.001 64c38 4 76 0.666992 114 -10l-9 -53c-28 7.33301 -53 11 -75 11c-23.333 0 -44.333 -3.66699 -63 -11c-53.333 -20.667 -80.666 -66.334 -81.999 -137.001c0 -39.333 13.667 -73.666 41 -102.999c27.333 -28 61.666 -42.333 102.999 -43
c24.667 0 52.667 7 84 21z" />
    <glyph glyph-name="d" unicode="d" horiz-adv-x="458" 
d="M411 600c-1.33301 -22.667 -2.5 -51.498 -3.5 -86.498s-1.5 -76.833 -1.5 -125.5v-39v-52c0 -20 0.333008 -43.333 1 -70c0.666992 -31.333 1.16699 -58.833 1.5 -82.5s0.5 -43.834 0.5 -60.501v-58c0.666992 -9.33301 1 -16.333 1 -21s0 -6.33398 0 -5.00098h-65l2 42
c-27.333 -33.333 -64 -50 -110 -50c-61.333 0 -111.333 20 -150 60c-37.333 38 -55.333 86 -54 144c0.666992 56.667 19.667 103.667 57 141c38 38 87 57 147 57c54.667 0 91.667 -15.667 111 -47l1 40c2.66699 86.667 0.666992 157.667 -6 213h68zM239 341.002
c-42 0 -77.001 -13.999 -105.001 -41.999c-27.333 -28.667 -41 -63.667 -41 -105c0 -40.667 14 -75.334 42 -104.001c28.667 -28.667 63.334 -43 104.001 -43c46 0 82 17.333 108 52c0.666992 31.333 1.16699 62.5 1.5 93.5s0.5 62.5 0.5 94.5c-27.333 36 -64 54 -110 54z
" />
    <glyph glyph-name="e" unicode="e" horiz-adv-x="435" 
d="M220 394c60 0.666992 105.667 -17.9971 137 -55.9971c28 -35.333 41.667 -82.333 41 -141h-303v-4c-0.666992 -42.667 14.333 -78.334 45 -107.001c28 -26 62 -39.667 102 -41c40 -0.666992 75.667 14.666 107 45.999l29 -53c-52 -28.667 -99 -44 -141 -46
c-62 -2.66699 -112.333 16.333 -151 57c-36 39.333 -53.667 88 -53 146c0.666992 56 18.667 103 54 141c34.667 37.333 79 56.666 133 57.999zM325 250.003c-7.33301 60 -42.666 90 -105.999 90c-24.667 0 -47.334 -8 -68.001 -24s-36 -38 -46 -66h220z" />
    <glyph glyph-name="f" unicode="f" horiz-adv-x="295" 
d="M295 501c-42.667 42.667 -80.666 62.333 -113.999 59c-24.667 -2 -40 -18 -46 -48c-2.66699 -12.667 -4 -51.334 -4 -116.001c74 3.33301 114 7 120 11v-68c-9.33301 4.66699 -49.333 7.66699 -120 9v-36c0 -90 0.166992 -160.833 0.5 -212.5
s0.833008 -85.167 1.5 -100.5h-67c4 34 6 137.667 6 311v38c-35.333 -1.33301 -57.333 -3.33301 -66 -6v58c10.667 -4 32.334 -5.66699 65.001 -5c-0.666992 84.667 4 138 14 160c17.333 38.667 52 57.334 104 56.001c19.333 0 38 -4.33301 56 -13
c11.333 -5.33301 21.166 -9.5 29.499 -12.5s15.166 -5.16699 20.499 -6.5v-78z" />
    <glyph glyph-name="g" unicode="g" horiz-adv-x="471" 
d="M439 388c-1.33301 -31.333 -2.33301 -69.834 -3 -115.501s-1 -99.167 -1 -160.5c0 -119.333 -3 -191 -9 -215c-9.33301 -35.333 -30.333 -63.333 -63 -84c-33.333 -21.333 -70.333 -32 -111 -32c-46.667 0 -87 7.66699 -121 23c-4.66699 2.66699 -11 5.5 -19 8.5
l-29 10.5l37 61c30 -28 67.333 -44.333 112 -49c3.33301 -0.666992 6.33301 -1 9 -1h9c16 0 31.333 2.66699 46 8s27.5 12.5 38.5 21.5s19.833 19.833 26.5 32.5s10.667 26.334 12 41.001c0.666992 20.667 1.66699 63 3 127c-31.333 -48 -77.666 -72 -138.999 -72
s-111.333 20 -150 60c-37.333 38 -55.333 86 -54 144c0.666992 56.667 19.667 103.667 57 141c38 38 87 57 147 57c63.333 0 108.666 -22 135.999 -66v28c0 10 -0.333008 20.667 -1 32h67zM239 340.999c-42 0 -77 -13.999 -105 -41.999
c-27.333 -28.667 -41 -63.667 -41 -105c0 -40.667 14 -75.334 42 -104.001c28.667 -28.667 63.334 -43 104.001 -43c38 0 69.167 11.833 93.5 35.5s38.833 54.5 43.5 92.5v45c-5.33301 36 -20.333 65.167 -45 87.5s-55.334 33.5 -92.001 33.5z" />
    <glyph glyph-name="h" unicode="h" horiz-adv-x="423" 
d="M391 0l-67.999 -0.00195312v57c0 19.333 0.333008 39.333 1 60v80c-0.666992 23.333 -1.83398 43.5 -3.50098 60.5s-4.16699 30.833 -7.5 41.5c-12 35.333 -34.333 53.333 -67 54c-34 0.666992 -64.333 -8.33301 -91 -27c-5.33301 -5.33301 -11 -10.5 -17 -15.5
s-11.667 -10.167 -17 -15.5c-0.666992 -13.333 -1 -29.333 -1 -48v-66c0.666992 -17.333 1 -36 1 -56s0.333008 -41.333 1 -64l1.5 -47c0.333008 -10 0.5 -14.667 0.5 -14h-65c1.33301 34.667 2.33301 80.334 3 137.001s1 124.334 1 203.001v47c0 108.667 -2 179.667 -6 213
h68c-1.33301 -22.667 -2.5 -51.5 -3.5 -86.5s-1.5 -76.833 -1.5 -125.5v-39c40.667 36.667 85.667 55 135 55c46 0 79.333 -14.333 100 -43c22.667 -31.333 34 -86.333 34 -165v-118c0.666992 -24 1.16699 -43.5 1.5 -58.5s0.5 -21.5 0.5 -19.5z" />
    <glyph glyph-name="i" unicode="i" horiz-adv-x="188" 
d="M149 509c0 -12 -5 -22.833 -15 -32.5s-21.333 -14.5 -34 -14.5c-12 0 -22.833 4.66699 -32.5 14s-14.5 20.333 -14.5 33s4.83301 23.834 14.5 33.501s20.5 14.5 32.5 14.5c12.667 0 24 -4.83301 34 -14.5s15 -20.834 15 -33.501zM131 -1h-66c6 136.667 6 266 0 388h66
c-4.66699 -126.667 -4.66699 -256 0 -388z" />
    <glyph glyph-name="j" unicode="j" horiz-adv-x="188" 
d="M149 509c0 -12 -5 -22.833 -15 -32.5s-21.333 -14.5 -34 -14.5c-12 0 -22.833 4.66699 -32.5 14s-14.5 20.333 -14.5 33s4.66699 23.834 14 33.501s20.333 14.5 33 14.5s24 -4.83301 34 -14.5s15 -20.834 15 -33.501zM133 387
c-1.33301 -11.333 -2.33301 -39.833 -3 -85.5s-1 -108.834 -1 -189.501v-169c-2 -52.667 -7 -88 -15 -106c-17.333 -37.333 -48 -56 -92 -56c-9.33301 0 -17 1 -23 3c-10 5.33301 -25.667 11.333 -47 18l10.5 20.5l16.5 31.5c14.667 -16.667 29 -24.667 43 -24
c24 2 39 17.667 45 47c2 10 3 88 3 234c0 62.667 -0.333008 116.834 -1 162.501s-1.66699 83.5 -3 113.5h67z" />
    <glyph glyph-name="k" unicode="k" horiz-adv-x="401" 
d="M394 29l-41.001 -40.999l-193 190l-63 -48c-1.33301 -39.333 -1.33301 -62 0 -68c2 -20 10.667 -37.333 26 -52c-21.333 -13.333 -42.666 -20 -63.999 -20c-5.33301 0 -9 0.333008 -11 1c-6 2 -9 29.667 -9 83c0 25.333 1 74.666 3 147.999c2 72.667 3 126.667 3 162
c0 50 -0.666992 93 -2 129s-3.33301 65 -6 87h68c-1.33301 -22.667 -2.5 -51.5 -3.5 -86.5s-1.5 -76.833 -1.5 -125.5v-197l86 78l138 130l41 -39l-162 -146l73.5 -71z" />
    <glyph glyph-name="l" unicode="l" horiz-adv-x="184" 
d="M132 600c-1.33301 -28.667 -2.33203 -63.6689 -2.99902 -105.002s-1.33398 -90 -2.00098 -146c0 -20 0.166992 -47.167 0.5 -81.5s0.833008 -76.5 1.5 -126.5c0.666992 -50.667 1.16699 -87.667 1.5 -111s0.5 -33.333 0.5 -30h-65
c1.33301 34.667 2.33301 80.334 3 137.001s1 124.334 1 203.001c1.33301 116 -0.666992 202.667 -6 260h68z" />
    <glyph glyph-name="m" unicode="m" horiz-adv-x="689" 
d="M636 0l-67.9932 -0.00195312v57c0 19.333 0.333008 39.333 1 60c1.33301 30 1.33301 56.667 0 80c-0.666992 23.333 -1.83398 43.5 -3.50098 60.5s-4.16699 30.833 -7.5 41.5c-10.667 34.667 -33 52.667 -67 54c-32.667 0.666992 -61.334 -7.33301 -86.001 -24
c-0.666992 -0.666992 -3.83398 -3.5 -9.50098 -8.5l-25.5 -22.5c6 -27.333 9 -61.333 9 -102v-118c0.666992 -24 1.16699 -43.5 1.5 -58.5s0.5 -21.5 0.5 -19.5h-68v57c0 19.333 0.333008 39.333 1 60c1.33301 30 1.33301 56.667 0 80
c-0.666992 23.333 -1.83398 43.5 -3.50098 60.5s-4.16699 30.833 -7.5 41.5c-12 35.333 -34.333 53.333 -67 54c-33.333 0.666992 -61.333 -8 -84 -26c-4.66699 -5.33301 -9.33398 -10.333 -14.001 -15s-9.33398 -9.66699 -14.001 -15v-297h-65
c1.33301 34.667 2.33301 80.334 3 137.001s1 124.334 1 203.001c-0.666992 4 -1 10 -1 18s-0.333008 18 -1 30h61l-1 -37c33.333 35.333 74.666 53 123.999 53c54 0 90.667 -20 110 -60c40 40 88.333 60 145 60c46.667 0 80 -14.333 100 -43
c22.667 -31.333 34 -86.333 34 -165v-67.5c0 -19.667 0.333008 -36.5 1 -50.5v-33c0 -10 0.333008 -19 1 -27v-18z" />
    <glyph glyph-name="n" unicode="n" horiz-adv-x="451" 
d="M392 0l-68 -0.000976562v57c0 18.667 0.333008 37.334 1 56.001c0.666992 26.667 0.666992 51.667 0 75s-1.83398 43.5 -3.50098 60.5s-4.16699 30.833 -7.5 41.5c-12 35.333 -34.333 53.333 -67 54c-34 0.666992 -63.667 -8 -89 -26l-33 -30v-288h-65
c2 68.667 3 182.334 3 341.001v18c0 8 -0.333008 17.667 -1 29l61 1l-1 -47c40.667 35.333 85.334 53 134.001 53c46 0 79.333 -14.333 100 -43c22.667 -31.333 34 -86.333 34 -165v-62c0 -21.333 0.333008 -43.666 1 -66.999c0.666992 -22.667 1 -38.834 1 -48.501
s0 -12.834 0 -9.50098z" />
    <glyph glyph-name="o" unicode="o" horiz-adv-x="471" 
d="M438 194c0 -60.667 -19.334 -109.333 -58.001 -146c-39.333 -37.333 -87 -56 -143 -56c-61.333 0 -111.333 20 -150 60c-37.333 38 -55.333 86 -54 144c0.666992 56.667 19.667 103.667 57 141c38 38 87 57 147 57c60.667 0 109.334 -18.333 146.001 -55s55 -85 55 -145z
M376.999 194.001c0 20.667 -3.16992 40.001 -9.50293 58.001s-15.666 33.667 -27.999 47s-27 23.666 -44 30.999s-35.833 11 -56.5 11c-42 0 -77 -14 -105 -42c-27.333 -28.667 -41 -63.667 -41 -105c0 -40.667 14 -75.334 42 -104.001
c28.667 -28.667 63.334 -43 104.001 -43c40 0 72.833 13.333 98.5 40s38.834 62.334 39.501 107.001z" />
    <glyph glyph-name="p" unicode="p" horiz-adv-x="431" 
d="M414 195c0 -61.333 -18.333 -110.666 -55 -147.999c-37.333 -37.333 -86 -56 -146 -56c-48 0 -84 15 -108 45v-39c0 -50.667 0.5 -94.167 1.5 -130.5s2.16699 -65.833 3.5 -88.5h-68c4.66699 36.667 6.66699 110 6 220v71c-0.666992 42 -1 83.5 -1 124.5
s-0.333008 81.833 -1 122.5c-0.666992 15.333 -1 29 -1 41s-0.333008 22.667 -1 32h65l-4 -35c9.33301 13.333 23.833 23.833 43.5 31.5s41.167 11.5 64.5 11.5c56 0 103.667 -18.667 143 -56c38.667 -36.667 58 -85.334 58 -146.001zM215 342
c-43.333 0 -79.334 -16.002 -108.001 -48.002c-1.33301 -45.333 -2.16602 -84.666 -2.49902 -117.999s-0.166016 -61.333 0.500977 -84c28 -32 64.667 -48 110 -48c40.667 0 74 14.667 100 44s38.667 65 38 107c-0.666992 44.667 -13.834 80.334 -39.501 107.001
s-58.5 40 -98.5 40z" />
    <glyph glyph-name="q" unicode="q" horiz-adv-x="458" 
d="M237 396c46 0 82.668 -16.666 110.001 -49.999l-2 42h65c0 1.33301 0 -0.333984 0 -5.00098s-0.333008 -11.667 -1 -21v-58c0 -16.667 -0.166992 -36.834 -0.5 -60.501s-0.833008 -51.5 -1.5 -83.5c-0.666992 -27.333 -1 -51.166 -1 -71.499v-52.5v-39
c0 -48.667 0.5 -91.167 1.5 -127.5s2.16699 -66.833 3.5 -91.5h-68c6.66699 56.667 8.66699 130 6 220l-1 40c-25.333 -31.333 -62.333 -47 -111 -47c-60 0 -109 19.333 -147 58c-37.333 39.333 -56.333 87 -57 143c-0.666992 56.667 17.666 105 54.999 145
c38 39.333 87.667 59 149 59zM239.001 341.001c-40 0 -74.667 -14.668 -104 -44.001c-28 -29.333 -42 -63.666 -42 -102.999c0 -42 13.667 -77.667 41 -107c28 -28.667 63 -43 105 -43c45.333 0 82 19 110 57c0 28.667 -0.166992 58.5 -0.5 89.5s-0.833008 63.833 -1.5 98.5
c-26 34.667 -62 52 -108 52z" />
    <glyph glyph-name="r" unicode="r" horiz-adv-x="259" 
d="M237 328c-11.333 8.66699 -21.334 13 -30.001 13c-38.667 0 -67.667 -17.667 -87 -53c-13.333 -26 -19.333 -53 -18 -81v-57c0 -21.333 0.333008 -45.666 1 -72.999l1.5 -60s0.5 -18.334 0.5 -17.001l-64 -1c2 64.667 2 178 0 340
c-1.33301 9.33301 -2.33301 25.666 -3 48.999h63l-1 -69c14.667 50.667 48.334 76.334 101.001 77.001c14 0 26 -2.33301 36 -7v-61z" />
    <glyph glyph-name="s" unicode="s" horiz-adv-x="310" 
d="M225 7c-28 -12.667 -61.334 -17.667 -100.001 -15c-11.333 0.666992 -24.666 2.66699 -39.999 6s-32.666 8 -51.999 14v68c6.66699 -4.66699 18 -9.83398 34 -15.501s36.667 -12.167 62 -19.5c3.33301 -0.666992 6.66602 -1.16699 9.99902 -1.5
s6.66602 -0.5 9.99902 -0.5c22 0 41.333 5.33301 58 16s26 26 28 46c2 25.333 -16.333 46.333 -55 63c-13.333 4 -29.333 9.66699 -48 17s-39.667 16.333 -63 27c-24.667 16 -37 41.333 -37 76c0 32 12.667 58.667 38 80c23.333 19.333 53.666 29 90.999 29
c10.667 0 25.334 -2.33301 44.001 -7c12.667 -3.33301 22.834 -5.66602 30.501 -6.99902s12.834 -2.33301 15.501 -3v-67c-30 18 -63 27.667 -99 29c-14.667 0 -28.334 -4 -41.001 -12c-14 -10 -21.333 -22.333 -22 -37c-1.33301 -23.333 26.667 -42.333 84 -57
c34 -9.33301 61.333 -23.333 82 -42c26.667 -22.667 40 -51 40 -85c0 -47.333 -23.333 -81.333 -70 -102z" />
    <glyph glyph-name="t" unicode="t" horiz-adv-x="278" 
d="M257 389l-0.000976562 -43.001h-98l-4 -170c-0.666992 -34.667 -1.16699 -57.5 -1.5 -68.5s-0.5 -10.833 -0.5 0.5c0 -36.667 4 -55 12 -55c4 0 9.83301 2.83301 17.5 8.5s12.5 8.83398 14.5 9.50098c1.33301 -2 3.33301 -6.5 6 -13.5l11 -28.5
c-39.333 -26 -72.333 -38.667 -99 -38c-15.333 1.33301 -23 30.333 -23 87c0 4.66699 1 36.667 3 96c0.666992 20.667 1.66699 77.667 3 171h-58c0.666992 0.666992 1 8 1 22v21h58v104l60 26v-130c64.667 0 97.334 0.333008 98.001 1z" />
    <glyph glyph-name="u" unicode="u" horiz-adv-x="454" 
d="M441 29c-49.333 -29.333 -82.667 -42.001 -100 -38.001c-10 2 -15.667 19.667 -17 53c-40.667 -35.333 -85.334 -53 -134.001 -53c-46.667 0 -80 14.333 -100 43c-22.667 31.333 -34 86.333 -34 165v61c0 19.333 0.333008 37.666 1 54.999v31.5
c0 9.66699 0.333008 18.167 1 25.5c0.666992 6.66699 1 11.334 1 14.001s0 3.33398 0 2.00098h68l-2 -54c-0.666992 -18.667 -1.66699 -38.667 -3 -60c-0.666992 -13.333 -1.16699 -26.333 -1.5 -39s-0.166016 -25 0.500977 -37
c0.666992 -23.333 1.83398 -43.5 3.50098 -60.5s4.16699 -30.833 7.5 -41.5c12 -35.333 34.333 -53.333 67 -54c34 -0.666992 63.667 8 89 26l33 30c0.666992 30 1.66699 87 3 171l1.5 87.5c0.333008 19.667 0.5 30.167 0.5 31.5h65
c-1.33301 -34.667 -2.33301 -79.5 -3 -134.5s-1 -120.833 -1 -197.5c1.33301 -1.33301 2.33301 -2 3 -2c2 0 4.66699 0.833008 8 2.5s6.66602 3.5 9.99902 5.5s6.5 4 9.5 6s5.16699 3 6.5 3c1.33301 -2 3.33301 -6.5 6 -13.5z" />
    <glyph glyph-name="v" unicode="v" horiz-adv-x="404" 
d="M384 386l-53.499 -127.999l-105.5 -258h-42l-74 184.5l-84 202.5h77c13.333 -44.667 28.666 -92.334 45.999 -143.001l58 -162l30.5 77.5c11 28.333 22.167 59.5 33.5 93.5c12 34 21.5 62 28.5 84s11.833 38.333 14.5 49h71z" />
    <glyph glyph-name="w" unicode="w" horiz-adv-x="599" 
d="M585 386c-8.66699 -22.667 -24.333 -66 -47 -130l-91 -256h-43l-38 117l-58 175l-111 -292h-42l-138 387h77l47.5 -162c14.333 -49.333 26.833 -95 37.5 -137l25 71.5c9.33301 27 19.333 57.833 30 92.5c21.333 66.667 34.333 111 39 133v2h71l-1 -1h1v-1v-1
c12 -40 40 -140 84 -300l40.5 140.5l45.5 161.5h71z" />
    <glyph glyph-name="x" unicode="x" horiz-adv-x="393" 
d="M373 0l-75.0029 -0.00195312l-38.5 59l-63.5 99l-52.5 -76.5l-53.5 -81.5h-71l58.5 78l87.5 121l-62 90l-67 98h72l39 -60.5l53 -81.5c14.667 22.667 28.834 45.834 42.501 69.501s26.834 47.834 39.501 72.501h74l-48.5 -72l-77.5 -115
c30.667 -46 78.334 -112.667 143.001 -200z" />
    <glyph glyph-name="y" unicode="y" horiz-adv-x="432" 
d="M416 386l-120.996 -301.998c-31.333 -77.333 -54.333 -130.333 -69 -159c-40.667 -80.667 -78.334 -126.334 -113.001 -137.001c-20.667 -6.66699 -42.667 -10 -66 -10c-42.667 0 -75.334 10 -98.001 30l20 49c19.333 -18.667 45 -28 77 -28c10 0 21 1.66699 33 5
c24.667 6.66699 49.667 29.667 75 69c21.333 31.333 38 65 50 101l-88 192l-88 191h73l52 -119.5l81 -191.5c23.333 56.667 44.166 110.667 62.499 162s34.166 100.666 47.499 147.999c46.667 0.666992 70.667 0.666992 72 0z" />
    <glyph glyph-name="z" unicode="z" horiz-adv-x="397" 
d="M357 0h-311.999v25l217 310h-95c-44.667 0 -77.334 -3.33301 -98.001 -10v62h285v-20l-223 -315h147c6 0 15.5 0.666992 28.5 2s29.833 3.33301 50.5 6v-60z" />
    <glyph glyph-name="braceleft" unicode="{" horiz-adv-x="330" 
d="M259 -229l-54.999 -0.000976562c-24 0 -45.667 10.667 -65 32c-20 24 -30 54 -30 90v159c0 36 -7.16699 65.167 -21.5 87.5s-32.5 33.5 -54.5 33.5v57c22 0 40.167 11.167 54.5 33.5s21.5 50.5 21.5 84.5v160c0 36 10 65.667 30 89c18 21.333 39.667 32 65 32h55v-60h-42
c-29.333 0 -44 -26 -44 -78v-157c0 -40.667 -11.333 -73.667 -34 -99c-14.667 -16.667 -30.334 -27.667 -47.001 -33l10 -2c15.333 -3.33301 29.333 -13.666 42 -30.999c19.333 -26.667 29 -61 29 -103v-156c0 -52 14.667 -78 44 -78h42v-61z" />
    <glyph glyph-name="bar" unicode="|" horiz-adv-x="223" 
d="M146 -228h-70v851h70v-851z" />
    <glyph glyph-name="braceright" unicode="}" horiz-adv-x="330" 
d="M293 173c-22 0 -40.166 -11.165 -54.499 -33.498s-21.5 -51.5 -21.5 -87.5v-159c0 -18 -2.5 -34.5 -7.5 -49.5s-11.833 -27.833 -20.5 -38.5s-18.834 -19 -30.501 -25s-23.834 -9 -36.501 -9h-55v61h42c28.667 0 43 26 43 78v156c0 42.667 10 77 30 103
c12.667 17.333 26.667 27.666 42 30.999l10 2c-16.667 5.33301 -32.334 16.333 -47.001 33c-23.333 27.333 -35 60.333 -35 99v157c0 52 -14.333 78 -43 78h-42v60h55c12.667 0 24.834 -2.83301 36.501 -8.5s21.834 -13.834 30.501 -24.501s15.5 -23.5 20.5 -38.5
s7.5 -31.5 7.5 -49.5v-160c0 -34 7.16699 -62.167 21.5 -84.5s32.5 -33.5 54.5 -33.5v-57z" />
    <glyph glyph-name="asciitilde" unicode="~" horiz-adv-x="490" 
d="M432 261c-20.667 -66.667 -54.333 -100.001 -101 -100.001c-24 0 -59.333 14 -106 42c-37.333 22 -61.333 32.667 -72 32c-18.667 -0.666992 -34 -23 -46 -67l-46 19c24 64 53 97 87 99c18 0.666992 51 -12.666 99 -39.999c40 -24 68.333 -36.667 85 -38
c12 -0.666992 24.167 6.5 36.5 21.5s19.5 33.167 21.5 54.5c7.33301 -3.33301 14.333 -7 21 -11z" />
    <glyph glyph-name="ch202" unicode="&#xa0;" horiz-adv-x="250" 
 />
    <glyph glyph-name="exclamdown" unicode="&#xa1;" horiz-adv-x="209" 
d="M77 -95c7.33301 16.667 11 82.667 11 198c0 72.667 -0.333008 129.667 -1 171s-1.66699 67.333 -3 78h52c-0.666992 -8.66699 -1.16699 -33.667 -1.5 -75s-0.5 -99.333 -0.5 -174c0 -108 3.33301 -174 10 -198h-67zM145 428c0 -10 -3.66699 -18.5 -11 -25.5
s-15.666 -10.5 -24.999 -10.5s-17.666 3.5 -24.999 10.5s-11 15.5 -11 25.5s3.66699 18.5 11 25.5s15.666 10.5 24.999 10.5s17.666 -3.5 24.999 -10.5s11 -15.5 11 -25.5z" />
    <glyph glyph-name="cent" unicode="&#xa2;" horiz-adv-x="414" 
d="M231 444c-38 -5.33301 -66.833 -20.999 -86.5 -46.999s-29.5 -59 -29.5 -99c0 -28.667 7.5 -54.834 22.5 -78.501s34.833 -41.5 59.5 -53.5zM360 122.001c-8.66699 -3.33301 -16.167 -6.5 -22.5 -9.5s-12.166 -5.16699 -17.499 -6.5c-18 -5.33301 -39 -8.33301 -63 -9
c-6 -0.666992 -11.833 -0.833984 -17.5 -0.500977s-11.167 0.833008 -16.5 1.5l-13 -98c-21.333 -3.33301 -32.333 -3.33301 -33 0l13 104c-22 6 -41.5 15.333 -58.5 28s-31.333 27.667 -43 45s-20.5 36.5 -26.5 57.5s-9 43.167 -9 66.5
c1.33301 52 17.666 96.333 48.999 133c34 38 76.667 59.333 128 64h7l13 110h33l-13 -109c21.333 0 46 -3.66699 74 -11l-9 -53c-12.667 3.33301 -24.834 5.83301 -36.501 7.5s-23.167 2.83398 -34.5 3.50098l-34 -291c8.66699 -2 18.334 -3 29.001 -3
c24.667 0 52.667 7 84 21z" />
    <glyph glyph-name="sterling" unicode="&#xa3;" horiz-adv-x="515" 
d="M320 271c-8.66699 4.66699 -46.332 7.32715 -112.999 7.99414c14 -30.667 19.333 -59.667 16 -87c-6 -48.667 -36.667 -90.667 -92 -126c32.667 10 67.667 15 105 15c8.66699 0 17 -0.333008 25 -1s16 -1.66699 24 -3c2.66699 -0.666992 8 -1.66699 16 -3
s19.333 -3.66602 34 -6.99902c18.667 -4 34 -6 46 -6c29.333 0 57.333 12.333 84 37l36 -76c-44.667 -20.667 -87 -29.667 -127 -27c-7.33301 0.666992 -17.5 2.33398 -30.5 5.00098s-29.167 6.33398 -48.5 11.001c-35.333 8 -62.333 12 -81 12h-9.5
c-3 0 -6.16699 -0.333008 -9.5 -1c-27.333 -4 -64.333 -13 -111 -27l-39 66c74.667 42.667 112 92 112 148c0 22 -6.33301 45.333 -19 70c-75.333 -2 -116.333 -5 -123 -9v78c4.66699 -4 33.334 -7 86.001 -9c-24.667 38.667 -38 72.667 -40 102
c-4 64.667 18 114.334 66 149.001c41.333 30.667 96.666 46 165.999 46c16.667 0 50.334 -6.33301 101.001 -19c32.667 -7.33301 50.667 -10.666 54 -9.99902v-38.5c0 -16.333 0.333008 -36.833 1 -61.5h-38c-4 21.333 -9.33301 34.333 -16 39c-27.333 18 -65 28 -113 30
c-42.667 2 -79.334 -8.33301 -110.001 -31c-33.333 -25.333 -48 -57.666 -44 -96.999c2 -24.667 17.667 -61.667 47 -111c87.333 2.66699 135.666 6.66699 144.999 12v-78z" />
    <glyph glyph-name="currency" unicode="&#xa4;" 
d="M466 326c0 -51.333 -15.3291 -95.334 -45.9961 -132.001l45 -45c1.33301 -1.33301 -6.66699 -9.66602 -24 -24.999l-17 -15.5c-4 -3.66699 -6.66699 -6.16699 -8 -7.5l-41 51c-36.667 -26.667 -78.334 -40 -125.001 -40s-88.334 13.333 -125.001 40l-41 -51
c-4.66699 3.33301 -9 7 -13 11s-8.33301 7.66699 -13 11c-16.667 16 -24.334 24.667 -23.001 26l45 45c-30.667 36.667 -46 80.667 -46 132s15.333 95.333 46 132l-45 45c0.666992 0.666992 3 2.83398 7 6.50098s9.66699 9.16699 17 16.5c17.333 16 25.666 24.333 24.999 25
l41 -51c34.667 25.333 76.334 38.666 125.001 39.999c46 1.33301 87.667 -12 125 -40l41 51c-0.666992 -0.666992 6.66602 -8.66699 21.999 -24c16 -15.333 25 -23.333 27 -24l-45 -45c30.667 -36.667 46 -80.667 46 -132zM410.004 324.999c0 45.333 -16 84.665 -48 117.998
s-69 50 -111 50c-42.667 0 -80 -16.667 -112 -50c-31.333 -33.333 -47 -72.666 -47 -117.999c0 -46.667 15.667 -86.667 47 -120c32 -32 69.333 -48 112 -48c42 0 79 16.333 111 49s48 72.334 48 119.001z" />
    <glyph glyph-name="yen" unicode="&#xa5;" horiz-adv-x="525" 
d="M517 626c-27.333 -29.333 -87.332 -115.332 -179.999 -257.999h112v-48h-143l-7 -10v-43h151v-48h-151c0 -114 4 -187 12 -219h-88c8.66699 30.667 12.667 103.667 12 219h-140v48h140v43l-7 10h-134v48h103l-60 92.5l-41 62.5c-40.667 58.667 -68 93 -82 103h116
c-1.33301 -20 9 -47.333 31 -82l110 -176c0.666992 -0.666992 0.666992 -1.33398 0 -2.00098c1.33301 2.66699 11.166 18.667 29.499 48l80.5 129c22 36 33.667 63.667 35 83h101z" />
    <glyph glyph-name="brokenbar" unicode="&#xa6;" horiz-adv-x="234" 
d="M148 262h-62v277h62v-277zM148 -84h-62v277h62v-277z" />
    <glyph glyph-name="section" unicode="&#xa7;" horiz-adv-x="353" 
d="M221 403c-27.333 0.666992 -54.999 -7.66699 -82.999 -25c-29.333 -19.333 -44 -43 -44 -71c0 -20 9 -37.333 27 -52c6.66699 -1.33301 13 -2.5 19 -3.5s12 -1.5 18 -1.5c12.667 0 25 2.33301 37 7s22.667 11.167 32 19.5s16.666 18 21.999 29s8 23.167 8 36.5
c0 26.667 -12 47 -36 61zM305.001 86.999c-4 -34 -20.332 -59.332 -48.999 -75.999c-24 -14 -53.667 -21 -89 -21c-5.33301 0 -10.333 0.166992 -15 0.5s-9.33398 0.833008 -14.001 1.5c-22.667 3.33301 -44.334 8.33301 -65.001 15c-10.667 4 -19 5.33301 -25 4v66h25
c17.333 -17.333 39.333 -29 66 -35c4 -0.666992 8 -1.16699 12 -1.5s8 -0.5 12 -0.5c20 0 37.667 5 53 15s24 24 26 42c2 27.333 -15 49 -51 65c-5.33301 2.66699 -13.166 5.66699 -23.499 9l-37.5 12c-11.333 3.33301 -21 7 -29 11s-14.667 7.66699 -20 11
c-32.667 24 -49 55.333 -49 94c0 30 11 57.667 33 83c22.667 25.333 48.667 42 78 50c-56 20 -85 51.667 -87 95c-2 32.667 11.667 59 41 79c24.667 18 54.334 27 89.001 27c7.33301 0 26.333 -3.66699 57 -11c17.333 -4 27.333 -5.66699 30 -5v-65h-33
c-16.667 18 -37.334 27.333 -62.001 28c-14 0 -27.667 -4.33301 -41 -13s-20.333 -20.334 -21 -35.001c-0.666992 -22 26.333 -40.333 81 -55c84.667 -22.667 124.667 -73 120 -151c-2 -28 -12.667 -51.667 -32 -71s-43 -31.333 -71 -36c61.333 -21.333 92 -59.333 92 -114
v-9c0 -2.66699 -0.333008 -5.66699 -1 -9z" />
    <glyph glyph-name="dieresis" unicode="&#xa8;" horiz-adv-x="613" 
d="M446 505c0 -10.667 -4 -20.332 -12 -28.999s-17.667 -13 -29 -13s-21.333 4.16699 -30 12.5s-13 18.166 -13 29.499s4.33301 21.333 13 30s18.667 13 30 13c10.667 0 20.167 -4.5 28.5 -13.5s12.5 -18.833 12.5 -29.5zM270 507.002
c0 -11.333 -3.99902 -21.166 -11.999 -29.499s-18 -12.5 -30 -12.5c-11.333 0 -21.333 4.16699 -30 12.5s-13 18.166 -13 29.499c0 10.667 4.33301 20.334 13 29.001s18.667 13 30 13s21.166 -4.33301 29.499 -13s12.5 -18.334 12.5 -29.001z" />
    <glyph glyph-name="copyright" unicode="&#xa9;" horiz-adv-x="732" 
d="M721 337c0 -98.667 -35 -182.334 -105 -251.001c-68.667 -68.667 -152.334 -103 -251.001 -103c-97.333 0 -180.666 34.667 -249.999 104s-104 152.333 -104 249s34.667 180.334 104 251.001c68.667 70 151.667 105 249 105c98.667 0 182.667 -34.667 252 -104
c70 -69.333 105 -153 105 -251zM678 337c0 85.333 -31 158.667 -93 220c-60.667 60.667 -134.334 91 -221.001 91c-84.667 0 -157.667 -30.667 -219 -92c-60.667 -60.667 -91 -134 -91 -220s30.333 -159.333 91 -220s134 -91 220 -91c86.667 0 160.334 30.333 221.001 91
c61.333 61.333 92 135 92 221zM481 197.001c-1.33301 -15.333 -2.49707 -28.1729 -3.49707 -38.5059s-1.5 -18.166 -1.5 -23.499c-2.66699 0.666992 -14.334 -1.66602 -35.001 -6.99902c-4.66699 -1.33301 -10.834 -2.66602 -18.501 -3.99902
s-17.167 -2.66602 -28.5 -3.99902l-44 2c-48.667 9.33301 -87.334 34 -116.001 74c-28 38.667 -42 83.667 -42 135c0 60.667 16 111 48 151c34 43.333 80.667 65 140 65c11.333 0 30.333 -3.33301 57 -10c19.333 -4.66699 31 -7 35 -7c0 -5.33301 0.5 -13 1.5 -23l3.5 -36
h-31c-0.666992 3.33301 -1.5 6.83301 -2.5 10.5s-2.83301 8.16699 -5.5 13.5c-10.667 10.667 -30.667 15.334 -60 14.001c-42 -0.666992 -76.667 -19.667 -104 -57c-24 -33.333 -36 -74 -36 -122c0 -45.333 13 -84.333 39 -117c28 -36 63.667 -54 107 -54
c26.667 0 45 5 55 15c4 4.66699 7.33301 12.334 10 23.001h32z" />
    <glyph glyph-name="ordfeminine" unicode="&#xaa;" horiz-adv-x="332" 
d="M202 445c0 31.333 -16.999 45.999 -50.999 43.999c-8.66699 -0.666992 -17.667 -2.66699 -27 -6s-18.5 -7.33301 -27.5 -12s-17.333 -10 -25 -16s-13.834 -12 -18.501 -18v42c25.333 28.667 58.333 43.334 99 44.001c62 0.666992 93 -27.666 93 -84.999v-144
c0 -10.667 4 -16 12 -16c2.66699 0 13.667 7 33 21v-38c-15.333 -16 -29 -24 -41 -24c-24.667 0 -39.334 11.333 -44.001 34c-21.333 -22 -50.666 -33.667 -87.999 -35c-22 0 -40.333 7.66699 -55 23s-22 33.333 -22 54c0 47.333 28 75.666 84 84.999c18 2 44.333 6 79 12z
M205.001 305.999l-0.000976562 66.999c-7.33301 -1.33301 -16.833 -2.66602 -28.5 -3.99902s-25.834 -3.33301 -42.501 -6c-35.333 -5.33301 -53 -20 -53 -44c0 -13.333 4.16699 -24.333 12.5 -33s18.833 -13 31.5 -13c4.66699 0 10.834 1 18.501 3s15.334 4.5 23.001 7.5
s15 6.5 22 10.5s12.5 8 16.5 12z" />
    <glyph glyph-name="guillemotleft" unicode="&#xab;" horiz-adv-x="606" 
d="M517 -1l-214 168v62l214 168v-67l-170 -132l170 -131v-68zM347 -1l-214 168v62l214 168v-67l-170 -132l170 -131v-68z" />
    <glyph glyph-name="logicalnot" unicode="&#xac;" 
d="M467 50h-59v206h-375v49h434v-255z" />
    <glyph glyph-name="registered" unicode="&#xae;" horiz-adv-x="732" 
d="M721 337c0 -98.667 -35 -182.334 -105 -251.001c-68.667 -68.667 -152.334 -103 -251.001 -103c-97.333 0 -180.666 34.667 -249.999 104s-104 152.333 -104 249s34.667 180.334 104 251.001c68.667 70 151.667 105 249 105c98.667 0 182.667 -34.667 252 -104
c70 -69.333 105 -153 105 -251zM678 337c0 85.333 -31 158.667 -93 220c-60.667 60.667 -134.334 91 -221.001 91c-84.667 0 -157.667 -30.667 -219 -92c-60.667 -60.667 -91 -134 -91 -220s30.333 -159.333 91 -220s134 -91 220 -91c86.667 0 160.334 30.333 221.001 91
c61.333 61.333 92 135 92 221zM520 138.001h-57.001c4 22 -2.66699 53.333 -20 94c-20 47.333 -46 76 -78 86c-12 3.33301 -27.333 5 -46 5h-12c-4 0 -8.33301 -0.333008 -13 -1c0 -106 2.33301 -167.333 7 -184h-57c4.66699 16.667 7 83.334 7 200.001
c0 120 -2.33301 189 -7 207h142c26.667 0 50.334 -6.33301 71.001 -19c32.667 -18.667 49 -48.334 49 -89.001c0 -60 -32.667 -96.667 -98 -110c52.667 -16.667 90 -79.667 112 -189zM459.999 437.001c0 30.667 -11.666 51.001 -34.999 61.001
c-6.66699 1.33301 -13.167 2.5 -19.5 3.5s-12.833 2.16699 -19.5 3.5c-13.333 2 -43.333 3 -90 3l-1 -146c25.333 -0.666992 45.5 -0.833984 60.5 -0.500977s24.833 0.833008 29.5 1.5c21.333 3.33301 35.666 7 42.999 11c22 11.333 32.667 32.333 32 63z" />
    <glyph glyph-name="glyph328" unicode="&#xaf;" horiz-adv-x="333" 
d="M348 464h-308l1 48h307v-48z" />
    <glyph glyph-name="degree" unicode="&#xb0;" horiz-adv-x="613" 
d="M409 745c0 -12.667 -2.33301 -24.667 -7 -36s-11.167 -21.166 -19.5 -29.499s-18.166 -14.833 -29.499 -19.5s-23.333 -7 -36 -7s-24.667 2.33301 -36 7s-21.166 11.167 -29.499 19.5s-14.833 18.166 -19.5 29.499s-7 23.333 -7 36s2.33301 24.667 7 36
s11.167 21.166 19.5 29.499s18.166 14.833 29.499 19.5s23.333 7 36 7s24.667 -2.33301 36 -7s21.166 -11.167 29.499 -19.5s14.833 -18.166 19.5 -29.499s7 -23.333 7 -36zM375 745c0 16 -5.66699 29.667 -17 41s-25 17 -41 17s-29.667 -5.66699 -41 -17s-17 -25 -17 -41
s5.66699 -29.667 17 -41s25 -17 41 -17s29.667 5.66699 41 17s17 25 17 41z" />
    <glyph glyph-name="plusminus" unicode="&#xb1;" 
d="M443 239h-163v-155h-59v155h-163v49h163v148h59v-148h163v-49zM443 0h-385v49h385v-49z" />
    <glyph glyph-name="twosuperior" unicode="&#xb2;" horiz-adv-x="375" 
d="M286 266c-51.333 3.33301 -90.665 4.33105 -117.998 2.99805c-10.667 0.666992 -24.334 0.833984 -41.001 0.500977s-36.667 -0.833008 -60 -1.5v20c5.33301 5.33301 14.166 14.666 26.499 27.999l49.5 51l29.5 30c8.33301 8.66699 15.166 16.334 20.499 23.001
c20 24.667 34 47.667 42 69c6.66699 16 10 32 10 48c0 21.333 -6.5 38 -19.5 50s-28.833 18 -47.5 18c-24.667 0 -43 -9.66699 -55 -29c-7.33301 -11.333 -12 -25.333 -14 -42h-34c0.666992 3.33301 1.16699 7 1.5 11s1.16602 7.66699 2.49902 11
c4.66699 16.667 12.667 32.667 24 48c16.667 20.667 42.667 31 78 31c58 0 91.333 -26.333 100 -79c0.666992 -3.33301 1.16699 -6.5 1.5 -9.5s0.5 -6.16699 0.5 -9.5c0 -48 -27.333 -100.333 -82 -157l-77 -81h99c18.667 0 29.334 2 32.001 6s4.33398 9.33301 5.00098 16
h26c-1.33301 -21.333 -1.33301 -39.666 0 -54.999z" />
    <glyph glyph-name="threesuperior" unicode="&#xb3;" horiz-adv-x="268" 
d="M241 362c0 -30 -10.667 -55.002 -32 -75.002c-23.333 -22.667 -55.333 -33.334 -96 -32.001c-18.667 0.666992 -35 2.33398 -49 5.00098s-25.667 6.33398 -35 11.001l12 37c7.33301 -3.33301 13 -5.83301 17 -7.5s6.66699 -2.83398 8 -3.50098
c8 -2.66699 16 -4.5 24 -5.5s16 -1.83301 24 -2.5c25.333 -0.666992 46 5.33301 62 18s24.667 30 26 52c2 26 -7 47 -27 63c-18.667 16 -40 23.333 -64 22c-1.33301 1.33301 -1.33301 13.666 0 36.999c21.333 -1.33301 39.166 4.33398 53.499 17.001s21.833 27.667 22.5 45
s-4.5 31 -15.5 41s-24.5 15 -40.5 15c-35.333 -0.666992 -58.666 -20.667 -69.999 -60l-30 12c12 50.667 43.333 77.334 94 80.001c32 2 57 -5.66699 75 -23c16 -15.333 24 -34.333 24 -57c0.666992 -20 -5 -38.333 -17 -55s-28.667 -27 -50 -31
c56 -13.333 84 -47.666 84 -102.999z" />
    <glyph glyph-name="acute" unicode="&#xb4;" horiz-adv-x="141" 
d="M130 610l-61 -167l-51 16l45 174z" />
    <glyph glyph-name="uni00B5" unicode="&#xb5;" horiz-adv-x="460" 
d="M445 27l-34.9971 -47c-4.66699 5.33301 -8.83398 10.5 -12.501 15.5s-7.16699 10.167 -10.5 15.5c-8.66699 12.667 -16.167 25 -22.5 37s-11.166 23.667 -14.499 35c-32.667 -60.667 -73.334 -91 -122.001 -91c-60 0 -98.667 28.667 -116 86
c-0.666992 -16.667 -1.16699 -30.667 -1.5 -42s-0.5 -19.666 -0.5 -24.999c0 -86.667 13 -145.334 39 -176.001l-57 -25c-15.333 22.667 -24.333 57.667 -27 105c-1.33301 14 -1.33301 56 0 126c0.666992 14.667 1.66699 50.5 3 107.5s3.66602 136.167 6.99902 237.5h59
l-10 -241c22.667 -64.667 57.667 -97 105 -97c28.667 0 54 13.333 76 40c17.333 20.667 27.666 40 30.999 58c-12 53.333 -13.667 133.333 -5 240h64c-6 -51.333 -9 -100 -9 -146c0 -38.667 2.33301 -69.667 7 -93c8 -44.667 25.333 -84.667 52 -120z" />
    <glyph glyph-name="paragraph" unicode="&#xb6;" horiz-adv-x="583" 
d="M345 561c-1.33301 -19.333 -2.33105 -60.333 -2.99805 -123s-1 -147.667 -1 -255v-182c1.33301 -62.667 4.66602 -105.334 9.99902 -128.001h-87c7.33301 24 11.333 66.333 12 127v185v38c-6 -1.33301 -12.167 -2.16602 -18.5 -2.49902s-13.166 -0.833008 -20.499 -1.5
c-62 -2.66699 -112.333 16.333 -151 57c-36 39.333 -53.667 88.333 -53 147c1.33301 53.333 17.666 98.333 48.999 135c33.333 37.333 76 58 128 62h79.5c31.667 0 68.5 0.333008 110.5 1c50 0.666992 84 1.66699 102 3c29.333 2 50.666 5.66699 63.999 11v-86
c-19.333 6 -47.666 10 -84.999 12c-1.33301 -19.333 -2.33301 -60.333 -3 -123s-1 -147.667 -1 -255v-182c1.33301 -62.667 4.66602 -105.334 9.99902 -128.001h-87c7.33301 24 11.333 66.333 12 127v185c0 105.333 -0.333008 189.333 -1 252s-1.66699 104.334 -3 125.001
h-26.5c-10.333 0 -22.5 -0.333008 -36.5 -1z" />
    <glyph glyph-name="periodcentered" unicode="&#xb7;" horiz-adv-x="250" 
d="M183 299c0 -16 -5.66699 -29.667 -17 -41s-25 -17 -41 -17s-29.833 5.66699 -41.5 17s-17.5 25 -17.5 41c0 16.667 5.66699 30.667 17 42s25.333 17 42 17c16 0 29.667 -5.66699 41 -17s17 -25.333 17 -42z" />
    <glyph glyph-name="cedilla" unicode="&#xb8;" horiz-adv-x="383" 
d="M245 -133c-16 -30 -43.999 -43.667 -83.999 -41c-22 2 -37.333 6.66699 -46 14l25 40c8.66699 -4 17.667 -6 27 -6c19.333 0 30.333 9.33301 33 28c3.33301 23.333 -12.334 40 -47.001 50c-2 0 8 20 30 60l51 -1l-22 -40c29.333 -15.333 44 -37 44 -65
c0 -12.667 -3.66699 -25.667 -11 -39z" />
    <glyph glyph-name="onesuperior" unicode="&#xb9;" horiz-adv-x="375" 
d="M217 277l-49 0.000976562c4.66699 16 7 75.333 7 178v94c0 22 -0.333008 35 -1 39c-5.33301 0.666992 -12.333 0.666992 -21 0v15c14 5.33301 26.333 15 37 29h23c-0.666992 -6.66699 -1 -24.834 -1 -54.501v-125.5c0 -100 1.66699 -158.333 5 -175z" />
    <glyph glyph-name="ordmasculine" unicode="&#xba;" horiz-adv-x="351" 
d="M323 383c0 -44 -14.335 -80 -43.002 -108c-29.333 -27.333 -64.666 -41 -105.999 -41c-45.333 0 -82 14.333 -110 43c-27.333 30 -40.666 66 -39.999 108c0 41.333 14 76 42 104s64 42 108 42c46 0 82.333 -13.5 109 -40.5s40 -62.833 40 -107.5zM277.998 383
c0.666992 32 -8.66699 58.166 -28 78.499s-44 30.5 -74 30.5c-30.667 0 -56.334 -10.167 -77.001 -30.5s-31 -46.5 -31 -78.5c0 -30 10.333 -55.333 31 -76c21.333 -21.333 47 -32 77 -32s54.333 9.83301 73 29.5s28.334 45.834 29.001 78.501z" />
    <glyph glyph-name="guillemotright" unicode="&#xbb;" horiz-adv-x="606" 
d="M527 169l-214 -168v68l170 131l-170 132v67l214 -168v-62zM357 169l-215 -168v68l171 131l-171 132v67l215 -168v-62z" />
    <glyph glyph-name="onequarter" unicode="&#xbc;" horiz-adv-x="755" 
d="M231 282l-50.001 0.000976562c4.66699 16 7 75.333 7 178v94.5c0 22.333 -0.333008 35.5 -1 39.5h-21v15c14.667 4 27.334 13.333 38.001 28h22c-0.666992 -6.66699 -1 -24.834 -1 -54.501v-125.5c0 -100.667 2 -159 6 -175zM647.999 695.001l-450 -700h-38l-3 5l450 700
h39zM645.999 83.001c-10 2.66699 -21.666 4 -34.999 4c0 -43.333 1.66699 -73.333 5 -90h-48c2 7.33301 3.5 13.5 4.5 18.5s1.83301 8.83301 2.5 11.5v61c-35.333 1.33301 -83 1.33301 -143 0v26l71.5 105l85.5 131c9.33301 1.33301 16.666 1.33301 21.999 0v-60v-111v-60
c4 0 9 0.333008 15 1s12.667 1.66699 20 3v-40zM574 117.001l-0.000976562 91.501c0 24.333 0.333008 43.166 1 56.499c-25.333 -34 -59.333 -83 -102 -147c24.667 -0.666992 45.334 -1 62.001 -1h39z" />
    <glyph glyph-name="onehalf" unicode="&#xbd;" horiz-adv-x="755" 
d="M110 1l448 697h39l3 -4l-449 -699h-37zM183 279l-49 0.000976562c4.66699 16 7 75.333 7 178v94c0 22 -0.333008 35 -1 39c-5.33301 0.666992 -12.333 0.666992 -21 0v15c14 5.33301 26.333 15 37 29h23c-0.666992 -6.66699 -1 -24.834 -1 -54.501v-125.5
c0 -100 1.66699 -158.333 5 -175zM666 -5.99902c-51.333 3.33301 -90.665 4.33105 -117.998 2.99805c-10.667 0.666992 -24.334 0.833984 -41.001 0.500977s-36.667 -0.833008 -60 -1.5v20c5.33301 5.33301 14.166 14.666 26.499 27.999l49.5 51l29.5 30
c8.33301 8.66699 15.166 16.334 20.499 23.001c20 24.667 34 47.667 42 69c6.66699 16 10 32 10 48c0 21.333 -6.5 38 -19.5 50s-28.833 18 -47.5 18c-24.667 0 -43 -9.66699 -55 -29c-7.33301 -11.333 -12 -25.333 -14 -42h-34c0.666992 3.33301 1.16699 7 1.5 11
s1.16602 7.66699 2.49902 11c4.66699 16.667 12.667 32.667 24 48c16.667 20.667 42.667 31 78 31c58 0 91.333 -26.333 100 -79c0.666992 -3.33301 1.16699 -6.5 1.5 -9.5s0.5 -6.16699 0.5 -9.5c0 -48 -27.333 -100.333 -82 -157l-77 -81h99c18.667 0 29.334 2 32.001 6
s4.33398 9.33301 5.00098 16h26c-1.33301 -21.333 -1.33301 -39.666 0 -54.999z" />
    <glyph glyph-name="threequarters" unicode="&#xbe;" horiz-adv-x="686" 
d="M612 683l-449 -700h-38l-3 5l449 700h39zM241 378c0 -29.333 -10.334 -53.335 -31.001 -72.002c-22.667 -20.667 -53.334 -30.667 -92.001 -30c-33.333 0.666992 -59.666 5.66699 -78.999 15l12 35c12.667 -5.33301 20.667 -8.33301 24 -9c16 -5.33301 31 -8 45 -8
c24 -0.666992 43.5 5 58.5 17s23.167 28.333 24.5 49c2 24.667 -6.66699 45 -26 61c-18.667 14 -38.667 20.667 -60 20c-0.666992 0.666992 -0.666992 12.334 0 35.001c20 -1.33301 37.333 4 52 16c12 10.667 18.667 24.667 20 42
c0.666992 16.667 -4.16602 29.834 -14.499 39.501s-23.166 14.167 -38.499 13.5c-34 0 -56 -19 -66 -57l-29 12c12 47.333 42 72.666 90 75.999c30 1.33301 53.167 -5.5 69.5 -20.5s24.5 -33.5 24.5 -55.5c0.666992 -19.333 -4.83301 -36.666 -16.5 -51.999
s-27.834 -25.333 -48.501 -30c54 -12 81 -44.333 81 -97zM629.999 85.998c-5.33301 1.33301 -11.002 2.33105 -17.002 2.99805s-12.333 1.33398 -19 2.00098c0 -46 2 -76.333 6 -91h-49c2 8 3.5 14.5 4.5 19.5s1.83301 8.5 2.5 10.5v61c-35.333 1.33301 -83 1.33301 -143 0
v27l71.5 105l85.5 131c4.66699 0.666992 8.83398 0.833984 12.501 0.500977s6.83398 -0.833008 9.50098 -1.5v-59v-111v-60c8.66699 -1.33301 20.667 -0.333008 36 3v-40zM557.997 120.996v146.999c-12.667 -16.667 -27.334 -37.167 -44.001 -61.5l-57 -84.5
c24.667 -0.666992 45.334 -1.16699 62.001 -1.5s29.667 -0.166016 39 0.500977z" />
    <glyph glyph-name="questiondown" unicode="&#xbf;" horiz-adv-x="426" 
d="M317 429c0 -9.33301 -3.5 -17.666 -10.5 -24.999s-15.5 -11 -25.5 -11c-9.33301 0 -17.666 3.66699 -24.999 11s-11 15.666 -11 24.999c0 10 3.66699 18.5 11 25.5s15.666 10.5 24.999 10.5c10 0 18.5 -3.5 25.5 -10.5s10.5 -15.5 10.5 -25.5zM391 -156
c-10.667 2 -33.333 -3.66992 -68 -17.0029c-39.333 -15.333 -65.666 -23.333 -78.999 -24c-4.66699 -0.666992 -9.16699 -1 -13.5 -1h-12.5c-88 0 -137.333 42.333 -148 127c-0.666992 5.33301 -1.16699 10.833 -1.5 16.5s-0.5 11.167 -0.5 16.5
c0 44.667 10.667 87.667 32 129c18.667 35.333 43 65.333 73 90c28 22.667 46.667 41 56 55c13.333 21.333 21 49 23 83c0 -2 -1 4.66699 -3 20l66 2c-0.666992 -3.33301 -1 -5.83301 -1 -7.5v-4.5c1.33301 -53.333 -17.667 -101 -57 -143l-37 -34.5l-36 -34.5
c-26.667 -28.667 -45 -67 -55 -115c-2 -12 -3 -24 -3 -36c0 -33.333 8.66699 -60.666 26 -81.999c20 -24 49 -35.333 87 -34c35.333 0.666992 63.666 15.334 84.999 44.001c10.667 14.667 17.667 31.334 21 50.001l40 1c2 -23.333 4 -57 6 -101z" />
    <glyph glyph-name="Agrave" unicode="&#xc0;" horiz-adv-x="611" 
d="M587 0l-91.001 0.00195312c-4.66699 21.333 -27.667 89.666 -69 204.999h-251c-42.667 -108.667 -67 -177 -73 -205h-80c32.667 64.667 115.667 275.667 249 633h71l58.5 -158.5l51.5 -136.5c74.667 -200.667 119.334 -313.334 134.001 -338.001zM405.999 266.002
l-52.5 154.001l-46.5 147c-9.33301 -28.667 -23 -67.834 -41 -117.501l-69 -183.5h209zM336.999 684.003l-51 -16l-61 167l68 23z" />
    <glyph glyph-name="Aacute" unicode="&#xc1;" horiz-adv-x="613" 
d="M587 0l-91.001 0.00195312c-4.66699 21.333 -27.667 89.666 -69 204.999h-251c-42.667 -108.667 -67 -177 -73 -205h-80c32.667 64.667 115.667 275.667 249 633h71l58.5 -158.5l51.5 -136.5c74.667 -200.667 119.334 -313.334 134.001 -338.001zM405.999 266.002
l-52.5 154.001l-46.5 147c-9.33301 -28.667 -23 -67.834 -41 -117.501l-69 -183.5h209zM406.999 848.003l-80 -161l-51 16l56 170z" />
    <glyph glyph-name="Acircumflex" unicode="&#xc2;" horiz-adv-x="613" 
d="M491 729l-43 -41l-138 106c-0.666992 0 -46.667 -34.667 -138 -104l-37 39l177 124l89.5 -62zM587 0l-91.001 0.00195312c-4.66699 21.333 -27.667 89.666 -69 204.999h-251c-42.667 -108.667 -67 -177 -73 -205h-80c32.667 64.667 115.667 275.667 249 633h71
l58.5 -158.5l51.5 -136.5c74.667 -200.667 119.334 -313.334 134.001 -338.001zM405.999 266.002l-52.5 154.001l-46.5 147c-9.33301 -28.667 -23 -67.834 -41 -117.501l-69 -183.5h209z" />
    <glyph glyph-name="Atilde" unicode="&#xc3;" horiz-adv-x="613" 
d="M587 0l-91.001 0.00195312c-4.66699 21.333 -27.667 89.666 -69 204.999h-251c-42.667 -108.667 -67 -177 -73 -205h-80c32.667 64.667 115.667 275.667 249 633h71l58.5 -158.5l51.5 -136.5c74.667 -200.667 119.334 -313.334 134.001 -338.001zM405.999 266.002
l-52.5 154.001l-46.5 147c-9.33301 -28.667 -23 -67.834 -41 -117.501l-69 -183.5h209zM453.999 783.003c-8 -33.333 -20.1689 -57.999 -36.502 -73.999s-33.166 -24 -50.499 -24c-8 0 -19 3.5 -33 10.5s-30.667 17.833 -50 32.5c-26.667 20 -45.667 30 -57 30
c-16.667 0 -30 -21 -40 -63l-41 23c10.667 34 22.834 58.667 36.501 74s27.167 23.666 40.5 24.999c7.33301 0 17.333 -3 30 -9s28.667 -16 48 -30c16 -12 29.667 -21.667 41 -29s20 -11 26 -11c4.66699 0 9.5 2.16699 14.5 6.5s9.83301 10 14.5 17s8.5 15.167 11.5 24.5
s4.83301 19.333 5.5 30c6 -3.33301 12.833 -7.83301 20.5 -13.5l19.5 -14.5v-5z" />
    <glyph glyph-name="Adieresis" unicode="&#xc4;" horiz-adv-x="613" 
d="M587 0l-91.001 0.00195312c-4.66699 21.333 -27.667 89.666 -69 204.999h-251c-42.667 -108.667 -67 -177 -73 -205h-80c32.667 64.667 115.667 275.667 249 633h71l58.5 -158.5l51.5 -136.5c74.667 -200.667 119.334 -313.334 134.001 -338.001zM405.999 266.002
l-52.5 154.001l-46.5 147c-9.33301 -28.667 -23 -67.834 -41 -117.501l-69 -183.5h209zM437.999 730.003c0 -10.667 -4 -20.332 -12 -28.999s-17.667 -13 -29 -13c-12 0 -22.167 4.16699 -30.5 12.5s-12.5 18.166 -12.5 29.499s4.16699 21.333 12.5 30s18.5 13 30.5 13
c10.667 0 20.167 -4.33301 28.5 -13s12.5 -18.667 12.5 -30zM261.999 730.005c0 -10.667 -4.00098 -20.332 -12.001 -28.999s-18 -13 -30 -13c-11.333 0 -21.333 4.16699 -30 12.5s-13 18.166 -13 29.499c0 10.667 4.33301 20.334 13 29.001s18.667 13 30 13
c10.667 0 20.334 -4.33301 29.001 -13s13 -18.334 13 -29.001z" />
    <glyph glyph-name="Aring" unicode="&#xc5;" horiz-adv-x="613" 
d="M397 780c0 -12.667 -2.33301 -24.667 -7 -36s-11.167 -21.166 -19.5 -29.499s-18.166 -14.833 -29.499 -19.5s-23.333 -7 -36 -7s-24.667 2.33301 -36 7s-21.166 11.167 -29.499 19.5s-14.833 18.166 -19.5 29.499s-7 23.333 -7 36s2.33301 24.667 7 36
s11.167 21.166 19.5 29.499s18.166 14.833 29.499 19.5s23.333 7 36 7s24.667 -2.33301 36 -7s21.166 -11.167 29.499 -19.5s14.833 -18.166 19.5 -29.499s7 -23.333 7 -36zM363 780c0 16 -5.66699 29.667 -17 41s-25 17 -41 17s-29.667 -5.66699 -41 -17s-17 -25 -17 -41
s5.66699 -29.667 17 -41s25 -17 41 -17s29.667 5.66699 41 17s17 25 17 41zM587 0l-91.001 0.00195312c-4.66699 21.333 -27.667 89.666 -69 204.999h-251c-42.667 -108.667 -67 -177 -73 -205h-80c32.667 64.667 115.667 275.667 249 633h71l58.5 -158.5l51.5 -136.5
c74.667 -200.667 119.334 -313.334 134.001 -338.001zM405.999 266.002l-52.5 154.001l-46.5 147c-9.33301 -28.667 -23 -67.834 -41 -117.501l-69 -183.5h209z" />
    <glyph glyph-name="AE" unicode="&#xc6;" horiz-adv-x="927" 
d="M885 -5c-42.667 2 -80.999 3.5 -114.999 4.5s-64.333 1.16699 -91 0.5h-208c3.33301 22 5.33301 90.333 6 205h-232l-84.5 -116.5c-23.667 -33.667 -42.834 -63.167 -57.501 -88.5h-105c28.667 32.667 82 100.667 160 204l310 418h93
c21.333 -0.666992 39.666 -1 54.999 -1h37c26.667 0 57.167 0.5 91.5 1.5l115.5 3.5c-3.33301 -23.333 -3.33301 -55.333 0 -96h-50l-2 16c0 2 -2 5 -6 9c-2.66699 4.66699 -24 7 -64 7h-185c-1.33301 -65.333 -1.33301 -134.333 0 -207c144.667 0 228 4.66699 250 14v-86
c-31.333 10 -114.666 14 -249.999 12c-0.666992 -74 -0.666992 -152.333 0 -235h211c36 0 57 4 63 12c4 6 7 16.333 9 31h49c-3.33301 -49.333 -3.33301 -85.333 0 -108zM478.001 536l-190 -270h190v270z" />
    <glyph glyph-name="Ccedilla" unicode="&#xc7;" horiz-adv-x="524" 
d="M357 -133c-15.333 -30 -43.334 -43.6641 -84.001 -40.9971c-22 2 -37.333 6.66699 -46 14l25 40c8.66699 -4 17.667 -6 27 -6c19.333 0 30.333 9.33301 33 28c3.33301 23.333 -12.334 40 -47.001 50c-2 -1.33301 4 11.667 18 39h-1
c-73.333 13.333 -132.666 51 -177.999 113c-42.667 58.667 -64 128 -64 208c0 94 24.333 171.333 73 232c52.667 66.667 124.667 100 216 100c23.333 0 52.666 -4 87.999 -12c30 -8 47.667 -11.333 53 -10c0 -18 3 -49.333 9 -94h-48
c-0.666992 4.66699 -2.16699 10.167 -4.5 16.5s-5.16602 13.166 -8.49902 20.499c-17.333 16 -48 23 -92 21c-65.333 -2.66699 -118.666 -31.667 -159.999 -87c-37.333 -52.667 -56 -115.334 -56 -188.001c0 -70 20 -130.333 60 -181c43.333 -55.333 98.666 -83 165.999 -83
c40 0 67.667 7.66699 83 23c6.66699 6.66699 12 18.667 16 36h48c-4 -46 -6 -77.667 -6 -95c-5.33301 0.666992 -23.333 -3 -54 -11l-29.5 -5.5c-12.333 -2.33301 -32.166 -4.5 -59.499 -6.5l-10 -17c28 -15.333 42 -37.333 42 -66c0 -12.667 -3 -25.334 -9 -38.001z" />
    <glyph glyph-name="Egrave" unicode="&#xc8;" horiz-adv-x="525" 
d="M485 -5c-42.667 2 -81.001 3.5 -115.001 4.5s-64.333 1.16699 -91 0.5c-20.667 -0.666992 -47.834 -1.5 -81.501 -2.5l-120.5 -3.5c6.66699 22 10 132 10 330c0 179.333 -3.33301 280 -10 302c44.667 -2.66699 103.334 -4.66699 176.001 -6
c26.667 -0.666992 57.167 -0.5 91.5 0.5s72.833 2.5 115.5 4.5c-3.33301 -23.333 -3.33301 -55.333 0 -96h-50l-2 16c0 2 -2 5 -6 9c-2.66699 4.66699 -24 7 -64 7h-185c-1.33301 -62 -1.33301 -129.667 0 -203c144.667 0 228 4.66699 250 14v-86
c-31.333 10 -114.666 14 -249.999 12c-0.666992 -74 -0.666992 -153.333 0 -238h211c36 0 57 4 63 12c4 6 7 16.333 9 31h49c-3.33301 -49.333 -3.33301 -85.333 0 -108zM306.999 683l-51 -16l-61 167l68 23z" />
    <glyph glyph-name="Eacute" unicode="&#xc9;" horiz-adv-x="525" 
d="M477 0c-42.667 2 -80.9971 3.49902 -114.997 4.49902s-64.333 1.16699 -91 0.5c-20.667 -0.666992 -47.834 -1.5 -81.501 -2.5l-120.5 -3.5c6.66699 22 10 132 10 330c0 178.667 -3.33301 279.334 -10 302.001c45.333 -3.33301 104 -5.33301 176 -6
c26.667 -0.666992 57.167 -0.666992 91.5 0s72.833 2.33398 115.5 5.00098c-3.33301 -24 -3.33301 -56 0 -96h-50c-0.666992 8.66699 -1.33398 14 -2.00098 16s-2.33398 4.66699 -5.00098 8c-5.33301 5.33301 -27 8 -65 8h-185
c-0.666992 -62.667 -0.666992 -130.334 0 -203.001c144.667 0 228 4.66699 250 14v-86c-32 10 -115.333 14 -250 12c-0.666992 -74.667 -0.666992 -154 0 -238h211c36 0 57 4 63 12c4 4.66699 7 15 9 31h49c-3.33301 -49.333 -3.33301 -85.333 0 -108zM345.003 847.999
l-80 -161l-51 16l56 170z" />
    <glyph glyph-name="Ecircumflex" unicode="&#xca;" horiz-adv-x="525" 
d="M456 729l-43 -41l-138 106c-0.666992 0 -46.667 -34.667 -138 -104l-37 39l177 124l89.5 -61.5zM485 0c-42.667 2 -81.001 3.49902 -115.001 4.49902s-64.333 1.16699 -91 0.5c-20.667 -0.666992 -47.834 -1.5 -81.501 -2.5l-120.5 -3.5c6.66699 22 10 132 10 330
c0 178.667 -3.33301 279.334 -10 302.001c44.667 -2.66699 103.334 -4.66699 176.001 -6c26.667 -0.666992 57.167 -0.666992 91.5 0s72.833 2.33398 115.5 5.00098c-3.33301 -24 -3.33301 -56 0 -96h-50c-1.33301 10 -2 15.333 -2 16c0 2 -2 5 -6 9
c-2.66699 4.66699 -24 7 -64 7h-185c-0.666992 -62.667 -0.666992 -130.334 0 -203.001c144.667 0 228 4.66699 250 14v-86c-31.333 10 -114.666 14 -249.999 12c-0.666992 -74.667 -0.666992 -154 0 -238h211c36.667 0 57.667 4 63 12c5.33301 6 8.33301 16.333 9 31h49
c-2 -49.333 -2 -85.333 0 -108z" />
    <glyph glyph-name="Edieresis" unicode="&#xcb;" horiz-adv-x="525" 
d="M486 2c-42.667 2 -81.001 3.5 -115.001 4.5s-64.333 1.16699 -91 0.5c-20.667 -0.666992 -47.834 -1.5 -81.501 -2.5l-120.5 -3.5c6.66699 22 10 132 10 330c0 179.333 -3.33301 280 -10 302c44.667 -2.66699 103.334 -4.66699 176.001 -6
c26.667 -0.666992 57.167 -0.5 91.5 0.5s72.833 2.5 115.5 4.5c-3.33301 -23.333 -3.33301 -55.333 0 -96h-50l-2 16c0 2 -2 5 -6 9c-2.66699 4.66699 -24 7 -64 7h-185c-1.33301 -62 -1.33301 -129.667 0 -203c144.667 0 228 4.66699 250 14v-86
c-31.333 10 -114.666 14 -249.999 12c-0.666992 -74 -0.666992 -153.333 0 -238h211c36 0 57 4 63 12c4 6 7 16.333 9 31h49c-3.33301 -49.333 -3.33301 -85.333 0 -108zM407.999 730c0 -10.667 -4 -20.332 -12 -28.999s-17.667 -13 -29 -13
c-12 0 -22.167 4.16699 -30.5 12.5s-12.5 18.166 -12.5 29.499s4.16699 21.333 12.5 30s18.5 13 30.5 13c10.667 0 20.167 -4.33301 28.5 -13s12.5 -18.667 12.5 -30zM231.999 730.002c0 -10.667 -4.00098 -20.332 -12.001 -28.999s-18 -13 -30 -13
c-11.333 0 -21.333 4.16699 -30 12.5s-13 18.166 -13 29.499c0 10.667 4.33301 20.334 13 29.001s18.667 13 30 13c10.667 0 20.334 -4.33301 29.001 -13s13 -18.334 13 -29.001z" />
    <glyph glyph-name="Igrave" unicode="&#xcc;" horiz-adv-x="242" 
d="M165 621c-3.33301 -12.667 -5.83008 -29.499 -7.49707 -50.499s-2.83398 -46.5 -3.50098 -76.5v-184v-181c1.33301 -62.667 4.66602 -105.667 9.99902 -129h-87c7.33301 25.333 11.333 68 12 128v286c0 68 -0.333008 109.667 -1 125s-1.83398 29.666 -3.50098 42.999
s-4.16699 26.333 -7.5 39h88zM148.003 680.001l-51 -16l-61 167l68 23z" />
    <glyph glyph-name="Iacute" unicode="&#xcd;" horiz-adv-x="242" 
d="M165 621c-3.33301 -12.667 -5.83008 -29.499 -7.49707 -50.499s-2.83398 -46.5 -3.50098 -76.5v-184v-181c1.33301 -62.667 4.66602 -105.667 9.99902 -129h-87c7.33301 25.333 11.333 68 12 128v286c0 68 -0.333008 109.667 -1 125s-1.83398 29.666 -3.50098 42.999
s-4.16699 26.333 -7.5 39h88zM224.003 848.001l-80 -161l-51 16l56 170z" />
    <glyph glyph-name="Icircumflex" unicode="&#xce;" horiz-adv-x="242" 
d="M165 621c-3.33301 -12.667 -5.83008 -29.499 -7.49707 -50.499s-2.83398 -46.5 -3.50098 -76.5v-184v-181c1.33301 -62.667 4.66602 -105.667 9.99902 -129h-87c7.33301 25.333 11.333 68 12 128v286c0 68 -0.333008 109.667 -1 125s-1.83398 29.666 -3.50098 42.999
s-4.16699 26.333 -7.5 39h88zM308.003 727.001l-43 -41l-138 106c-0.666992 0 -46.667 -34.667 -138 -104l-37 39l177 124l89.5 -62z" />
    <glyph glyph-name="Idieresis" unicode="&#xcf;" horiz-adv-x="242" 
d="M165 621c-3.33301 -12.667 -5.83008 -29.499 -7.49707 -50.499s-2.83398 -46.5 -3.50098 -76.5v-184v-181c1.33301 -62.667 4.66602 -105.667 9.99902 -129h-87c7.33301 25.333 11.333 68 12 128v286c0 68 -0.333008 109.667 -1 125s-1.83398 29.666 -3.50098 42.999
s-4.16699 26.333 -7.5 39h88zM227.003 730.001c0 -10.667 -4 -20.332 -12 -28.999s-17.667 -13 -29 -13c-12 0 -22.167 4.16699 -30.5 12.5s-12.5 18.166 -12.5 29.499s4.16699 21.333 12.5 30s18.5 13 30.5 13c10.667 0 20.167 -4.33301 28.5 -13s12.5 -18.667 12.5 -30z
M51.0029 730.003c0 -10.667 -4.00098 -20.332 -12.001 -28.999s-18 -13 -30 -13c-11.333 0 -21.333 4.16699 -30 12.5s-13 18.166 -13 29.499c0 10.667 4.33301 20.334 13 29.001s18.667 13 30 13c10.667 0 20.334 -4.33301 29.001 -13s13 -18.334 13 -29.001z" />
    <glyph glyph-name="Eth" unicode="&#xd0;" horiz-adv-x="609" 
d="M567 303c0 -88.667 -29 -161.333 -87 -218c-56.667 -56.667 -129.667 -85 -219 -85h-184c4.66699 18 7.66699 43 9 75c2 32 3 104.333 3 217h-91v48h91v113.5c0 31 -0.333008 55.833 -1 74.5s-1.83398 35.667 -3.50098 51s-4.16699 29.333 -7.5 42h191
c96.667 0 171.334 -29.333 224.001 -88c50 -56 75 -132.667 75 -230zM493 303.001c0 165.333 -77 248 -231 248h-107v-127.5c0 -35 -0.333008 -62.833 -1 -83.5h159v-48h-159c0 -35.333 1 -111 3 -227h103c69.333 0 125.333 22.333 168 67c43.333 45.333 65 102.333 65 171z
" />
    <glyph glyph-name="Ntilde" unicode="&#xd1;" horiz-adv-x="640" 
d="M578 623c-3.33301 -12.667 -5.83398 -29.499 -7.50098 -50.499s-2.83398 -46.833 -3.50098 -77.5c0.666992 18 1 11.667 1 -19v-166v-310h-58l-87 125l-76 111l-135.5 201c-33.667 50.667 -56.167 86 -67.5 106v-233v-181c0.666992 -30.667 1.83398 -56.667 3.50098 -78
s4.16699 -38.333 7.5 -51h-83c3.33301 12.667 5.83301 29.5 7.5 50.5s2.83398 46.833 3.50098 77.5v184v123c0 31.333 -0.333008 53 -1 65c-3.33301 64 -9.66602 105 -18.999 123c63.333 -0.666992 94.666 -0.666992 93.999 0l83.5 -115.5l75.5 -107.5
c54.667 -79.333 97.5 -143.833 128.5 -193.5s50.833 -84.834 59.5 -105.501v210v156.5c0 30.333 0.333008 39.5 1 27.5c-0.666992 60 -4.66699 102.667 -12 128h85zM481.999 786.001c-8 -33.333 -20.1689 -57.999 -36.502 -73.999s-33.166 -24 -50.499 -24
c-8 0 -19 3.5 -33 10.5s-30.667 17.833 -50 32.5c-26.667 20 -45.667 30 -57 30c-16.667 0 -30 -21 -40 -63l-41 23c10.667 34 22.834 58.667 36.501 74s27.167 23.666 40.5 24.999c7.33301 0 17.333 -3 30 -9s28.667 -16 48 -30c16 -12 29.667 -21.667 41 -29
s20 -11 26 -11c4.66699 0 9.5 2.16699 14.5 6.5s9.83301 10 14.5 17s8.5 15.167 11.5 24.5s4.83301 19.333 5.5 30c6 -3.33301 12.833 -7.83301 20.5 -13.5l19.5 -14.5v-5z" />
    <glyph glyph-name="Ograve" unicode="&#xd2;" horiz-adv-x="710" 
d="M643 304c0 -86 -26.667 -159.333 -80 -220c-56 -62.667 -126.333 -94 -211 -94c-88 0 -159 31.333 -213 94c-52 58.667 -78 132 -78 220c0 93.333 24.333 170.333 73 231c52.667 66 125.334 99 218.001 99c93.333 0 166.666 -33 219.999 -99
c47.333 -60.667 71 -137.667 71 -231zM571 304c0 78.667 -17.667 141.667 -53 189c-38.667 50.667 -94.334 76 -167.001 76c-68 0 -122.333 -28 -163 -84c-37.333 -50.667 -56 -111.334 -56 -182.001c0 -66.667 19.667 -123.667 59 -171c42 -51.333 95.667 -77 161 -77
c66.667 0 120.334 25.333 161.001 76c38.667 46.667 58 104.334 58 173.001zM399 690l-51 -16l-61 167l68 23z" />
    <glyph glyph-name="Oacute" unicode="&#xd3;" horiz-adv-x="710" 
d="M643 304c0 -86 -26.667 -159.333 -80 -220c-56 -62.667 -126.333 -94 -211 -94c-88 0 -159 31.333 -213 94c-52 58.667 -78 132 -78 220c0 93.333 24.333 170.333 73 231c52.667 66 125.334 99 218.001 99c93.333 0 166.666 -33 219.999 -99
c47.333 -60.667 71 -137.667 71 -231zM571 304c0 78.667 -17.667 141.667 -53 189c-38.667 50.667 -94.334 76 -167.001 76c-68 0 -122.333 -28 -163 -84c-37.333 -50.667 -56 -111.334 -56 -182.001c0 -66.667 19.667 -123.667 59 -171c42 -51.333 95.667 -77 161 -77
c66.667 0 120.334 25.333 161.001 76c38.667 46.667 58 104.334 58 173.001zM450 848l-80 -161l-51 16l56 170z" />
    <glyph glyph-name="Ocircumflex" unicode="&#xd4;" horiz-adv-x="710" 
d="M643 304c0 -86 -26.667 -159.333 -80 -220c-56 -62.667 -126.333 -94 -211 -94c-88 0 -159 31.333 -213 94c-52 58.667 -78 132 -78 220c0 93.333 24.333 170.333 73 231c52.667 66 125.334 99 218.001 99c93.333 0 166.666 -33 219.999 -99
c47.333 -60.667 71 -137.667 71 -231zM571 304c0 78.667 -17.667 141.667 -53 189c-38.667 50.667 -94.334 76 -167.001 76c-68 0 -122.333 -28 -163 -84c-37.333 -50.667 -56 -111.334 -56 -182.001c0 -66.667 19.667 -123.667 59 -171c42 -51.333 95.667 -77 161 -77
c66.667 0 120.334 25.333 161.001 76c38.667 46.667 58 104.334 58 173.001zM545 727l-43 -41l-138 106c-0.666992 0 -46.667 -34.667 -138 -104l-37 39l177 124l89.5 -62z" />
    <glyph glyph-name="Otilde" unicode="&#xd5;" horiz-adv-x="710" 
d="M643 304c0 -86 -26.667 -159.333 -80 -220c-56 -62.667 -126.333 -94 -211 -94c-88 0 -159 31.333 -213 94c-52 58.667 -78 132 -78 220c0 93.333 24.333 170.333 73 231c52.667 66 125.334 99 218.001 99c93.333 0 166.666 -33 219.999 -99
c47.333 -60.667 71 -137.667 71 -231zM571 304c0 78.667 -17.667 141.667 -53 189c-38.667 50.667 -94.334 76 -167.001 76c-68 0 -122.333 -28 -163 -84c-37.333 -50.667 -56 -111.334 -56 -182.001c0 -66.667 19.667 -123.667 59 -171c42 -51.333 95.667 -77 161 -77
c66.667 0 120.334 25.333 161.001 76c38.667 46.667 58 104.334 58 173.001zM511 785c-8 -33.333 -20.1689 -57.999 -36.502 -73.999s-33.166 -24 -50.499 -24c-8 0 -19 3.5 -33 10.5s-30.667 17.833 -50 32.5c-26.667 20 -45.667 30 -57 30c-16.667 0 -30 -21 -40 -63
l-41 23c10.667 34 22.834 58.667 36.501 74s27.167 23.666 40.5 24.999c7.33301 0 17.333 -3 30 -9s28.667 -16 48 -30c16 -12 29.667 -21.667 41 -29s20 -11 26 -11c4.66699 0 9.5 2.16699 14.5 6.5s9.83301 10 14.5 17s8.5 15.167 11.5 24.5s4.83301 19.333 5.5 30
c6 -3.33301 12.833 -7.83301 20.5 -13.5l19.5 -14.5v-5z" />
    <glyph glyph-name="Odieresis" unicode="&#xd6;" horiz-adv-x="710" 
d="M643 304c0 -86 -26.667 -159.333 -80 -220c-56 -62.667 -126.333 -94 -211 -94c-88 0 -159 31.333 -213 94c-52 58.667 -78 132 -78 220c0 93.333 24.333 170.333 73 231c52.667 66 125.334 99 218.001 99c93.333 0 166.666 -33 219.999 -99
c47.333 -60.667 71 -137.667 71 -231zM571 304c0 78.667 -17.667 141.667 -53 189c-38.667 50.667 -94.334 76 -167.001 76c-68 0 -122.333 -28 -163 -84c-37.333 -50.667 -56 -111.334 -56 -182.001c0 -66.667 19.667 -123.667 59 -171c42 -51.333 95.667 -77 161 -77
c66.667 0 120.334 25.333 161.001 76c38.667 46.667 58 104.334 58 173.001zM479 730c0 -10.667 -4 -20.332 -12 -28.999s-17.667 -13 -29 -13c-12 0 -22.167 4.16699 -30.5 12.5s-12.5 18.166 -12.5 29.499s4.16699 21.333 12.5 30s18.5 13 30.5 13
c10.667 0 20.167 -4.33301 28.5 -13s12.5 -18.667 12.5 -30zM303 730.002c0 -10.667 -4.00098 -20.332 -12.001 -28.999s-18 -13 -30 -13c-11.333 0 -21.333 4.16699 -30 12.5s-13 18.166 -13 29.499c0 10.667 4.33301 20.334 13 29.001s18.667 13 30 13
c10.667 0 20.334 -4.33301 29.001 -13s13 -18.334 13 -29.001z" />
    <glyph glyph-name="multiply" unicode="&#xd7;" 
d="M440 164l-39 -39l-151 145l-150 -145l-40 39l150 145l-150 145l40 38l150 -145l151 145l39 -38l-150 -145z" />
    <glyph glyph-name="Oslash" unicode="&#xd8;" horiz-adv-x="710" 
d="M659 313c0 -90 -28 -166.333 -84 -229c-56 -63.333 -128 -95 -216 -95c-10 0 -20 0.5 -30 1.5s-19.667 2.16699 -29 3.5l-30 -93h-54l35 107c-60 22 -107 60.667 -141 116c-34 54.667 -51 117.667 -51 189c0 94.667 25 173.667 75 237c54.667 68.667 129.667 103 225 103
c34.667 0 67 -4.66699 97 -14l33 106h54l-39 -126c50.667 -27.333 89.667 -69.333 117 -126c25.333 -54 38 -114 38 -180zM585 313c0 114.667 -34.333 194.333 -103 239l-161 -493c12.667 -2 25.334 -3 38.001 -3c67.333 0 122.666 25.667 165.999 77
c40 48.667 60 108.667 60 180zM435 573.999c-23.333 8 -49 11.998 -77 11.998c-70 0 -126 -29 -168 -87c-38.667 -51.333 -58 -113.666 -58 -186.999c0 -52.667 12.333 -100.667 37 -144s59 -74.666 103 -93.999z" />
    <glyph glyph-name="Ugrave" unicode="&#xd9;" horiz-adv-x="635" 
d="M585 621c-7.33301 -27.333 -11 -102.665 -11 -225.998v-24.5c0 -9.66699 0.333008 -20.834 1 -33.501s1 -23.667 1 -33v-23c0 -86 -19.333 -153.667 -58 -203c-47.333 -60 -113.333 -90 -198 -90c-85.333 0 -151.333 29 -198 87c-37.333 47.333 -56 109.666 -56 186.999
c0 -3.33301 0.166992 7 0.5 31l1.5 113c0.666992 28 0.833984 54 0.500977 78s-1.16602 46 -2.49902 66c-2 32.667 -5.33301 56.334 -10 71.001h92c-5.33301 -22.667 -9 -73.667 -11 -153c-0.666992 -40.667 -1.16699 -79 -1.5 -115s-0.5 -70 -0.5 -102
c0 -130.667 62.333 -196 187 -196c58 0 103 17.333 135 52c35.333 39.333 53 104 53 194c0 73.333 -1 139.666 -3 198.999c-0.666992 30 -1.83398 55 -3.50098 75s-3.83398 35.333 -6.50098 46h88zM366 687.001l-51 -16l-61 167l68 23z" />
    <glyph glyph-name="Uacute" unicode="&#xda;" horiz-adv-x="635" 
d="M585 621c-7.33301 -27.333 -11 -102.665 -11 -225.998v-24.5c0 -9.66699 0.333008 -20.834 1 -33.501s1 -23.667 1 -33v-23c0 -86 -19.333 -153.667 -58 -203c-47.333 -60 -113.333 -90 -198 -90c-85.333 0 -151.333 29 -198 87c-37.333 47.333 -56 109.666 -56 186.999
c0 -3.33301 0.166992 7 0.5 31l1.5 113c0.666992 28 0.833984 54 0.500977 78s-1.16602 46 -2.49902 66c-2 32.667 -5.33301 56.334 -10 71.001h92c-5.33301 -22.667 -9 -73.667 -11 -153c-0.666992 -40.667 -1.16699 -79 -1.5 -115s-0.5 -70 -0.5 -102
c0 -130.667 62.333 -196 187 -196c58 0 103 17.333 135 52c35.333 39.333 53 104 53 194c0 73.333 -1 139.666 -3 198.999c-0.666992 30 -1.83398 55 -3.50098 75s-3.83398 35.333 -6.50098 46h88zM418 848.001l-80 -161l-51 16l56 170z" />
    <glyph glyph-name="Ucircumflex" unicode="&#xdb;" horiz-adv-x="740" 
d="M585 621c-7.33301 -27.333 -11 -102.665 -11 -225.998v-24.5c0 -9.66699 0.333008 -20.834 1 -33.501s1 -23.667 1 -33v-23c0 -86 -19.333 -153.667 -58 -203c-47.333 -60 -113.333 -90 -198 -90c-85.333 0 -151.333 29 -198 87c-37.333 47.333 -56 109.666 -56 186.999
c0 -3.33301 0.166992 7 0.5 31l1.5 113c0.666992 28 0.833984 54 0.500977 78s-1.16602 46 -2.49902 66c-2 32.667 -5.33301 56.334 -10 71.001h92c-5.33301 -22.667 -9 -73.667 -11 -153c-0.666992 -40.667 -1.16699 -79 -1.5 -115s-0.5 -70 -0.5 -102
c0 -130.667 62.333 -196 187 -196c58 0 103 17.333 135 52c35.333 39.333 53 104 53 194c0 73.333 -1 139.666 -3 198.999c-0.666992 30 -1.83398 55 -3.50098 75s-3.83398 35.333 -6.50098 46h88zM502 725.001l-43 -41l-138 106c-0.666992 0 -46.667 -34.667 -138 -104
l-37 39l177 124l89.5 -62z" />
    <glyph glyph-name="Udieresis" unicode="&#xdc;" horiz-adv-x="635" 
d="M585 621c-7.33301 -27.333 -11 -102.665 -11 -225.998v-24.5c0 -9.66699 0.333008 -20.834 1 -33.501s1 -23.667 1 -33v-23c0 -86 -19.333 -153.667 -58 -203c-47.333 -60 -113.333 -90 -198 -90c-85.333 0 -151.333 29 -198 87c-37.333 47.333 -56 109.666 -56 186.999
c0 -3.33301 0.166992 7 0.5 31l1.5 113c0.666992 28 0.833984 54 0.500977 78s-1.16602 46 -2.49902 66c-2 32.667 -5.33301 56.334 -10 71.001h92c-5.33301 -22.667 -9 -73.667 -11 -153c-0.666992 -40.667 -1.16699 -79 -1.5 -115s-0.5 -70 -0.5 -102
c0 -130.667 62.333 -196 187 -196c58 0 103 17.333 135 52c35.333 39.333 53 104 53 194c0 73.333 -1 139.666 -3 198.999c-0.666992 30 -1.83398 55 -3.50098 75s-3.83398 35.333 -6.50098 46h88zM461 730.001c0 -10.667 -4 -20.332 -12 -28.999s-17.667 -13 -29 -13
c-12 0 -22.167 4.16699 -30.5 12.5s-12.5 18.166 -12.5 29.499s4.16699 21.333 12.5 30s18.5 13 30.5 13c10.667 0 20.167 -4.33301 28.5 -13s12.5 -18.667 12.5 -30zM285 730.003c0 -10.667 -4.00098 -20.332 -12.001 -28.999s-18 -13 -30 -13
c-11.333 0 -21.333 4.16699 -30 12.5s-13 18.166 -13 29.499c0 10.667 4.33301 20.334 13 29.001s18.667 13 30 13c10.667 0 20.334 -4.33301 29.001 -13s13 -18.334 13 -29.001z" />
    <glyph glyph-name="Yacute" unicode="&#xdd;" horiz-adv-x="525" 
d="M517 623c-11.333 -12 -26.666 -31.332 -45.999 -57.999l-72 -103l-50 -76l-50 -76c0.666992 -30.667 1 -61 1 -91s0.333008 -60.333 1 -91c1.33301 -62 4.66602 -104.667 9.99902 -128h-88c7.33301 25.333 11.333 67.666 12 126.999v183l-56 85.5l-56 85.5
c-28 42 -51 74.667 -69 98s-31.333 38 -40 44h116c-1.33301 -18 9 -44.333 31 -79l111 -177l109 176c22 36 33.667 62.667 35 80h101zM367 848.001l-80 -161l-51 16l56 170z" />
    <glyph glyph-name="Thorn" unicode="&#xde;" horiz-adv-x="494" 
d="M145 619c-2.66699 -10.667 -4.83105 -23.6699 -6.49805 -39.0029s-2.83398 -33.666 -3.50098 -54.999h141c36 0 72.667 -12.667 110 -38c49.333 -35.333 74 -84.333 74 -147c0 -62 -24 -110 -72 -144c-33.333 -23.333 -71 -36.666 -113 -39.999
c-6 0 -14.667 -0.166992 -26 -0.5s-23.833 -0.666016 -37.5 -0.999023s-27.167 -0.5 -40.5 -0.5h-35c-1.33301 -16.667 -2 -29 -2 -37v-20c0 -38.667 3.33301 -71 10 -97h-87c7.33301 25.333 11.333 66 12 122v178v152.5c0 39 -0.333008 66.167 -1 81.5
c-0.666992 16 -1.83398 31 -3.50098 45s-4.16699 27.333 -7.5 40h88zM390.003 339.997c-0.666992 70.667 -38.999 112.336 -114.999 125.003c-19.333 2.66699 -65.333 3.66699 -138 3l-1 -254c40 -0.666992 71.5 -0.833984 94.5 -0.500977s37.833 1.16602 44.5 2.49902
c77.333 11.333 115.666 52.666 114.999 123.999z" />
    <glyph glyph-name="germandbls" unicode="&#xdf;" horiz-adv-x="435" 
d="M427 91c-3.33301 -33.333 -19.666 -58.9961 -48.999 -76.9961c-26 -16 -57 -24 -93 -24c-4.66699 0 -9 0.166992 -13 0.5s-8.33301 0.833008 -13 1.5c-23.333 3.33301 -45.666 8.66602 -66.999 15.999c-10.667 4 -19.334 5.33301 -26.001 4v68h26
c18 -18 40.667 -30 68 -36c8 -2 16.333 -3 25 -3c21.333 0 39.666 5 54.999 15c17.333 11.333 26 26.333 26 45c1.33301 17.333 -8.66699 33.666 -30 48.999l-63 45c-12.667 9.33301 -22.167 16.666 -28.5 21.999s-9.83301 8.33301 -10.5 9c-12 12 -18 27 -18 45
c0 10 1.33301 20.333 4 31c4.66699 19.333 19.667 43.666 45 72.999c24.667 28.667 39.667 49.667 45 63c4.66699 13.333 7 27 7 41c0 26.667 -9.5 47.667 -28.5 63s-41.5 21.333 -67.5 18c-47.333 -6 -74.666 -32.667 -81.999 -80c-4 -25.333 -6 -91.666 -6 -198.999
c0 -64.667 0.333008 -120.334 1 -167.001s1.66699 -85 3 -115h-67c4 34 6 127.667 6 281v38c-35.333 -1.33301 -57.333 -3.33301 -66 -6v58c10 -5.33301 31.667 -7.33301 65 -6c-0.666992 76 4 129 14 159c19.333 58 63.333 87.333 132 88
c45.333 1.33301 82 -9.66699 110 -33c29.333 -25.333 44 -59 44 -101c0 -27.333 -7 -52.333 -21 -75c-6.66699 -12 -20.334 -29 -41.001 -51c-17.333 -18.667 -28 -32.667 -32 -42c-4 -12 -6 -21.667 -6 -29c0 -8.66699 4.16699 -16.167 12.5 -22.5l25.5 -19.5l39.5 -28.5
l39.5 -28.5c27.333 -25.333 39 -55.333 35 -90z" />
    <glyph glyph-name="agrave" unicode="&#xe0;" horiz-adv-x="427" 
d="M272 288c-0.666992 44.667 -25.3311 65.6689 -73.998 63.002c-12 -0.666992 -24.833 -3.16699 -38.5 -7.5s-26.667 -9.83301 -39 -16.5s-24 -14.334 -35 -23.001s-19.833 -17.667 -26.5 -27v60c34.667 40.667 81.667 61.667 141 63c38 0.666992 68.667 -8 92 -26
c27.333 -21.333 41 -53 41 -95v-206c0 -15.333 5.66699 -23 17 -23c4 0 19.667 10 47 30v-54c-22 -23.333 -41.333 -35 -58 -35c-34.667 0 -56 16.333 -64 49c-30.667 -32 -72.334 -48.667 -125.001 -50c-16 0 -30.667 2.83301 -44 8.5s-25 13.5 -35 23.5
s-17.667 21.667 -23 35s-8 27.666 -8 42.999c0 33.333 11.333 61 34 83c21.333 20 49.666 32.667 84.999 38c13.333 1.33301 29.333 3.5 48 6.5l65 10.5v50zM275.003 90.002l-0.000976562 96l-40.5 -5.5l-60.5 -8.5c-22 -3.33301 -40.167 -11 -54.5 -23
s-21.5 -25.667 -21.5 -41c0 -18.667 5.83301 -34.167 17.5 -46.5s26.834 -18.5 45.501 -18.5c14 0 33.667 5 59 15c26 11.333 44.333 22 55 32zM243.002 466.002l-51 -16l-61 167l68 23z" />
    <glyph glyph-name="aacute" unicode="&#xe1;" horiz-adv-x="427" 
d="M262 288c-0.666992 44.667 -25.3311 65.6689 -73.998 63.002c-12 -0.666992 -24.833 -3.16699 -38.5 -7.5s-26.667 -9.83301 -39 -16.5s-24 -14.334 -35 -23.001s-19.833 -17.667 -26.5 -27v60c34.667 40.667 81.667 61.667 141 63c38 0.666992 68.667 -8 92 -26
c27.333 -21.333 41 -53 41 -95v-206c0 -15.333 5.66699 -23 17 -23c4 0 19.667 10 47 30v-54c-22 -23.333 -41.333 -35 -58 -35c-34.667 0 -56 16.333 -64 49c-30.667 -32 -72.334 -48.667 -125.001 -50c-16 0 -30.667 2.83301 -44 8.5s-25 13.5 -35 23.5
s-17.667 21.667 -23 35s-8 27.666 -8 42.999c0 33.333 11.333 61 34 83c21.333 20 49.666 32.667 84.999 38c13.333 1.33301 29.333 3.5 48 6.5l65 10.5v50zM265.003 90.002l-0.000976562 96l-40.5 -5.5l-60.5 -8.5c-22 -3.33301 -40.167 -11 -54.5 -23
s-21.5 -25.667 -21.5 -41c0 -18.667 5.83301 -34.167 17.5 -46.5s26.834 -18.5 45.501 -18.5c14 0 33.667 5 59 15c26 11.333 44.333 22 55 32zM285.002 616.002l-61 -167l-51 16l45 174z" />
    <glyph glyph-name="acircumflex" unicode="&#xe2;" horiz-adv-x="430" 
d="M282 288c-0.666992 44.667 -25.3311 65.6689 -73.998 63.002c-12 -0.666992 -24.833 -3.16699 -38.5 -7.5s-26.667 -9.83301 -39 -16.5s-24 -14.334 -35 -23.001s-19.833 -17.667 -26.5 -27v60c34.667 40.667 81.667 61.667 141 63c38 0.666992 68.667 -8 92 -26
c27.333 -21.333 41 -53 41 -95v-206c0 -15.333 5.66699 -23 17 -23c4 0 19.667 10 47 30v-54c-22 -23.333 -41.333 -35 -58 -35c-34.667 0 -56 16.333 -64 49c-30.667 -32 -72.334 -48.667 -125.001 -50c-16 0 -30.667 2.83301 -44 8.5s-25 13.5 -35 23.5
s-17.667 21.667 -23 35s-8 27.666 -8 42.999c0 33.333 11.333 61 34 83c21.333 20 49.666 32.667 84.999 38c13.333 1.33301 29.333 3.5 48 6.5l65 10.5v50zM285.003 90.002l-0.000976562 96l-40.5 -5.5l-60.5 -8.5c-22 -3.33301 -40.167 -11 -54.5 -23
s-21.5 -25.667 -21.5 -41c0 -18.667 5.83301 -34.167 17.5 -46.5s26.834 -18.5 45.501 -18.5c14 0 33.667 5 59 15c26 11.333 44.333 22 55 32zM400.002 507.002l-43 -41l-138 106c-0.666992 0 -46.667 -34.667 -138 -104l-37 39l177 124l89.5 -62z" />
    <glyph glyph-name="atilde" unicode="&#xe3;" horiz-adv-x="409" 
d="M260 288c-0.666992 44.667 -25.3311 65.6689 -73.998 63.002c-12 -0.666992 -24.833 -3.16699 -38.5 -7.5s-26.667 -9.83301 -39 -16.5s-24 -14.334 -35 -23.001s-19.833 -17.667 -26.5 -27v60c34.667 40.667 81.667 61.667 141 63c38 0.666992 68.667 -8 92 -26
c27.333 -21.333 41 -53 41 -95v-206c0 -15.333 5.66699 -23 17 -23c4 0 19.667 10 47 30v-54c-22 -23.333 -41.333 -35 -58 -35c-34.667 0 -56 16.333 -64 49c-30.667 -32 -72.334 -48.667 -125.001 -50c-16 0 -30.667 2.83301 -44 8.5s-25 13.5 -35 23.5
s-17.667 21.667 -23 35s-8 27.666 -8 42.999c0 33.333 11.333 61 34 83c21.333 20 49.666 32.667 84.999 38c13.333 1.33301 29.333 3.5 48 6.5l65 10.5v50zM263.003 90.002l-0.000976562 96l-40.5 -5.5l-60.5 -8.5c-22 -3.33301 -40.167 -11 -54.5 -23
s-21.5 -25.667 -21.5 -41c0 -18.667 5.83301 -34.167 17.5 -46.5s26.834 -18.5 45.501 -18.5c14 0 33.667 5 59 15c26 11.333 44.333 22 55 32zM347.002 551.002c-8 -33.333 -20.1689 -57.999 -36.502 -73.999s-33.166 -24 -50.499 -24c-8 0 -19 3.5 -33 10.5
s-30.667 17.833 -50 32.5c-26.667 20 -45.667 30 -57 30c-16.667 0 -30 -21 -40 -63l-41 23c10.667 34 22.834 58.667 36.501 74s27.167 23.666 40.5 24.999c7.33301 0 17.333 -3 30 -9s28.667 -16 48 -30c16 -12 29.667 -21.667 41 -29s20 -11 26 -11
c4.66699 0 9.5 2.16699 14.5 6.5s9.83301 10 14.5 17s8.5 15.167 11.5 24.5s4.83301 19.333 5.5 30c6 -3.33301 12.833 -7.83301 20.5 -13.5l19.5 -14.5v-5z" />
    <glyph glyph-name="adieresis" unicode="&#xe4;" horiz-adv-x="430" 
d="M272 288c-0.666992 44.667 -25.3311 65.6689 -73.998 63.002c-12 -0.666992 -24.833 -3.16699 -38.5 -7.5s-26.667 -9.83301 -39 -16.5s-24 -14.334 -35 -23.001s-19.833 -17.667 -26.5 -27v60c34.667 40.667 81.667 61.667 141 63c38 0.666992 68.667 -8 92 -26
c27.333 -21.333 41 -53 41 -95v-206c0 -15.333 5.66699 -23 17 -23c4 0 19.667 10 47 30v-54c-22 -23.333 -41.333 -35 -58 -35c-34.667 0 -56 16.333 -64 49c-30.667 -32 -72.334 -48.667 -125.001 -50c-16 0 -30.667 2.83301 -44 8.5s-25 13.5 -35 23.5
s-17.667 21.667 -23 35s-8 27.666 -8 42.999c0 33.333 11.333 61 34 83c21.333 20 49.666 32.667 84.999 38c13.333 1.33301 29.333 3.5 48 6.5l65 10.5v50zM275.003 90.002l-0.000976562 96l-40.5 -5.5l-60.5 -8.5c-22 -3.33301 -40.167 -11 -54.5 -23
s-21.5 -25.667 -21.5 -41c0 -18.667 5.83301 -34.167 17.5 -46.5s26.834 -18.5 45.501 -18.5c14 0 33.667 5 59 15c26 11.333 44.333 22 55 32zM329.002 508.002c0 -10.667 -4 -20.332 -12 -28.999s-17.667 -13 -29 -13s-21.333 4.16699 -30 12.5s-13 18.166 -13 29.499
s4.33301 21.333 13 30s18.667 13 30 13c10.667 0 20.167 -4.5 28.5 -13.5s12.5 -18.833 12.5 -29.5zM153.002 510.004c0 -11.333 -3.99902 -21.166 -11.999 -29.499s-18 -12.5 -30 -12.5c-11.333 0 -21.333 4.16699 -30 12.5s-13 18.166 -13 29.499
c0 10.667 4.33301 20.334 13 29.001s18.667 13 30 13s21.166 -4.33301 29.499 -13s12.5 -18.334 12.5 -29.001z" />
    <glyph glyph-name="aring" unicode="&#xe5;" horiz-adv-x="430" 
d="M306 562c0 -13.333 -2.66699 -25.833 -8 -37.5s-12.5 -22 -21.5 -31s-19.333 -16.167 -31 -21.5s-24.167 -8 -37.5 -8s-25.833 2.66699 -37.5 8s-22 12.5 -31 21.5s-16.167 19.333 -21.5 31s-8 24.167 -8 37.5s2.66699 25.833 8 37.5s12.5 22 21.5 31
s19.333 16.167 31 21.5s24.167 8 37.5 8c28 0 51.333 -9.33301 70 -28s28 -42 28 -70zM269 562c0 19.333 -5.5 34.6699 -16.5 46.0029s-25.833 17 -44.5 17c-18 0 -32.5 -5.83301 -43.5 -17.5s-16.5 -26.834 -16.5 -45.501s5.5 -33.834 16.5 -45.501s25.5 -17.5 43.5 -17.5
c18.667 0 33.5 5.66699 44.5 17s16.5 26.666 16.5 45.999zM272 288.004c-0.666992 44.667 -25.3311 65.6689 -73.998 63.002c-12 -0.666992 -24.833 -3.16699 -38.5 -7.5s-26.667 -9.83301 -39 -16.5s-24 -14.334 -35 -23.001s-19.833 -17.667 -26.5 -27v60
c34.667 40.667 81.667 61.667 141 63c38 0.666992 68.667 -8 92 -26c27.333 -21.333 41 -53 41 -95v-206c0 -15.333 5.66699 -23 17 -23c4 0 19.667 10 47 30v-54c-22 -23.333 -41.333 -35 -58 -35c-34.667 0 -56 16.333 -64 49c-30.667 -32 -72.334 -48.667 -125.001 -50
c-16 0 -30.667 2.83301 -44 8.5s-25 13.5 -35 23.5s-17.667 21.667 -23 35s-8 27.666 -8 42.999c0 33.333 11.333 61 34 83c21.333 20 49.666 32.667 84.999 38c13.333 1.33301 29.333 3.5 48 6.5l65 10.5v50zM275.003 90.0059l-0.000976562 96l-40.5 -5.5l-60.5 -8.5
c-22 -3.33301 -40.167 -11 -54.5 -23s-21.5 -25.667 -21.5 -41c0 -18.667 5.83301 -34.167 17.5 -46.5s26.834 -18.5 45.501 -18.5c14 0 33.667 5 59 15c26 11.333 44.333 22 55 32z" />
    <glyph glyph-name="ae" unicode="&#xe6;" horiz-adv-x="641" 
d="M300 72c-36.667 -56.667 -93.332 -84.666 -169.999 -83.999c-31.333 0.666992 -57.666 11.667 -78.999 33c-20.667 21.333 -31 47 -31 77c0 39.333 16.333 71 49 95c9.33301 6.66699 22.666 13.834 39.999 21.501s38.666 15.834 63.999 24.501l79 28v18
c0 45.333 -24.667 66.333 -74 63c-12 -0.666992 -24.833 -3.16699 -38.5 -7.5s-26.667 -9.83301 -39 -16.5s-24 -14.334 -35 -23.001s-19.833 -17.667 -26.5 -27v60c34.667 40.667 81.667 61.667 141 63c66.667 2 108.667 -22.667 126 -74c29.333 46 73.333 69.667 132 71
c60.667 0.666992 106.334 -18.333 137.001 -57c28 -34.667 41.667 -81.334 41 -140.001h-303c-0.666992 -42.667 13 -78.667 41 -108c27.333 -28 62.666 -42.667 105.999 -44c40 -0.666992 75.667 14.666 107 45.999l29 -53c-52 -28.667 -99 -44 -141 -46
c-32 -1.33301 -62.167 5 -90.5 19s-49.833 34.333 -64.5 61zM543.002 250.001c-7.33301 60 -42.665 90 -105.998 90c-24.667 0 -47.334 -8 -68.001 -24s-36.334 -38 -47.001 -66h221zM252.003 88.001l-0.000976562 130c-28 -9.33301 -51.5 -17.833 -70.5 -25.5
s-34.167 -14.167 -45.5 -19.5c-38.667 -20.667 -58 -43 -58 -67c0 -18.667 5.83301 -34.167 17.5 -46.5s26.834 -18.5 45.501 -18.5c14 0 33 5 57 15c23.333 10 41.333 20.667 54 32z" />
    <glyph glyph-name="ccedilla" unicode="&#xe7;" horiz-adv-x="368" 
d="M243 -133c-17.333 -30.667 -44.667 -44.333 -82 -41c-22 2 -37.333 6.66699 -46 14l25 40c8.66699 -4 17.667 -6 27 -6c19.333 0 30.333 9.33301 33 28c3.33301 23.333 -12.334 40 -47.001 50l24 45c-46 11.333 -81.667 35.666 -107 72.999
c-25.333 36.667 -37.666 78.667 -36.999 126c1.33301 52 17.666 96.333 48.999 133c32.667 36.667 75.334 58 128.001 64c38 4 76 0.666992 114 -10l-9 -53c-28 7.33301 -53 11 -75 11c-23.333 0 -44.333 -3.66699 -63 -11
c-53.333 -20.667 -80.666 -66.334 -81.999 -137.001c0 -39.333 13.667 -73.666 41 -102.999c27.333 -28 61.666 -42.333 102.999 -43c24.667 0 52.667 7 84 21l17 -51c-40.667 -17.333 -79.667 -25.666 -117 -24.999l-11 -21c27.333 -14 41 -36.333 41 -67
c0 -14 -3.33301 -26.333 -10 -37z" />
    <glyph glyph-name="egrave" unicode="&#xe8;" horiz-adv-x="420" 
d="M253 469l-51 -16l-61 167l68 23zM398 197l-303 0.00292969v-4c-0.666992 -42.667 14.333 -78.334 45 -107.001c28 -26 62 -39.667 102 -41c40 -0.666992 75.667 14.666 107 45.999l29 -53c-52 -28.667 -99 -44 -141 -46c-62 -2.66699 -112.333 16.333 -151 57
c-36 39.333 -53.667 88 -53 146c0.666992 56 18.667 103 54 141c34.667 37.333 79 56.666 133 57.999c60 0.666992 105.667 -18 137 -56c28 -35.333 41.667 -82.333 41 -141zM325 250.003c-7.33301 60 -42.666 90 -105.999 90c-24.667 0 -47.334 -8 -68.001 -24
s-36 -38 -46 -66h220z" />
    <glyph glyph-name="eacute" unicode="&#xe9;" horiz-adv-x="420" 
d="M335 620l-61 -167l-51 16l44 174zM398 197l-303 0.00292969v-4c-0.666992 -42.667 14.333 -78.334 45 -107.001c28 -26 62 -39.667 102 -41c40 -0.666992 75.667 14.666 107 45.999l29 -53c-52 -28.667 -99 -44 -141 -46c-62 -2.66699 -112.333 16.333 -151 57
c-36 39.333 -53.667 88 -53 146c0.666992 56 18.667 103 54 141c34.667 37.333 79 56.666 133 57.999c60 0.666992 105.667 -18 137 -56c28 -35.333 41.667 -82.333 41 -141zM325 250.003c-7.33301 60 -42.666 90 -105.999 90c-24.667 0 -47.334 -8 -68.001 -24
s-36 -38 -46 -66h220z" />
    <glyph glyph-name="ecircumflex" unicode="&#xea;" horiz-adv-x="420" 
d="M410 500l-43 -41l-138 106c-0.666992 0 -46.667 -34.667 -138 -104l-37 39l177 124l89.5 -62zM398 197l-303 0.00292969v-4c-0.666992 -42.667 14.333 -78.334 45 -107.001c28 -26 62 -39.667 102 -41c40 -0.666992 75.667 14.666 107 45.999l29 -53
c-52 -28.667 -99 -44 -141 -46c-62 -2.66699 -112.333 16.333 -151 57c-36 39.333 -53.667 88 -53 146c0.666992 56 18.667 103 54 141c34.667 37.333 79 56.666 133 57.999c60 0.666992 105.667 -18 137 -56c28 -35.333 41.667 -82.333 41 -141zM325 250.003
c-7.33301 60 -42.666 90 -105.999 90c-24.667 0 -47.334 -8 -68.001 -24s-36 -38 -46 -66h220z" />
    <glyph glyph-name="edieresis" unicode="&#xeb;" horiz-adv-x="420" 
d="M363 504c0 -10.667 -4 -20.332 -12 -28.999s-17.667 -13 -29 -13c-12 0 -22.167 4.16699 -30.5 12.5s-12.5 18.166 -12.5 29.499s4.16699 21.333 12.5 30s18.5 13 30.5 13c10.667 0 20.167 -4.33301 28.5 -13s12.5 -18.667 12.5 -30zM187 506.002
c0 -10.667 -4.00098 -20.332 -12.001 -28.999s-18 -13 -30 -13c-11.333 0 -21.333 4.16699 -30 12.5s-13 18.166 -13 29.499c0 10.667 4.33301 20.334 13 29.001s18.667 13 30 13c10.667 0 20.334 -4.33301 29.001 -13s13 -18.334 13 -29.001zM397.999 197.004
l-303 0.00292969v-4c-0.666992 -42.667 14.333 -78.334 45 -107.001c28 -26 62 -39.667 102 -41c40 -0.666992 75.667 14.666 107 45.999l29 -53c-52 -28.667 -99 -44 -141 -46c-62 -2.66699 -112.333 16.333 -151 57c-36 39.333 -53.667 88 -53 146
c0.666992 56 18.667 103 54 141c34.667 37.333 79 56.666 133 57.999c60 0.666992 105.667 -18 137 -56c28 -35.333 41.667 -82.333 41 -141zM324.999 250.007c-7.33301 60 -42.666 90 -105.999 90c-24.667 0 -47.334 -8 -68.001 -24s-36 -38 -46 -66h220z" />
    <glyph glyph-name="igrave" unicode="&#xec;" horiz-adv-x="160" 
d="M112 469l-51 -16l-61 167l68 23zM117 -1h-66c6.66699 140.667 6.66699 270.667 0 390h66c-4 -132 -4 -262 0 -390z" />
    <glyph glyph-name="iacute" unicode="&#xed;" horiz-adv-x="160" 
d="M171 620l-61 -167l-51 16l44 174zM117 -1h-66c6.66699 140.667 6.66699 270.667 0 390h66c-4 -132 -4 -262 0 -390z" />
    <glyph glyph-name="icircumflex" unicode="&#xee;" horiz-adv-x="160" 
d="M227 500l-43 -41c-64 70.667 -96.667 106 -98 106s-34 -34.667 -98 -104l-37 39l137 124l69.5 -62zM117 -1h-66c6.66699 140.667 6.66699 270.667 0 390h66c-4 -132 -4 -262 0 -390z" />
    <glyph glyph-name="idieresis" unicode="&#xef;" horiz-adv-x="160" 
d="M215 504c0 -10.667 -4 -20.332 -12 -28.999s-17.667 -13 -29 -13c-12 0 -22.167 4.16699 -30.5 12.5s-12.5 18.166 -12.5 29.499s4.16699 21.333 12.5 30s18.5 13 30.5 13c10.667 0 20.167 -4.33301 28.5 -13s12.5 -18.667 12.5 -30zM39 506.002
c0 -10.667 -4.00098 -20.332 -12.001 -28.999s-18 -13 -30 -13c-11.333 0 -21.333 4.16699 -30 12.5s-13 18.166 -13 29.499c0 10.667 4.33301 20.334 13 29.001s18.667 13 30 13c10.667 0 20.334 -4.33301 29.001 -13s13 -18.334 13 -29.001zM116.999 -0.996094h-66
c6.66699 140.667 6.66699 270.667 0 390h66c-4 -132 -4 -262 0 -390z" />
    <glyph glyph-name="eth" unicode="&#xf0;" horiz-adv-x="489" 
d="M451 194c0 -60.667 -19.3301 -109.332 -57.9971 -145.999c-39.333 -37.333 -87 -56 -143 -56c-61.333 0 -111 20 -149 60c-36.667 37.333 -55 85.333 -55 144c0.666992 56.667 19.667 103.667 57 141c38 38 87 57 147 57c23.333 0 45.666 -3 66.999 -9
c-9.33301 14 -19.5 27.5 -30.5 40.5s-22.5 25.833 -34.5 38.5l-20 20l-21 20l-123 -64c1.33301 1.33301 -3.33398 12.333 -14.001 33l108 56c-33.333 26.667 -64.333 48.667 -93 66l40 47l10 -6c38 -24.667 71.667 -50.334 101 -77.001l122 64c2 -2 7.33301 -12.667 16 -32
l-110 -57c11.333 -10.667 22.166 -21.667 32.499 -33l30.5 -35c81.333 -98 121.333 -188.667 120 -272zM390.003 194.002c1.33301 42.667 -11.001 77.668 -37.001 105.001c-26 28 -59.667 42 -101 42s-76 -14 -104 -42c-27.333 -28 -41.333 -63 -42 -105
c0 -40.667 14 -75.334 42 -104.001c28.667 -28.667 63.334 -43 104.001 -43c20 0 38.333 3.5 55 10.5s31.167 16.833 43.5 29.5s22 28.167 29 46.5s10.5 38.5 10.5 60.5z" />
    <glyph glyph-name="ntilde" unicode="&#xf1;" horiz-adv-x="402" 
d="M370 0l-68.002 -0.000976562v57c0 19.333 0.333008 39.333 1 60v80c-0.666992 23.333 -1.83398 43.5 -3.50098 60.5s-4.16699 30.833 -7.5 41.5c-12 35.333 -34.333 53.333 -67 54c-33.333 0.666992 -63.333 -8 -90 -26c-5.33301 -5.33301 -10.666 -10.333 -15.999 -15
s-10.666 -9.66699 -15.999 -15v-297h-65c2 68.667 3 182.334 3 341.001l-1 47h61l-1 -37c40.667 35.333 85.334 53 134.001 53c46 0 79.333 -14.333 100 -43c22.667 -31.333 34 -86.333 34 -165v-118c0.666992 -24 1.16699 -43.5 1.5 -58.5s0.5 -21.5 0.5 -19.5z
M354.998 558.999c-8 -33.333 -20.1689 -57.999 -36.502 -73.999s-33.166 -24 -50.499 -24c-8 0 -19 3.5 -33 10.5s-30.667 17.833 -50 32.5c-26.667 20 -45.667 30 -57 30c-16.667 0 -30 -21 -40 -63l-41 23c10.667 34 22.834 58.667 36.501 74s27.167 23.666 40.5 24.999
c7.33301 0 17.333 -3 30 -9s28.667 -16 48 -30c16 -12 29.667 -21.667 41 -29s20 -11 26 -11c4.66699 0 9.5 2.16699 14.5 6.5s9.83301 10 14.5 17s8.5 15.167 11.5 24.5s4.83301 19.333 5.5 30c6 -3.33301 12.833 -7.83301 20.5 -13.5l19.5 -14.5v-5z" />
    <glyph glyph-name="ograve" unicode="&#xf2;" horiz-adv-x="471" 
d="M278 469l-51 -16l-61 167l68 23zM438 194c0 -60.667 -19.334 -109.333 -58.001 -146c-39.333 -37.333 -87 -56 -143 -56c-61.333 0 -111.333 20 -150 60c-37.333 38 -55.333 86 -54 144c0.666992 56.667 19.667 103.667 57 141c38 38 87 57 147 57
c60.667 0 109.334 -18.333 146.001 -55s55 -85 55 -145zM376.999 194.001c0 20.667 -3.16992 40.001 -9.50293 58.001s-15.666 33.667 -27.999 47s-27 23.666 -44 30.999s-35.833 11 -56.5 11c-42 0 -77 -14 -105 -42c-27.333 -28.667 -41 -63.667 -41 -105
c0 -40.667 14 -75.334 42 -104.001c28.667 -28.667 63.334 -43 104.001 -43c40 0 72.833 13.333 98.5 40s38.834 62.334 39.501 107.001z" />
    <glyph glyph-name="oacute" unicode="&#xf3;" horiz-adv-x="471" 
d="M326 620l-61 -167l-51 16l44 174zM438 194c0 -60.667 -19.334 -109.333 -58.001 -146c-39.333 -37.333 -87 -56 -143 -56c-61.333 0 -111.333 20 -150 60c-37.333 38 -55.333 86 -54 144c0.666992 56.667 19.667 103.667 57 141c38 38 87 57 147 57
c60.667 0 109.334 -18.333 146.001 -55s55 -85 55 -145zM376.999 194.001c0 20.667 -3.16992 40.001 -9.50293 58.001s-15.666 33.667 -27.999 47s-27 23.666 -44 30.999s-35.833 11 -56.5 11c-42 0 -77 -14 -105 -42c-27.333 -28.667 -41 -63.667 -41 -105
c0 -40.667 14 -75.334 42 -104.001c28.667 -28.667 63.334 -43 104.001 -43c40 0 72.833 13.333 98.5 40s38.834 62.334 39.501 107.001z" />
    <glyph glyph-name="ocircumflex" unicode="&#xf4;" horiz-adv-x="471" 
d="M427 500l-43 -41l-138 106c-0.666992 0 -46.667 -34.667 -138 -104l-37 39l177 124l89.5 -62zM438 194c0 -60.667 -19.334 -109.333 -58.001 -146c-39.333 -37.333 -87 -56 -143 -56c-61.333 0 -111.333 20 -150 60c-37.333 38 -55.333 86 -54 144
c0.666992 56.667 19.667 103.667 57 141c38 38 87 57 147 57c60.667 0 109.334 -18.333 146.001 -55s55 -85 55 -145zM376.999 194.001c0 20.667 -3.16992 40.001 -9.50293 58.001s-15.666 33.667 -27.999 47s-27 23.666 -44 30.999s-35.833 11 -56.5 11
c-42 0 -77 -14 -105 -42c-27.333 -28.667 -41 -63.667 -41 -105c0 -40.667 14 -75.334 42 -104.001c28.667 -28.667 63.334 -43 104.001 -43c40 0 72.833 13.333 98.5 40s38.834 62.334 39.501 107.001z" />
    <glyph glyph-name="otilde" unicode="&#xf5;" horiz-adv-x="471" 
d="M438 194c0 -60.667 -19.334 -109.333 -58.001 -146c-39.333 -37.333 -87 -56 -143 -56c-61.333 0 -111.333 20 -150 60c-37.333 38 -55.333 86 -54 144c0.666992 56.667 19.667 103.667 57 141c38 38 87 57 147 57c60.667 0 109.334 -18.333 146.001 -55s55 -85 55 -145z
M376.999 194.001c0 20.667 -3.16992 40.001 -9.50293 58.001s-15.666 33.667 -27.999 47s-27 23.666 -44 30.999s-35.833 11 -56.5 11c-42 0 -77 -14 -105 -42c-27.333 -28.667 -41 -63.667 -41 -105c0 -40.667 14 -75.334 42 -104.001
c28.667 -28.667 63.334 -43 104.001 -43c40 0 72.833 13.333 98.5 40s38.834 62.334 39.501 107.001zM385.996 559.002c-8 -33.333 -20.1689 -57.999 -36.502 -73.999s-33.166 -24 -50.499 -24c-8 0 -19 3.5 -33 10.5s-30.667 17.833 -50 32.5c-26.667 20 -45.667 30 -57 30
c-16.667 0 -30 -21 -40 -63l-41 23c10.667 34 22.834 58.667 36.501 74s27.167 23.666 40.5 24.999c7.33301 0 17.333 -3 30 -9s28.667 -16 48 -30c16 -12 29.667 -21.667 41 -29s20 -11 26 -11c4.66699 0 9.5 2.16699 14.5 6.5s9.83301 10 14.5 17s8.5 15.167 11.5 24.5
s4.83301 19.333 5.5 30c6 -3.33301 12.833 -7.83301 20.5 -13.5l19.5 -14.5v-5z" />
    <glyph glyph-name="odieresis" unicode="&#xf6;" horiz-adv-x="471" 
d="M371 504c0 -10.667 -4 -20.332 -12 -28.999s-17.667 -13 -29 -13c-12 0 -22.167 4.16699 -30.5 12.5s-12.5 18.166 -12.5 29.499s4.16699 21.333 12.5 30s18.5 13 30.5 13c10.667 0 20.167 -4.33301 28.5 -13s12.5 -18.667 12.5 -30zM195 506.002
c0 -10.667 -4.00098 -20.332 -12.001 -28.999s-18 -13 -30 -13c-11.333 0 -21.333 4.16699 -30 12.5s-13 18.166 -13 29.499c0 10.667 4.33301 20.334 13 29.001s18.667 13 30 13c10.667 0 20.334 -4.33301 29.001 -13s13 -18.334 13 -29.001zM437.999 194.004
c0 -60.667 -19.334 -109.333 -58.001 -146c-39.333 -37.333 -87 -56 -143 -56c-61.333 0 -111.333 20 -150 60c-37.333 38 -55.333 86 -54 144c0.666992 56.667 19.667 103.667 57 141c38 38 87 57 147 57c60.667 0 109.334 -18.333 146.001 -55s55 -85 55 -145z
M376.998 194.005c0 20.667 -3.16992 40.001 -9.50293 58.001s-15.666 33.667 -27.999 47s-27 23.666 -44 30.999s-35.833 11 -56.5 11c-42 0 -77 -14 -105 -42c-27.333 -28.667 -41 -63.667 -41 -105c0 -40.667 14 -75.334 42 -104.001
c28.667 -28.667 63.334 -43 104.001 -43c40 0 72.833 13.333 98.5 40s38.834 62.334 39.501 107.001z" />
    <glyph glyph-name="divide" unicode="&#xf7;" horiz-adv-x="594" 
d="M355 444c0 -15.333 -5.83301 -28.5 -17.5 -39.5s-25.167 -16.5 -40.5 -16.5c-14.667 0 -27.667 5.66699 -39 17s-17 24.333 -17 39c0 15.333 5.66699 28.833 17 40.5s24.333 17.5 39 17.5c15.333 0 28.833 -5.83301 40.5 -17.5s17.5 -25.167 17.5 -40.5zM543 228h-494v55
h494v-55zM355 67c0 -16 -5.66699 -29.499 -17 -40.499s-25 -16.5 -41 -16.5c-14.667 0 -27.667 5.66699 -39 17s-17 24.666 -17 39.999c0 14.667 5.66699 27.667 17 39s24.333 17 39 17c15.333 0 28.833 -5.66699 40.5 -17s17.5 -24.333 17.5 -39z" />
    <glyph glyph-name="oslash" unicode="&#xf8;" horiz-adv-x="450" 
d="M428 194c0 -60.667 -19.334 -109.335 -58.001 -146.002c-39.333 -37.333 -87 -56 -143 -56c-12.667 0 -25 1 -37 3l-30 -94h-54l35 107c-38 16 -67.333 40.667 -88 74s-30.667 71.333 -30 114c0.666992 56.667 19.667 103.667 57 141c38 38 87 57 147 57
c13.333 0 26 -1 38 -3l16 47c-0.666992 0 -1 0.333008 -1 1l12 36h54l-10 -29c0.666992 0 1 -0.333008 1 -1c-1.33301 -2.66699 -3.66602 -9.66699 -6.99902 -21s-8.33301 -26.666 -15 -45.999c75.333 -31.333 113 -92.666 113 -183.999zM366.999 193.999
c0.666992 60 -22.334 103.332 -69.001 129.999l-90 -275c3.33301 -0.666992 6.83301 -1.16699 10.5 -1.5s7.16699 -0.5 10.5 -0.5c40 0 72.833 13.333 98.5 40s38.834 62.334 39.501 107.001zM248.998 339.998c-3.33301 0.666992 -6.66602 1 -9.99902 1h-10
c-42 0 -77 -14 -105 -42c-27.333 -28.667 -41 -63.667 -41 -105c-0.666992 -57.333 24.666 -100.333 75.999 -129z" />
    <glyph glyph-name="ugrave" unicode="&#xf9;" horiz-adv-x="430" 
d="M244 459l-51 -16l-61 167l68 23zM420 29c-49.333 -29.333 -82.667 -42.001 -100 -38.001c-10 2 -15.667 19.667 -17 53c-40.667 -35.333 -85.334 -53 -134.001 -53c-46.667 0 -80 14.333 -100 43c-22.667 31.333 -34 86.333 -34 165v61
c0 19.333 0.333008 37.666 1 54.999v31.5c0 9.66699 0.333008 18.167 1 25.5c0.666992 6.66699 1 11.334 1 14.001s0 3.33398 0 2.00098h68l-2 -54c-0.666992 -18.667 -1.66699 -38.667 -3 -60c-0.666992 -13.333 -1.16699 -26.333 -1.5 -39s-0.166016 -25 0.500977 -37
c0.666992 -23.333 1.83398 -43.5 3.50098 -60.5s4.16699 -30.833 7.5 -41.5c12 -35.333 34.333 -53.333 67 -54c34 -0.666992 63.667 8 89 26l33 30c0.666992 30 1.66699 87 3 171l1.5 87.5c0.333008 19.667 0.5 30.167 0.5 31.5h65
c-1.33301 -34.667 -2.33301 -79.5 -3 -134.5s-1 -120.833 -1 -197.5c1.33301 -1.33301 2.33301 -2 3 -2c2 0 4.66699 0.833008 8 2.5s6.66602 3.5 9.99902 5.5s6.5 4 9.5 6s5.16699 3 6.5 3c1.33301 -2 3.33301 -6.5 6 -13.5z" />
    <glyph glyph-name="uacute" unicode="&#xfa;" horiz-adv-x="430" 
d="M298 620l-61 -167l-51 16l44 174zM420 29c-49.333 -29.333 -82.667 -42.001 -100 -38.001c-10 2 -15.667 19.667 -17 53c-40.667 -35.333 -85.334 -53 -134.001 -53c-46.667 0 -80 14.333 -100 43c-22.667 31.333 -34 86.333 -34 165v61
c0 19.333 0.333008 37.666 1 54.999v31.5c0 9.66699 0.333008 18.167 1 25.5c0.666992 6.66699 1 11.334 1 14.001s0 3.33398 0 2.00098h68l-2 -54c-0.666992 -18.667 -1.66699 -38.667 -3 -60c-0.666992 -13.333 -1.16699 -26.333 -1.5 -39s-0.166016 -25 0.500977 -37
c0.666992 -23.333 1.83398 -43.5 3.50098 -60.5s4.16699 -30.833 7.5 -41.5c12 -35.333 34.333 -53.333 67 -54c34 -0.666992 63.667 8 89 26l33 30c0.666992 30 1.66699 87 3 171l1.5 87.5c0.333008 19.667 0.5 30.167 0.5 31.5h65
c-1.33301 -34.667 -2.33301 -79.5 -3 -134.5s-1 -120.833 -1 -197.5c1.33301 -1.33301 2.33301 -2 3 -2c2 0 4.66699 0.833008 8 2.5s6.66602 3.5 9.99902 5.5s6.5 4 9.5 6s5.16699 3 6.5 3c1.33301 -2 3.33301 -6.5 6 -13.5z" />
    <glyph glyph-name="ucircumflex" unicode="&#xfb;" horiz-adv-x="430" 
d="M397 500l-43 -41l-138 106c-0.666992 0 -46.667 -34.667 -138 -104l-37 39l177 124l89.5 -62zM420 29c-49.333 -29.333 -82.667 -42.001 -100 -38.001c-10 2 -15.667 19.667 -17 53c-40.667 -35.333 -85.334 -53 -134.001 -53c-46.667 0 -80 14.333 -100 43
c-22.667 31.333 -34 86.333 -34 165v61c0 19.333 0.333008 37.666 1 54.999v31.5c0 9.66699 0.333008 18.167 1 25.5c0.666992 6.66699 1 11.334 1 14.001s0 3.33398 0 2.00098h68l-2 -54c-0.666992 -18.667 -1.66699 -38.667 -3 -60
c-0.666992 -13.333 -1.16699 -26.333 -1.5 -39s-0.166016 -25 0.500977 -37c0.666992 -23.333 1.83398 -43.5 3.50098 -60.5s4.16699 -30.833 7.5 -41.5c12 -35.333 34.333 -53.333 67 -54c34 -0.666992 63.667 8 89 26l33 30c0.666992 30 1.66699 87 3 171l1.5 87.5
c0.333008 19.667 0.5 30.167 0.5 31.5h65c-1.33301 -34.667 -2.33301 -79.5 -3 -134.5s-1 -120.833 -1 -197.5c1.33301 -1.33301 2.33301 -2 3 -2c2 0 4.66699 0.833008 8 2.5s6.66602 3.5 9.99902 5.5s6.5 4 9.5 6s5.16699 3 6.5 3c1.33301 -2 3.33301 -6.5 6 -13.5z" />
    <glyph glyph-name="udieresis" unicode="&#xfc;" horiz-adv-x="430" 
d="M337 504c0 -10.667 -4 -20.332 -12 -28.999s-17.667 -13 -29 -13c-12 0 -22.167 4.16699 -30.5 12.5s-12.5 18.166 -12.5 29.499s4.16699 21.333 12.5 30s18.5 13 30.5 13c10.667 0 20.167 -4.33301 28.5 -13s12.5 -18.667 12.5 -30zM161 506.002
c0 -10.667 -4.00098 -20.332 -12.001 -28.999s-18 -13 -30 -13c-11.333 0 -21.333 4.16699 -30 12.5s-13 18.166 -13 29.499c0 10.667 4.33301 20.334 13 29.001s18.667 13 30 13c10.667 0 20.334 -4.33301 29.001 -13s13 -18.334 13 -29.001zM419.999 29.0039
c-49.333 -29.333 -82.667 -42.001 -100 -38.001c-10 2 -15.667 19.667 -17 53c-40.667 -35.333 -85.334 -53 -134.001 -53c-46.667 0 -80 14.333 -100 43c-22.667 31.333 -34 86.333 -34 165v61c0 19.333 0.333008 37.666 1 54.999v31.5c0 9.66699 0.333008 18.167 1 25.5
c0.666992 6.66699 1 11.334 1 14.001s0 3.33398 0 2.00098h68l-2 -54c-0.666992 -18.667 -1.66699 -38.667 -3 -60c-0.666992 -13.333 -1.16699 -26.333 -1.5 -39s-0.166016 -25 0.500977 -37c0.666992 -23.333 1.83398 -43.5 3.50098 -60.5s4.16699 -30.833 7.5 -41.5
c12 -35.333 34.333 -53.333 67 -54c34 -0.666992 63.667 8 89 26l33 30c0.666992 30 1.66699 87 3 171l1.5 87.5c0.333008 19.667 0.5 30.167 0.5 31.5h65c-1.33301 -34.667 -2.33301 -79.5 -3 -134.5s-1 -120.833 -1 -197.5c1.33301 -1.33301 2.33301 -2 3 -2
c2 0 4.66699 0.833008 8 2.5s6.66602 3.5 9.99902 5.5s6.5 4 9.5 6s5.16699 3 6.5 3c1.33301 -2 3.33301 -6.5 6 -13.5z" />
    <glyph glyph-name="yacute" unicode="&#xfd;" horiz-adv-x="470" 
d="M416 386l-120.996 -301.998c-31.333 -77.333 -54.333 -130.333 -69 -159c-40.667 -80.667 -78.334 -126.334 -113.001 -137.001c-20.667 -6.66699 -42.667 -10 -66 -10c-42.667 0 -75.334 10 -98.001 30l20 49c19.333 -18.667 45 -28 77 -28c10 0 21 1.66699 33 5
c24.667 6.66699 49.667 29.667 75 69c21.333 31.333 38 65 50 101l-88 192l-88 191h73l52 -119.5l81 -191.5c23.333 56.667 44.166 110.667 62.499 162s34.166 100.666 47.499 147.999c46.667 0.666992 70.667 0.666992 72 0zM321.004 610.002l-61 -167l-51 16l45 174z" />
    <glyph glyph-name="thorn" unicode="&#xfe;" horiz-adv-x="426" 
d="M414 195c0 -61.333 -18.332 -110.664 -54.999 -147.997c-37.333 -37.333 -86 -56 -146 -56c-48 0 -84 15 -108 45c0 -64 0.5 -117.333 1.5 -160s2.16699 -75.334 3.5 -98.001h-68c1.33301 30 2.5 80.667 3.5 152s1.5 164.666 1.5 279.999c0 180.667 -2 310.667 -6 390h68
c-0.666992 -9.33301 -1.33398 -25 -2.00098 -47s-1.33398 -50.333 -2.00098 -85c-2 -73.333 -2 -111.333 0 -114c4.66699 6.66699 11.334 12.667 20.001 18s18.167 9.83301 28.5 13.5s20.833 6.5 31.5 8.5s20 3 28 3c56 0 103.667 -18.667 143 -56
c38.667 -36.667 58 -85.334 58 -146.001zM353.001 195.002c-0.666992 44.667 -13.835 80.332 -39.502 106.999s-58.5 40 -98.5 40c-43.333 0 -79.333 -16 -108 -48c-1.33301 -45.333 -2.16602 -84.666 -2.49902 -117.999s-0.166016 -61.333 0.500977 -84
c28 -32 64.667 -48 110 -48c40.667 0 74 14.667 100 44s38.667 65 38 107z" />
    <glyph glyph-name="ydieresis" unicode="&#xff;" horiz-adv-x="470" 
d="M416 386l-120.996 -301.998c-31.333 -77.333 -54.333 -130.333 -69 -159c-40.667 -80.667 -78.334 -126.334 -113.001 -137.001c-20.667 -6.66699 -42.667 -10 -66 -10c-42.667 0 -75.334 10 -98.001 30l20 49c19.333 -18.667 45 -28 77 -28c10 0 21 1.66699 33 5
c24.667 6.66699 49.667 29.667 75 69c21.333 31.333 38 65 50 101l-88 192l-88 191h73l52 -119.5l81 -191.5c23.333 56.667 44.166 110.667 62.499 162s34.166 100.666 47.499 147.999c46.667 0.666992 70.667 0.666992 72 0zM380.004 501.002
c0 -10.667 -4 -20.332 -12 -28.999s-17.667 -13 -29 -13s-21.333 4.16699 -30 12.5s-13 18.166 -13 29.499s4.33301 21.333 13 30s18.667 13 30 13c10.667 0 20.167 -4.5 28.5 -13.5s12.5 -18.833 12.5 -29.5zM204.004 503.004c0 -11.333 -3.99902 -21.166 -11.999 -29.499
s-18 -12.5 -30 -12.5c-11.333 0 -21.333 4.16699 -30 12.5s-13 18.166 -13 29.499c0 10.667 4.33301 20.334 13 29.001s18.667 13 30 13s21.166 -4.33301 29.499 -13s12.5 -18.334 12.5 -29.001z" />
    <glyph glyph-name="Amacron" unicode="&#x100;" horiz-adv-x="670" 
d="M587 0l-91.001 0.00195312c-4.66699 21.333 -27.667 89.666 -69 204.999h-251c-42.667 -108.667 -67 -177 -73 -205h-80c32.667 64.667 115.667 275.667 249 633h71l58.5 -158.5l51.5 -136.5c74.667 -200.667 119.334 -313.334 134.001 -338.001zM405.999 266.002
l-52.5 154.001l-46.5 147c-9.33301 -28.667 -23 -67.834 -41 -117.501l-69 -183.5h209zM465.999 681.003h-316v50h316v-50z" />
    <glyph glyph-name="amacron" unicode="&#x101;" horiz-adv-x="430" 
d="M272 288c-0.666992 44.667 -25.3311 65.6689 -73.998 63.002c-12 -0.666992 -24.833 -3.16699 -38.5 -7.5s-26.667 -9.83301 -39 -16.5s-24 -14.334 -35 -23.001s-19.833 -17.667 -26.5 -27v60c34.667 40.667 81.667 61.667 141 63c38 0.666992 68.667 -8 92 -26
c27.333 -21.333 41 -53 41 -95v-206c0 -15.333 5.66699 -23 17 -23c4 0 19.667 10 47 30v-54c-22 -23.333 -41.333 -35 -58 -35c-34.667 0 -56 16.333 -64 49c-30.667 -32 -72.334 -48.667 -125.001 -50c-16 0 -30.667 2.83301 -44 8.5s-25 13.5 -35 23.5
s-17.667 21.667 -23 35s-8 27.666 -8 42.999c0 33.333 11.333 61 34 83c21.333 20 49.666 32.667 84.999 38c13.333 1.33301 29.333 3.5 48 6.5l65 10.5v50zM275.003 90.002l-0.000976562 96l-40.5 -5.5l-60.5 -8.5c-22 -3.33301 -40.167 -11 -54.5 -23
s-21.5 -25.667 -21.5 -41c0 -18.667 5.83301 -34.167 17.5 -46.5s26.834 -18.5 45.501 -18.5c14 0 33.667 5 59 15c26 11.333 44.333 22 55 32zM357.002 463.002h-308l1 48h307v-48z" />
    <glyph glyph-name="Abreve" unicode="&#x102;" horiz-adv-x="668" 
d="M587 0l-91.001 0.00195312c-4.66699 21.333 -27.667 89.666 -69 204.999h-251c-42.667 -108.667 -67 -177 -73 -205h-80c32.667 64.667 115.667 275.667 249 633h71l58.5 -158.5l51.5 -136.5c74.667 -200.667 119.334 -313.334 134.001 -338.001zM405.999 266.002
l-52.5 154.001l-46.5 147c-9.33301 -28.667 -23 -67.834 -41 -117.501l-69 -183.5h209zM466.999 790.003c-20.667 -34 -44 -59.667 -70 -77s-54.667 -26 -86 -26c-32 0 -60.667 8.66699 -86 26s-50 43 -74 77l33 19c41.333 -57.333 83.333 -86 126 -86
c44 0 86.667 28.667 128 86z" />
    <glyph glyph-name="abreve" unicode="&#x103;" horiz-adv-x="430" 
d="M272 288c-0.666992 44.667 -25.3311 65.6689 -73.998 63.002c-12 -0.666992 -24.833 -3.16699 -38.5 -7.5s-26.667 -9.83301 -39 -16.5s-24 -14.334 -35 -23.001s-19.833 -17.667 -26.5 -27v60c34.667 40.667 81.667 61.667 141 63c38 0.666992 68.667 -8 92 -26
c27.333 -21.333 41 -53 41 -95v-206c0 -15.333 5.66699 -23 17 -23c4 0 19.667 10 47 30v-54c-22 -23.333 -41.333 -35 -58 -35c-34.667 0 -56 16.333 -64 49c-30.667 -32 -72.334 -48.667 -125.001 -50c-16 0 -30.667 2.83301 -44 8.5s-25 13.5 -35 23.5
s-17.667 21.667 -23 35s-8 27.666 -8 42.999c0 33.333 11.333 61 34 83c21.333 20 49.666 32.667 84.999 38c13.333 1.33301 29.333 3.5 48 6.5l65 10.5v50zM275.003 90.002l-0.000976562 96l-40.5 -5.5l-60.5 -8.5c-22 -3.33301 -40.167 -11 -54.5 -23
s-21.5 -25.667 -21.5 -41c0 -18.667 5.83301 -34.167 17.5 -46.5s26.834 -18.5 45.501 -18.5c14 0 33.667 5 59 15c26 11.333 44.333 22 55 32zM374.002 570.002c-20.667 -34 -44 -59.667 -70 -77s-54.667 -26 -86 -26c-32 0 -60.667 8.66699 -86 26s-50 43 -74 77l33 19
c41.333 -57.333 83.333 -86 126 -86c44 0 86.667 28.667 128 86z" />
    <glyph glyph-name="Aogonek" unicode="&#x104;" horiz-adv-x="613" 
d="M619 -196c-22 -17.333 -53.998 -25.668 -95.998 -25.001c-28.667 0 -51.834 8.33301 -69.501 25s-25.834 37.334 -24.501 62.001c2 48.667 23.667 95.667 65 141c-3.33301 12.667 -10.5 35.334 -21.5 68.001l-45.5 130h-251c-42.667 -108.667 -67 -177 -73 -205h-80
c32.667 64.667 115.667 275.667 249 633h71l58.5 -158.5l51.5 -136.5c74.667 -200.667 119.334 -313.334 134.001 -338.001h-30c-10.667 -12.667 -21.334 -27 -32.001 -43s-21.667 -34 -33 -54c-4 -7.33301 -6 -14.333 -6 -21c0 -11.333 4 -20.833 12 -28.5
s18.667 -11.5 32 -11.5c26 0 48.333 7.33301 67 22zM406.002 265.998l-52.5 154.001l-46.5 147c-9.33301 -28.667 -23 -67.834 -41 -117.501l-69 -183.5h209z" />
    <glyph glyph-name="aogonek" unicode="&#x105;" horiz-adv-x="410" 
d="M409 -196c-20.667 -17.333 -52.6641 -25.6709 -95.9971 -25.0039c-28.667 0 -51.667 8.33301 -69 25s-25.666 37.334 -24.999 62.001c2 46.667 23 92.667 63 138c-7.33301 7.33301 -13 18.333 -17 33c-40.667 -32.667 -82.334 -49 -125.001 -49
c-32.667 0 -59.334 11.333 -80.001 34c-20 20.667 -30 46 -30 76c0 39.333 16.333 71 49 95c9.33301 6.66699 22.666 13.834 39.999 21.501s38.666 15.834 63.999 24.501l79 28v18c0 45.333 -24.667 66.333 -74 63c-12 -0.666992 -24.667 -3.16699 -38 -7.5
s-26.333 -9.83301 -39 -16.5s-24.334 -14.334 -35.001 -23.001s-19.667 -17.667 -27 -27v60c34.667 40.667 81.667 61.667 141 63c38.667 0.666992 69.334 -7.66602 92.001 -24.999c27.333 -21.333 41 -53.333 41 -96v-206c0 -15.333 5.66699 -23 17 -23
c4 0 19.667 10 47 30v-54c-16 -17.333 -32 -28.333 -48 -33c-19.333 -23.333 -38.333 -52.333 -57 -87c-3.33301 -8 -5 -15.333 -5 -22c0 -11.333 4 -21.166 12 -29.499s18.667 -12.5 32 -12.5c25.333 0 47.333 7.33301 66 22zM262.003 87.9951l-0.000976562 129.999
c-54 -18.667 -92.333 -33.667 -115 -45c-39.333 -21.333 -59 -43.666 -59 -66.999c0 -18.667 5.83301 -34.167 17.5 -46.5s26.834 -18.5 45.501 -18.5c14 0 33 5 57 15c23.333 10 41.333 20.667 54 32z" />
    <glyph glyph-name="Cacute" unicode="&#x106;" horiz-adv-x="533" 
d="M479 106c-2.66699 -22.667 -4.5 -41.668 -5.5 -57.001s-1.5 -27.333 -1.5 -36c-4 0.666992 -21.333 -2.66602 -52 -9.99902c-32 -8.66699 -64 -13 -96 -13c-83.333 0 -151.333 33 -204 99c-50.667 61.333 -76 134.333 -76 219c0 92 24 168 72 228
c52 65.333 122.333 98 211 98c27.333 0 56.333 -3.66699 87 -11c30 -6.66699 47.333 -9.66699 52 -9c0 -8.66699 0.666992 -20.834 2 -36.501s3.33301 -35.167 6 -58.5h-47c-1.33301 9.33301 -5.33301 21 -12 35c-16.667 14.667 -47 21.667 -91 21
c-66 -2 -118.667 -30 -158 -84c-35.333 -50.667 -53 -112 -53 -184c0 -67.333 19.667 -126.333 59 -177c42.667 -54 96.667 -81 162 -81c40 0 67.333 7.33301 82 22c6.66699 6.66699 12 18.334 16 35.001h47zM404 847.999l-80 -161l-51 16l56 170z" />
    <glyph glyph-name="cacute" unicode="&#x107;" horiz-adv-x="370" 
d="M340 17c-8.66699 -3.33301 -16.168 -6.5 -22.501 -9.5s-12.166 -5.16699 -17.499 -6.5c-18 -5.33301 -39 -8.33301 -63 -9c-62 -2.66699 -112.333 16.333 -151 57c-36 39.333 -53.667 88.333 -53 147c1.33301 52 17.666 96.333 48.999 133
c32.667 36.667 75.334 58 128.001 64c38 4 76 0.666992 114 -10l-9 -53c-28 7.33301 -53 11 -75 11c-23.333 0 -44.333 -3.66699 -63 -11c-53.333 -20.667 -80.666 -66.334 -81.999 -137.001c0 -39.333 13.667 -73.666 41 -102.999c27.333 -28 61.666 -42.333 102.999 -43
c24.667 0 52.667 7 84 21zM292.999 613l-61 -167l-51 16l45 174z" />
    <glyph glyph-name="Ccircumflex" unicode="&#x108;" horiz-adv-x="533" 
d="M479 106c-2.66699 -22.667 -4.5 -41.668 -5.5 -57.001s-1.5 -27.333 -1.5 -36c-4 0.666992 -21.333 -2.66602 -52 -9.99902c-32 -8.66699 -64 -13 -96 -13c-83.333 0 -151.333 33 -204 99c-50.667 61.333 -76 134.333 -76 219c0 92 24 168 72 228
c52 65.333 122.333 98 211 98c27.333 0 56.333 -3.66699 87 -11c30 -6.66699 47.333 -9.66699 52 -9c0 -8.66699 0.666992 -20.834 2 -36.501s3.33301 -35.167 6 -58.5h-47c-1.33301 9.33301 -5.33301 21 -12 35c-16.667 14.667 -47 21.667 -91 21
c-66 -2 -118.667 -30 -158 -84c-35.333 -50.667 -53 -112 -53 -184c0 -67.333 19.667 -126.333 59 -177c42.667 -54 96.667 -81 162 -81c40 0 67.333 7.33301 82 22c6.66699 6.66699 12 18.334 16 35.001h47zM496 728.999l-43 -41l-138 106
c-0.666992 0 -46.667 -34.667 -138 -104l-37 39l177 124l89.5 -62z" />
    <glyph glyph-name="ccircumflex" unicode="&#x109;" horiz-adv-x="370" 
d="M340 17c-8.66699 -3.33301 -16.168 -6.5 -22.501 -9.5s-12.166 -5.16699 -17.499 -6.5c-18 -5.33301 -39 -8.33301 -63 -9c-62 -2.66699 -112.333 16.333 -151 57c-36 39.333 -53.667 88.333 -53 147c1.33301 52 17.666 96.333 48.999 133
c32.667 36.667 75.334 58 128.001 64c38 4 76 0.666992 114 -10l-9 -53c-28 7.33301 -53 11 -75 11c-23.333 0 -44.333 -3.66699 -63 -11c-53.333 -20.667 -80.666 -66.334 -81.999 -137.001c0 -39.333 13.667 -73.666 41 -102.999c27.333 -28 61.666 -42.333 102.999 -43
c24.667 0 52.667 7 84 21zM380.999 496l-43 -41l-138 106c-0.666992 0 -46.667 -34.667 -138 -104l-37 39l177 124l89.5 -62z" />
    <glyph glyph-name="Cdotaccent" unicode="&#x10a;" horiz-adv-x="533" 
d="M478 108c-2.66699 -22.667 -4.5 -41.668 -5.5 -57.001s-1.5 -27.333 -1.5 -36c-4 0.666992 -21.333 -2.66602 -52 -9.99902c-32 -8.66699 -64 -13 -96 -13c-83.333 0 -151.333 33 -204 99c-50.667 61.333 -76 134.333 -76 219c0 92 24 168 72 228
c52 65.333 122.333 98 211 98c27.333 0 56.333 -3.66699 87 -11c30 -6.66699 47.333 -9.66699 52 -9c0 -8.66699 0.666992 -20.834 2 -36.501s3.33301 -35.167 6 -58.5h-47c-1.33301 9.33301 -5.33301 21 -12 35c-16.667 14.667 -47 21.667 -91 21
c-66 -2 -118.667 -30 -158 -84c-35.333 -50.667 -53 -112 -53 -184c0 -67.333 19.667 -126.333 59 -177c42.667 -54 96.667 -81 162 -81c40 0 67.333 7.33301 82 22c6.66699 6.66699 12 18.334 16 35.001h47zM373 742.999c0 -15.333 -5.33301 -28.333 -16 -39
s-23.667 -16 -39 -16s-28.333 5.33301 -39 16s-16 23.667 -16 39s5.33301 28.333 16 39s23.667 16 39 16s28.333 -5.33301 39 -16s16 -23.667 16 -39z" />
    <glyph glyph-name="cdotaccent" unicode="&#x10b;" horiz-adv-x="370" 
d="M340 17c-8.66699 -3.33301 -16.168 -6.5 -22.501 -9.5s-12.166 -5.16699 -17.499 -6.5c-18 -5.33301 -39 -8.33301 -63 -9c-62 -2.66699 -112.333 16.333 -151 57c-36 39.333 -53.667 88.333 -53 147c1.33301 52 17.666 96.333 48.999 133
c32.667 36.667 75.334 58 128.001 64c38 4 76 0.666992 114 -10l-9 -53c-28 7.33301 -53 11 -75 11c-23.333 0 -44.333 -3.66699 -63 -11c-53.333 -20.667 -80.666 -66.334 -81.999 -137.001c0 -39.333 13.667 -73.666 41 -102.999c27.333 -28 61.666 -42.333 102.999 -43
c24.667 0 52.667 7 84 21zM252.999 514c0 -32.667 -15.332 -48.999 -45.999 -48.999s-46.334 15.333 -47.001 46c-0.666992 13.333 3.5 24.666 12.5 33.999s20.5 14 34.5 14c13.333 0 24.333 -4.5 33 -13.5s13 -19.5 13 -31.5z" />
    <glyph glyph-name="Ccaron" unicode="&#x10c;" horiz-adv-x="533" 
d="M479 106c-2.66699 -22.667 -4.5 -41.668 -5.5 -57.001s-1.5 -27.333 -1.5 -36c-4 0.666992 -21.333 -2.66602 -52 -9.99902c-32 -8.66699 -64 -13 -96 -13c-83.333 0 -151.333 33 -204 99c-50.667 61.333 -76 134.333 -76 219c0 92 24 168 72 228
c52 65.333 122.333 98 211 98c27.333 0 56.333 -3.66699 87 -11c30 -6.66699 47.333 -9.66699 52 -9c0 -8.66699 0.666992 -20.834 2 -36.501s3.33301 -35.167 6 -58.5h-47c-1.33301 9.33301 -5.33301 21 -12 35c-16.667 14.667 -47 21.667 -91 21
c-66 -2 -118.667 -30 -158 -84c-35.333 -50.667 -53 -112 -53 -184c0 -67.333 19.667 -126.333 59 -177c42.667 -54 96.667 -81 162 -81c40 0 67.333 7.33301 82 22c6.66699 6.66699 12 18.334 16 35.001h47zM481 811.999l-89.5 -62l-89.5 -62l-177 124l37 39
c91.333 -69.333 137.333 -104 138 -104l138 106z" />
    <glyph glyph-name="ccaron" unicode="&#x10d;" horiz-adv-x="370" 
d="M340 17c-8.66699 -3.33301 -16.168 -6.5 -22.501 -9.5s-12.166 -5.16699 -17.499 -6.5c-18 -5.33301 -39 -8.33301 -63 -9c-62 -2.66699 -112.333 16.333 -151 57c-36 39.333 -53.667 88.333 -53 147c1.33301 52 17.666 96.333 48.999 133
c32.667 36.667 75.334 58 128.001 64c38 4 76 0.666992 114 -10l-9 -53c-28 7.33301 -53 11 -75 11c-23.333 0 -44.333 -3.66699 -63 -11c-53.333 -20.667 -80.666 -66.334 -81.999 -137.001c0 -39.333 13.667 -73.666 41 -102.999c27.333 -28 61.666 -42.333 102.999 -43
c24.667 0 52.667 7 84 21zM345.999 582l-11 -13l-29 -33.5l-40 -45.5l-44 -50h-25l-129 137l40 36l100 -124l8 10.5l21 27.5l30 40l35 49z" />
    <glyph glyph-name="Dcaron" unicode="&#x10e;" horiz-adv-x="610" 
d="M529 303c0 -88.667 -29 -161.334 -87 -218.001c-56.667 -56.667 -129.667 -85 -219 -85h-184c4.66699 18 7.66699 43 9 75c2 32 3 111 3 237v134.5c0 35.667 -0.333008 62.834 -1 81.501s-1.83398 35.667 -3.50098 51s-4.16699 29.333 -7.5 42h191
c96.667 0 171.334 -29.333 224.001 -88c50 -56 75 -132.667 75 -230zM455 303c0 165.333 -77 247.999 -231 247.999h-107v-115c-0.666992 -25.333 -1 -47.666 -1 -66.999v-48c0 -54 1 -139.333 3 -256h103c69.333 0 125.333 22.333 168 67c43.333 45.333 65 102.333 65 171z
M403 811.999l-89.5 -62l-89.5 -62l-177 124l37 39c91.333 -69.333 137.333 -104 138 -104l138 106z" />
    <glyph glyph-name="dcaron" unicode="&#x10f;" horiz-adv-x="594" 
d="M411 600c-1.33301 -22.667 -2.5 -51.498 -3.5 -86.498s-1.5 -76.833 -1.5 -125.5v-39v-52c0 -20 0.333008 -43.333 1 -70c0.666992 -31.333 1.16699 -58.833 1.5 -82.5s0.5 -43.834 0.5 -60.501v-58c0.666992 -9.33301 1 -16.333 1 -21s0 -6.33398 0 -5.00098h-65l2 42
c-27.333 -33.333 -64 -50 -110 -50c-61.333 0 -111.333 20 -150 60c-37.333 38 -55.333 86 -54 144c0.666992 56.667 19.667 103.667 57 141c38 38 87 57 147 57c54.667 0 91.667 -15.667 111 -47l1 40c2.66699 86.667 0.666992 157.667 -6 213h68zM239 341.002
c-42 0 -77.001 -13.999 -105.001 -41.999c-27.333 -28.667 -41 -63.667 -41 -105c0 -40.667 14 -75.334 42 -104.001c28.667 -28.667 63.334 -43 104.001 -43c46 0 82 17.333 108 52c0.666992 31.333 1.16699 62.5 1.5 93.5s0.5 62.5 0.5 94.5c-27.333 36 -64 54 -110 54z
M591.999 604.003l-61 -167l-51 16l44 174z" />
    <glyph glyph-name="Dmacron" unicode="&#x110;" horiz-adv-x="609" 
d="M567 303c0 -88.667 -29 -161.333 -87 -218c-56.667 -56.667 -129.667 -85 -219 -85h-184c4.66699 18 7.66699 43 9 75c2 32 3 104.333 3 217h-91v48h91v113.5c0 31 -0.333008 55.833 -1 74.5s-1.83398 35.667 -3.50098 51s-4.16699 29.333 -7.5 42h191
c96.667 0 171.334 -29.333 224.001 -88c50 -56 75 -132.667 75 -230zM493 303.001c0 165.333 -77 248 -231 248h-107v-127.5c0 -35 -0.333008 -62.833 -1 -83.5h159v-48h-159c0 -35.333 1 -111 3 -227h103c69.333 0 125.333 22.333 168 67c43.333 45.333 65 102.333 65 171z
" />
    <glyph glyph-name="dcroat" unicode="&#x111;" horiz-adv-x="471" 
d="M481 474l-75.001 0.00390625v-125v-52c0 -20 0.333008 -43.333 1 -70c0.666992 -31.333 1.16699 -58.833 1.5 -82.5s0.5 -43.834 0.5 -60.501v-58c0.666992 -9.33301 1 -16.333 1 -21s0 -6.33398 0 -5.00098h-65l2 42c-27.333 -33.333 -64 -50 -110 -50
c-61.333 0 -111.333 20 -150 60c-37.333 38 -55.333 86 -54 144c0.666992 56.667 19.667 103.667 57 141c38 38 87 57 147 57c54.667 0 91.667 -15.667 111 -47l1 40c0.666992 21.333 1.16699 39.166 1.5 53.499s0.5 25.5 0.5 33.5h-83v48h82
c-0.666992 12 -1.66699 24.5 -3 37.5l-4 39.5h68c-1.33301 -15.333 -2.16602 -29.333 -2.49902 -42s-0.833008 -24.334 -1.5 -35.001h74v-48zM348.999 287.004c-27.333 36 -64.001 54.001 -110.001 54.001c-42 0 -77 -14 -105 -42c-27.333 -28.667 -41 -63.667 -41 -105
c0 -40.667 14 -75.334 42 -104.001c28.667 -28.667 63.334 -43 104.001 -43c46 0 82 17.333 108 52c0.666992 31.333 1.16699 62.5 1.5 93.5s0.5 62.5 0.5 94.5z" />
    <glyph glyph-name="Emacron" unicode="&#x112;" horiz-adv-x="525" 
d="M485 -5c-42.667 2 -81.001 3.5 -115.001 4.5s-64.333 1.16699 -91 0.5c-20.667 -0.666992 -47.834 -1.5 -81.501 -2.5l-120.5 -3.5c6.66699 22 10 132 10 330c0 179.333 -3.33301 280 -10 302c44.667 -2.66699 103.334 -4.66699 176.001 -6
c26.667 -0.666992 57.167 -0.5 91.5 0.5s72.833 2.5 115.5 4.5c-3.33301 -23.333 -3.33301 -55.333 0 -96h-50l-2 16c0 2 -2 5 -6 9c-2.66699 4.66699 -24 7 -64 7h-185c-1.33301 -62 -1.33301 -129.667 0 -203c144.667 0 228 4.66699 250 14v-86
c-31.333 10 -114.666 14 -249.999 12c-0.666992 -74 -0.666992 -153.333 0 -238h211c36 0 57 4 63 12c4 6 7 16.333 9 31h49c-3.33301 -49.333 -3.33301 -85.333 0 -108zM424.999 684h-316v50h316v-50z" />
    <glyph glyph-name="emacron" unicode="&#x113;" horiz-adv-x="420" 
d="M220 394c60 0.666992 105.667 -17.9971 137 -55.9971c28 -35.333 41.667 -82.333 41 -141h-303v-4c-0.666992 -42.667 14.333 -78.334 45 -107.001c28 -26 62 -39.667 102 -41c40 -0.666992 75.667 14.666 107 45.999l29 -53c-52 -28.667 -99 -44 -141 -46
c-62 -2.66699 -112.333 16.333 -151 57c-36 39.333 -53.667 88 -53 146c0.666992 56 18.667 103 54 141c34.667 37.333 79 56.666 133 57.999zM325 250.003c-7.33301 60 -42.666 90 -105.999 90c-24.667 0 -47.334 -8 -68.001 -24s-36 -38 -46 -66h220zM376 464.003h-308
l1 48h307v-48z" />
    <glyph glyph-name="Ebreve" unicode="&#x114;" horiz-adv-x="525" 
d="M485 -5c-42.667 2 -81.001 3.5 -115.001 4.5s-64.333 1.16699 -91 0.5c-20.667 -0.666992 -47.834 -1.5 -81.501 -2.5l-120.5 -3.5c6.66699 22 10 132 10 330c0 179.333 -3.33301 280 -10 302c44.667 -2.66699 103.334 -4.66699 176.001 -6
c26.667 -0.666992 57.167 -0.5 91.5 0.5s72.833 2.5 115.5 4.5c-3.33301 -23.333 -3.33301 -55.333 0 -96h-50l-2 16c0 2 -2 5 -6 9c-2.66699 4.66699 -24 7 -64 7h-185c-1.33301 -62 -1.33301 -129.667 0 -203c144.667 0 228 4.66699 250 14v-86
c-31.333 10 -114.666 14 -249.999 12c-0.666992 -74 -0.666992 -153.333 0 -238h211c36 0 57 4 63 12c4 6 7 16.333 9 31h49c-3.33301 -49.333 -3.33301 -85.333 0 -108zM433.999 792c-20.667 -34 -44 -59.667 -70 -77s-54.667 -26 -86 -26c-32 0 -60.667 8.66699 -86 26
s-50 43 -74 77l33 19c41.333 -57.333 83.333 -86 126 -86c44 0 86.667 28.667 128 86z" />
    <glyph glyph-name="ebreve" unicode="&#x115;" horiz-adv-x="420" 
d="M220 394c60 0.666992 105.667 -17.9971 137 -55.9971c28 -35.333 41.667 -82.333 41 -141h-303v-4c-0.666992 -42.667 14.333 -78.334 45 -107.001c28 -26 62 -39.667 102 -41c40 -0.666992 75.667 14.666 107 45.999l29 -53c-52 -28.667 -99 -44 -141 -46
c-62 -2.66699 -112.333 16.333 -151 57c-36 39.333 -53.667 88 -53 146c0.666992 56 18.667 103 54 141c34.667 37.333 79 56.666 133 57.999zM325 250.003c-7.33301 60 -42.666 90 -105.999 90c-24.667 0 -47.334 -8 -68.001 -24s-36 -38 -46 -66h220zM390 569.003
c-20.667 -34 -44 -59.667 -70 -77s-54.667 -26 -86 -26c-32 0 -60.667 8.66699 -86 26s-50 43 -74 77l33 19c41.333 -57.333 83.333 -86 126 -86c44 0 86.667 28.667 128 86z" />
    <glyph glyph-name="Edotaccent" unicode="&#x116;" horiz-adv-x="525" 
d="M485 -2c-42.667 2 -81.001 3.5 -115.001 4.5s-64.333 1.16699 -91 0.5c-20.667 -0.666992 -47.834 -1.5 -81.501 -2.5l-120.5 -3.5c6.66699 22 10 132 10 330c0 179.333 -3.33301 280 -10 302c44.667 -2.66699 103.334 -4.66699 176.001 -6
c26.667 -0.666992 57.167 -0.5 91.5 0.5s72.833 2.5 115.5 4.5c-3.33301 -23.333 -3.33301 -55.333 0 -96h-50l-2 16c0 2 -2 5 -6 9c-2.66699 4.66699 -24 7 -64 7h-185c-1.33301 -62 -1.33301 -129.667 0 -203c144.667 0 228 4.66699 250 14v-86
c-31.333 10 -114.666 14 -249.999 12c-0.666992 -74 -0.666992 -153.333 0 -238h211c36 0 57 4 63 12c4 6 7 16.333 9 31h49c-3.33301 -49.333 -3.33301 -85.333 0 -108zM322.999 743c0 -15.333 -5.33301 -28.333 -16 -39s-23.667 -16 -39 -16s-28.333 5.33301 -39 16
s-16 23.667 -16 39s5.33301 28.333 16 39s23.667 16 39 16s28.333 -5.33301 39 -16s16 -23.667 16 -39z" />
    <glyph glyph-name="edotaccent" unicode="&#x117;" horiz-adv-x="420" 
d="M220 394c60 0.666992 105.667 -17.9971 137 -55.9971c28 -35.333 41.667 -82.333 41 -141h-303v-4c-0.666992 -42.667 14.333 -78.334 45 -107.001c28 -26 62 -39.667 102 -41c40 -0.666992 75.667 14.666 107 45.999l29 -53c-52 -28.667 -99 -44 -141 -46
c-62 -2.66699 -112.333 16.333 -151 57c-36 39.333 -53.667 88 -53 146c0.666992 56 18.667 103 54 141c34.667 37.333 79 56.666 133 57.999zM325 250.003c-7.33301 60 -42.666 90 -105.999 90c-24.667 0 -47.334 -8 -68.001 -24s-36 -38 -46 -66h220zM263 511.003
c0 -32.667 -15.332 -48.999 -45.999 -48.999s-46.334 15.333 -47.001 46c-0.666992 13.333 3.5 24.666 12.5 33.999s20.5 14 34.5 14c13.333 0 24.333 -4.5 33 -13.5s13 -19.5 13 -31.5z" />
    <glyph glyph-name="Eogonek" unicode="&#x118;" horiz-adv-x="525" 
d="M399 -196c-22 -17.333 -54 -25.6699 -96 -25.0029c-28.667 0 -51.834 8.33301 -69.501 25s-25.834 37.334 -24.501 62.001c2 44.667 21.667 89.334 59 134.001l-191 -6c6.66699 22 10 132 10 330c0 183.333 -3.33301 286 -10 308
c44.667 -2.66699 103.334 -4.66699 176.001 -6c26.667 -0.666992 57.167 -0.5 91.5 0.5s72.833 2.5 115.5 4.5c-3.33301 -23.333 -3.33301 -55.333 0 -96h-50l-2 16c0 2 -2 5 -6 9c-2.66699 4.66699 -24 7 -64 7h-185c-1.33301 -66 -1.33301 -135.667 0 -209
c144.667 0 228 4.66699 250 14v-86c-31.333 10 -114.666 14 -249.999 12c-0.666992 -74 -0.666992 -153.333 0 -238h211c36 0 57 4 63 12c4 6 7 16.333 9 31h49c-3.33301 -49.333 -3.33301 -85.333 0 -108c-12.667 0.666992 -31.167 1.33398 -55.5 2.00098
s-55.166 1.66699 -92.499 3c-10.667 -12.667 -21.334 -27 -32.001 -43s-21.667 -34 -33 -54c-4 -7.33301 -6 -14.333 -6 -21c0 -11.333 4 -20.833 12 -28.5s18.667 -11.5 32 -11.5c26 0 48.333 7.33301 67 22z" />
    <glyph glyph-name="eogonek" unicode="&#x119;" horiz-adv-x="420" 
d="M329 -196c-22 -17.333 -53.998 -25.665 -95.998 -24.998c-28.667 0 -51.834 8.33301 -69.501 25s-25.834 37.334 -24.501 62.001c2 42 20 84.667 54 128c-49.333 7.33301 -89 30.333 -119 69c-28 37.333 -41.667 81.333 -41 132c0.666992 56 18.667 103 54 141
c34.667 37.333 79 56.666 133 57.999c60 0.666992 105.667 -18 137 -56c28 -35.333 41.667 -82.333 41 -141h-303v-4c-0.666992 -42.667 14.333 -78.334 45 -107.001c28 -26 62 -39.667 102 -41c40 -0.666992 75.667 14.666 107 45.999l29 -53
c-22.667 -12.667 -43.667 -22.5 -63 -29.5s-37 -11.833 -53 -14.5c-20.667 -24.667 -40.667 -55 -60 -91c-4 -7.33301 -6 -14.333 -6 -21c0 -11.333 4 -20.833 12 -28.5s18.667 -11.5 32 -11.5c26 0 48.333 7.33301 67 22zM325.002 250.001
c-7.33301 60 -42.666 90 -105.999 90c-24.667 0 -47.334 -8 -68.001 -24s-36 -38 -46 -66h220z" />
    <glyph glyph-name="Ecaron" unicode="&#x11a;" horiz-adv-x="525" 
d="M485 -5c-42.667 2 -81.001 3.5 -115.001 4.5s-64.333 1.16699 -91 0.5c-20.667 -0.666992 -47.834 -1.5 -81.501 -2.5l-120.5 -3.5c6.66699 22 10 132 10 330c0 179.333 -3.33301 280 -10 302c44.667 -2.66699 103.334 -4.66699 176.001 -6
c26.667 -0.666992 57.167 -0.5 91.5 0.5s72.833 2.5 115.5 4.5c-3.33301 -23.333 -3.33301 -55.333 0 -96h-50l-2 16c0 2 -2 5 -6 9c-2.66699 4.66699 -24 7 -64 7h-185c-1.33301 -62 -1.33301 -129.667 0 -203c144.667 0 228 4.66699 250 14v-86
c-31.333 10 -114.666 14 -249.999 12c-0.666992 -74 -0.666992 -153.333 0 -238h211c36 0 57 4 63 12c4 6 7 16.333 9 31h49c-3.33301 -49.333 -3.33301 -85.333 0 -108zM442.999 812l-89.5 -62l-89.5 -62l-177 124l37 39c91.333 -69.333 137.333 -104 138 -104l138 106z
" />
    <glyph glyph-name="ecaron" unicode="&#x11b;" horiz-adv-x="420" 
d="M220 394c60 0.666992 105.667 -17.9971 137 -55.9971c28 -35.333 41.667 -82.333 41 -141h-303v-4c-0.666992 -42.667 14.333 -78.334 45 -107.001c28 -26 62 -39.667 102 -41c40 -0.666992 75.667 14.666 107 45.999l29 -53c-52 -28.667 -99 -44 -141 -46
c-62 -2.66699 -112.333 16.333 -151 57c-36 39.333 -53.667 88 -53 146c0.666992 56 18.667 103 54 141c34.667 37.333 79 56.666 133 57.999zM325 250.003c-7.33301 60 -42.666 90 -105.999 90c-24.667 0 -47.334 -8 -68.001 -24s-36 -38 -46 -66h220zM361 577.003l-11 -13
l-29 -33.5l-40 -45.5l-44 -50h-25l-129 137l40 36l100 -124l8 10.5l21 27.5l30 40l35 49z" />
    <glyph glyph-name="Gcircumflex" unicode="&#x11c;" horiz-adv-x="527" 
d="M501 16c-22.667 1.33301 -53.998 -4.00098 -93.998 -16.001c-21.333 -6 -49 -9 -83 -9c-85.333 0 -154 32.333 -206 97c-49.333 60.667 -74 134 -74 220c0 90.667 24.333 166.334 73 227.001c52 66 122.333 99 211 99c29.333 0 57.666 -3 84.999 -9
c6 -0.666992 16.667 -3.66699 32 -9c10 -3.33301 17 -4.33301 21 -3c1.33301 -30 4.33301 -61.333 9 -94h-47c-4.66699 23.333 -16 39.666 -34 48.999c-13.333 6 -33.333 9 -60 9c-69.333 0 -124.333 -29 -165 -87c-36.667 -52.667 -55 -114.667 -55 -186
c0 -66 19.667 -124.333 59 -175c43.333 -53.333 97 -80 161 -80c28 0 49 2.66699 63 8c21.333 8 31.666 24.333 30.999 49l-1 121h-15c-22 0 -35.333 -1 -40 -3c-10.667 -2.66699 -16.667 -12 -18 -28h-49c2.66699 38.667 2.66699 69.667 0 93
c36.667 -0.666992 70.5 -1.16699 101.5 -1.5s59.833 -0.166016 86.5 0.500977v-165c0 -22.667 -0.333008 -13 -1 29c1.33301 -54 4.33301 -99.333 9 -136zM480.002 726.999l-43 -41l-138 106c-0.666992 0 -46.667 -34.667 -138 -104l-37 39l177 124l89.5 -62z" />
    <glyph glyph-name="gcircumflex" unicode="&#x11d;" horiz-adv-x="471" 
d="M439 388c-1.33301 -31.333 -2.33301 -69.834 -3 -115.501s-1 -99.167 -1 -160.5c0 -119.333 -3 -191 -9 -215c-9.33301 -35.333 -30.333 -63.333 -63 -84c-33.333 -21.333 -70.333 -32 -111 -32c-46.667 0 -87 7.66699 -121 23c-4.66699 2.66699 -11 5.5 -19 8.5
l-29 10.5l37 61c30 -28 67.333 -44.333 112 -49c3.33301 -0.666992 6.33301 -1 9 -1h9c16 0 31.333 2.66699 46 8s27.5 12.5 38.5 21.5s19.833 19.833 26.5 32.5s10.667 26.334 12 41.001c0.666992 20.667 1.66699 63 3 127c-31.333 -48 -77.666 -72 -138.999 -72
s-111.333 20 -150 60c-37.333 38 -55.333 86 -54 144c0.666992 56.667 19.667 103.667 57 141c38 38 87 57 147 57c63.333 0 108.666 -22 135.999 -66v28c0 10 -0.333008 20.667 -1 32h67zM239 340.999c-42 0 -77 -13.999 -105 -41.999
c-27.333 -28.667 -41 -63.667 -41 -105c0 -40.667 14 -75.334 42 -104.001c28.667 -28.667 63.334 -43 104.001 -43c38 0 69.167 11.833 93.5 35.5s38.833 54.5 43.5 92.5v45c-5.33301 36 -20.333 65.167 -45 87.5s-55.334 33.5 -92.001 33.5zM440 505l-43 -41l-138 106
c-0.666992 0 -46.667 -34.667 -138 -104l-37 39l177 124l89.5 -62z" />
    <glyph glyph-name="Gbreve" unicode="&#x11e;" horiz-adv-x="527" 
d="M501 16c-22.667 1.33301 -53.998 -4.00098 -93.998 -16.001c-21.333 -6 -49 -9 -83 -9c-85.333 0 -154 32.333 -206 97c-49.333 60.667 -74 134 -74 220c0 90.667 24.333 166.334 73 227.001c52 66 122.333 99 211 99c29.333 0 57.666 -3 84.999 -9
c6 -0.666992 16.667 -3.66699 32 -9c10 -3.33301 17 -4.33301 21 -3c1.33301 -30 4.33301 -61.333 9 -94h-47c-4.66699 23.333 -16 39.666 -34 48.999c-13.333 6 -33.333 9 -60 9c-69.333 0 -124.333 -29 -165 -87c-36.667 -52.667 -55 -114.667 -55 -186
c0 -66 19.667 -124.333 59 -175c43.333 -53.333 97 -80 161 -80c28 0 49 2.66699 63 8c21.333 8 31.666 24.333 30.999 49l-1 121h-15c-22 0 -35.333 -1 -40 -3c-10.667 -2.66699 -16.667 -12 -18 -28h-49c2.66699 38.667 2.66699 69.667 0 93
c36.667 -0.666992 70.5 -1.16699 101.5 -1.5s59.833 -0.166016 86.5 0.500977v-165c0 -22.667 -0.333008 -13 -1 29c1.33301 -54 4.33301 -99.333 9 -136zM474.002 788.999c-20.667 -34 -44 -59.667 -70 -77s-54.667 -26 -86 -26c-32 0 -60.667 8.66699 -86 26
s-50 43 -74 77l33 19c41.333 -57.333 83.333 -86 126 -86c44 0 86.667 28.667 128 86z" />
    <glyph glyph-name="gbreve" unicode="&#x11f;" horiz-adv-x="471" 
d="M439 388c-1.33301 -31.333 -2.33301 -69.834 -3 -115.501s-1 -99.167 -1 -160.5c0 -119.333 -3 -191 -9 -215c-9.33301 -35.333 -30.333 -63.333 -63 -84c-33.333 -21.333 -70.333 -32 -111 -32c-46.667 0 -87 7.66699 -121 23c-4.66699 2.66699 -11 5.5 -19 8.5
l-29 10.5l37 61c30 -28 67.333 -44.333 112 -49c3.33301 -0.666992 6.33301 -1 9 -1h9c16 0 31.333 2.66699 46 8s27.5 12.5 38.5 21.5s19.833 19.833 26.5 32.5s10.667 26.334 12 41.001c0.666992 20.667 1.66699 63 3 127c-31.333 -48 -77.666 -72 -138.999 -72
s-111.333 20 -150 60c-37.333 38 -55.333 86 -54 144c0.666992 56.667 19.667 103.667 57 141c38 38 87 57 147 57c63.333 0 108.666 -22 135.999 -66v28c0 10 -0.333008 20.667 -1 32h67zM239 340.999c-42 0 -77 -13.999 -105 -41.999
c-27.333 -28.667 -41 -63.667 -41 -105c0 -40.667 14 -75.334 42 -104.001c28.667 -28.667 63.334 -43 104.001 -43c38 0 69.167 11.833 93.5 35.5s38.833 54.5 43.5 92.5v45c-5.33301 36 -20.333 65.167 -45 87.5s-55.334 33.5 -92.001 33.5zM420 564
c-20.667 -34 -44 -59.667 -70 -77s-54.667 -26 -86 -26c-32 0 -60.667 8.66699 -86 26s-50 43 -74 77l33 19c41.333 -57.333 83.333 -86 126 -86c44 0 86.667 28.667 128 86z" />
    <glyph glyph-name="Gdotaccent" unicode="&#x120;" horiz-adv-x="527" 
d="M501 16c-22.667 1.33301 -53.998 -4.00098 -93.998 -16.001c-21.333 -6 -49 -9 -83 -9c-85.333 0 -154 32.333 -206 97c-49.333 60.667 -74 134 -74 220c0 90.667 24.333 166.334 73 227.001c52 66 122.333 99 211 99c29.333 0 57.666 -3 84.999 -9
c6 -0.666992 16.667 -3.66699 32 -9c10 -3.33301 17 -4.33301 21 -3c1.33301 -30 4.33301 -61.333 9 -94h-47c-4.66699 23.333 -16 39.666 -34 48.999c-13.333 6 -33.333 9 -60 9c-69.333 0 -124.333 -29 -165 -87c-36.667 -52.667 -55 -114.667 -55 -186
c0 -66 19.667 -124.333 59 -175c43.333 -53.333 97 -80 161 -80c28 0 49 2.66699 63 8c21.333 8 31.666 24.333 30.999 49l-1 121h-15c-22 0 -35.333 -1 -40 -3c-10.667 -2.66699 -16.667 -12 -18 -28h-49c2.66699 38.667 2.66699 69.667 0 93
c36.667 -0.666992 70.5 -1.16699 101.5 -1.5s59.833 -0.166016 86.5 0.500977v-165c0 -22.667 -0.333008 -13 -1 29c1.33301 -54 4.33301 -99.333 9 -136zM369.002 741.999c0 -15.333 -5.33301 -28.333 -16 -39s-23.667 -16 -39 -16s-28.333 5.33301 -39 16
s-16 23.667 -16 39s5.33301 28.333 16 39s23.667 16 39 16s28.333 -5.33301 39 -16s16 -23.667 16 -39z" />
    <glyph glyph-name="gdotaccent" unicode="&#x121;" horiz-adv-x="471" 
d="M419 388c-1.33301 -31.333 -2.33301 -69.834 -3 -115.501s-1 -99.167 -1 -160.5c0 -119.333 -3 -191 -9 -215c-9.33301 -35.333 -30.333 -63.333 -63 -84c-33.333 -21.333 -70.333 -32 -111 -32c-46.667 0 -87 7.66699 -121 23c-4.66699 2.66699 -11 5.5 -19 8.5
l-29 10.5l37 61c30 -28 67.333 -44.333 112 -49c3.33301 -0.666992 6.33301 -1 9 -1h9c16 0 31.333 2.66699 46 8s27.5 12.5 38.5 21.5s19.833 19.833 26.5 32.5s10.667 26.334 12 41.001c0.666992 20.667 1.66699 63 3 127c-31.333 -48 -77.666 -72 -138.999 -72
s-111.333 20 -150 60c-37.333 38 -55.333 86 -54 144c0.666992 56.667 19.667 103.667 57 141c38 38 87 57 147 57c63.333 0 108.666 -22 135.999 -66v28c0 10 -0.333008 20.667 -1 32h67zM219 340.999c-42 0 -77 -13.999 -105 -41.999
c-27.333 -28.667 -41 -63.667 -41 -105c0 -40.667 14 -75.334 42 -104.001c28.667 -28.667 63.334 -43 104.001 -43c38 0 69.167 11.833 93.5 35.5s38.833 54.5 43.5 92.5v45c-5.33301 36 -20.333 65.167 -45 87.5s-55.334 33.5 -92.001 33.5zM263 514
c0 -32.667 -15.332 -48.999 -45.999 -48.999s-46.334 15.333 -47.001 46c-0.666992 13.333 3.5 24.666 12.5 33.999s20.5 14 34.5 14c13.333 0 24.333 -4.5 33 -13.5s13 -19.5 13 -31.5z" />
    <glyph glyph-name="Gcommaaccent" unicode="&#x122;" horiz-adv-x="527" 
d="M497 30c-22.667 1.33301 -53.998 -4.00098 -93.998 -16.001c-21.333 -6 -49 -9 -83 -9c-85.333 0 -154 32.333 -206 97c-49.333 60.667 -74 134 -74 220c0 90.667 24.333 166.334 73 227.001c52 66 122.333 99 211 99c29.333 0 57.666 -3 84.999 -9
c6 -0.666992 16.667 -3.66699 32 -9c10 -3.33301 17 -4.33301 21 -3c1.33301 -30 4.33301 -61.333 9 -94h-47c-4.66699 23.333 -16 39.666 -34 48.999c-13.333 6 -33.333 9 -60 9c-69.333 0 -124.333 -29 -165 -87c-36.667 -52.667 -55 -114.667 -55 -186
c0 -66 19.667 -124.333 59 -175c43.333 -53.333 97 -80 161 -80c28 0 49 2.66699 63 8c21.333 8 31.666 24.333 30.999 49l-1 121h-15c-22 0 -35.333 -1 -40 -3c-10.667 -2.66699 -16.667 -12 -18 -28h-49c2.66699 38.667 2.66699 69.667 0 93
c36.667 -0.666992 70.5 -1.16699 101.5 -1.5s59.833 -0.166016 86.5 0.500977v-165c0 -22.667 -0.333008 -13 -1 29c1.33301 -54 4.33301 -99.333 9 -136zM338.002 -153.001c0 -66.667 -26.333 -106.333 -79 -119v35c27.333 5.33301 41 31.333 41 78h-28v67h66v-61z" />
    <glyph glyph-name="gcommaaccent" unicode="&#x123;" horiz-adv-x="471" 
d="M439 388c-1.33301 -31.333 -2.33301 -69.834 -3 -115.501s-1 -99.167 -1 -160.5c0 -119.333 -3 -191 -9 -215c-9.33301 -35.333 -30.333 -63.333 -63 -84c-33.333 -21.333 -70.333 -32 -111 -32c-46.667 0 -87 7.66699 -121 23c-4.66699 2.66699 -11 5.5 -19 8.5
l-29 10.5l37 61c30 -28 67.333 -44.333 112 -49c3.33301 -0.666992 6.33301 -1 9 -1h9c16 0 31.333 2.66699 46 8s27.5 12.5 38.5 21.5s19.833 19.833 26.5 32.5s10.667 26.334 12 41.001c0.666992 20.667 1.66699 63 3 127c-31.333 -48 -77.666 -72 -138.999 -72
s-111.333 20 -150 60c-37.333 38 -55.333 86 -54 144c0.666992 56.667 19.667 103.667 57 141c38 38 87 57 147 57c63.333 0 108.666 -22 135.999 -66v28c0 10 -0.333008 20.667 -1 32h67zM239 340.999c-42 0 -77 -13.999 -105 -41.999
c-27.333 -28.667 -41 -63.667 -41 -105c0 -40.667 14 -75.334 42 -104.001c28.667 -28.667 63.334 -43 104.001 -43c38 0 69.167 11.833 93.5 35.5s38.833 54.5 43.5 92.5v45c-5.33301 36 -20.333 65.167 -45 87.5s-55.334 33.5 -92.001 33.5zM206 525
c0 66.667 26.333 106.333 79 119v-35c-27.333 -6 -41 -32 -41 -78h28v-67h-66v61z" />
    <glyph glyph-name="Hcircumflex" unicode="&#x124;" horiz-adv-x="635" 
d="M580 0h-86.998c4.66699 16.667 7.83398 48.667 9.50098 96s2.16699 110.333 1.5 189h-352c0 -160.667 3.66699 -255.667 11 -285h-89c7.33301 25.333 11.333 68 12 128v286c0 68 -0.333008 109.667 -1 125s-1.83398 29.666 -3.50098 42.999s-4.16699 26.333 -7.5 39h89
c-11.333 -41.333 -15.333 -131.666 -12 -270.999h353c0.666992 74.667 0.166992 134.5 -1.5 179.5s-4.83398 75.5 -9.50098 91.5h86c-3.33301 -12.667 -5.83301 -29.5 -7.5 -50.5s-2.83398 -46.5 -3.50098 -76.5v-184c0 -176 4 -279.333 12 -310zM511.002 727l-43 -41
l-138 106c-0.666992 0 -46.667 -34.667 -138 -104l-37 39l177 124l89.5 -62z" />
    <glyph glyph-name="hcircumflex" unicode="&#x125;" horiz-adv-x="405" 
d="M391 0l-67.999 -0.00195312v57c0 19.333 0.333008 39.333 1 60v80c-0.666992 23.333 -1.83398 43.5 -3.50098 60.5s-4.16699 30.833 -7.5 41.5c-12 35.333 -34.333 53.333 -67 54c-34 0.666992 -64.333 -8.33301 -91 -27c-5.33301 -5.33301 -11 -10.5 -17 -15.5
s-11.667 -10.167 -17 -15.5c-0.666992 -13.333 -1 -29.333 -1 -48v-66c0.666992 -17.333 1 -36 1 -56s0.333008 -41.333 1 -64l1.5 -47c0.333008 -10 0.5 -14.667 0.5 -14h-65c1.33301 34.667 2.33301 80.334 3 137.001s1 124.334 1 203.001v47c0 108.667 -2 179.667 -6 213
h68c-1.33301 -22.667 -2.5 -51.5 -3.5 -86.5s-1.5 -76.833 -1.5 -125.5v-39c40.667 36.667 85.667 55 135 55c46 0 79.333 -14.333 100 -43c22.667 -31.333 34 -86.333 34 -165v-118c0.666992 -24 1.16699 -43.5 1.5 -58.5s0.5 -21.5 0.5 -19.5zM272.001 701.998l-43 -41
l-138 106c-0.666992 0 -46.667 -34.667 -138 -104l-37 39l177 124l89.5 -62z" />
    <glyph glyph-name="Hbar" unicode="&#x126;" horiz-adv-x="635" 
d="M610 445h-42.002v-135c0 -176 4 -279.333 12 -310h-87c4.66699 16.667 7.83398 48.667 9.50098 96s2.16699 110.333 1.5 189h-352c0 -160.667 3.66699 -255.667 11 -285h-89c2 6 3.66699 14.167 5 24.5s2.5 26.666 3.5 48.999s1.83301 52.333 2.5 90s1 87.167 1 148.5
v133h-51v48h51c-1.33301 60.667 -5.33301 103.334 -12 128.001h89c-7.33301 -27.333 -11.333 -70 -12 -128h353c0.666992 27.333 0.333984 50 -0.999023 68s-4.66602 38 -9.99902 60h86c-3.33301 -12.667 -5.83301 -29.5 -7.5 -50.5s-2.83398 -46.833 -3.50098 -77.5h42v-48
zM504.998 445l-355 0.000976562v-43.5c0 -15.667 0.333008 -32.834 1 -51.501h353c0.666992 25.333 1 45.833 1 61.5v33.5z" />
    <glyph glyph-name="hbar" unicode="&#x127;" horiz-adv-x="405" 
d="M380 0l-67.999 -0.00195312v57c0 19.333 0.333008 39.333 1 60v80c-0.666992 23.333 -1.83398 43.5 -3.50098 60.5s-4.16699 30.833 -7.5 41.5c-12 35.333 -34.333 53.333 -67 54c-34 0.666992 -64.333 -8.33301 -91 -27c-5.33301 -5.33301 -11 -10.5 -17 -15.5
s-11.667 -10.167 -17 -15.5c-0.666992 -13.333 -1 -29.333 -1 -48v-66c0.666992 -17.333 1 -36 1 -56s0.333008 -41.333 1 -64l1.5 -47c0.333008 -10 0.5 -14.667 0.5 -14h-65c1.33301 34.667 2.33301 80.334 3 137.001s1 124.334 1 203.001v100h-50v48h50
c0 40.667 -2 77.667 -6 111h68c-1.33301 -21.333 -2.5 -41.333 -3.5 -60s-1.5 -35.667 -1.5 -51h128v-48h-128v-91c40.667 36.667 85.667 55 135 55c46 0 79.333 -14.333 100 -43c22.667 -31.333 34 -86.333 34 -165v-118c0.666992 -24 1.16699 -43.5 1.5 -58.5
s0.5 -21.5 0.5 -19.5z" />
    <glyph glyph-name="Itilde" unicode="&#x128;" horiz-adv-x="230" 
d="M165 621c-3.33301 -12.667 -5.83008 -29.499 -7.49707 -50.499s-2.83398 -46.5 -3.50098 -76.5v-184v-181c1.33301 -62.667 4.66602 -105.667 9.99902 -129h-87c7.33301 25.333 11.333 68 12 128v286c0 68 -0.333008 109.667 -1 125s-1.83398 29.666 -3.50098 42.999
s-4.16699 26.333 -7.5 39h88zM272.003 783.001c-8 -33.333 -20.1689 -57.999 -36.502 -73.999s-33.166 -24 -50.499 -24c-8 0 -19 3.5 -33 10.5s-30.667 17.833 -50 32.5c-26.667 20 -45.667 30 -57 30c-16.667 0 -30 -21 -40 -63l-41 23c10.667 34 22.834 58.667 36.501 74
s27.167 23.666 40.5 24.999c7.33301 0 17.333 -3 30 -9s28.667 -16 48 -30c16 -12 29.667 -21.667 41 -29s20 -11 26 -11c4.66699 0 9.5 2.16699 14.5 6.5s9.83301 10 14.5 17s8.5 15.167 11.5 24.5s4.83301 19.333 5.5 30c6 -3.33301 12.833 -7.83301 20.5 -13.5
l19.5 -14.5v-5z" />
    <glyph glyph-name="itilde" unicode="&#x129;" horiz-adv-x="160" 
d="M117 -1h-66c6.66699 140.667 6.66699 270.667 0 390h66c-4 -132 -4 -262 0 -390zM241 559c-8 -33.333 -20.1689 -57.999 -36.502 -73.999s-33.166 -24 -50.499 -24c-8 0 -19 3.5 -33 10.5s-30.667 17.833 -50 32.5c-26.667 20 -45.667 30 -57 30
c-16.667 0 -30 -21 -40 -63l-41 23c10.667 34 22.834 58.667 36.501 74s27.167 23.666 40.5 24.999c7.33301 0 17.333 -3 30 -9s28.667 -16 48 -30c16 -12 29.667 -21.667 41 -29s20 -11 26 -11c4.66699 0 9.5 2.16699 14.5 6.5s9.83301 10 14.5 17s8.5 15.167 11.5 24.5
s4.83301 19.333 5.5 30c6 -3.33301 12.833 -7.83301 20.5 -13.5l19.5 -14.5v-5z" />
    <glyph glyph-name="Imacron" unicode="&#x12a;" horiz-adv-x="230" 
d="M144 619c-3.33301 -12.667 -5.83008 -29.499 -7.49707 -50.499s-2.83398 -46.5 -3.50098 -76.5v-184v-181c1.33301 -62.667 4.66602 -105.667 9.99902 -129h-87c7.33301 25.333 11.333 68 12 128v286c0 68 -0.333008 109.667 -1 125s-1.83398 29.666 -3.50098 42.999
s-4.16699 26.333 -7.5 39h88zM271.003 683.001h-316v50h316v-50z" />
    <glyph glyph-name="imacron" unicode="&#x12b;" horiz-adv-x="160" 
d="M120 1h-66c6.66699 140.667 6.66699 270.667 0 390h66c-4 -131.333 -4 -261.333 0 -390zM249 463h-308l1 48h307v-48z" />
    <glyph glyph-name="Ibreve" unicode="&#x12c;" horiz-adv-x="230" 
d="M165 621c-3.33301 -12.667 -5.83008 -29.499 -7.49707 -50.499s-2.83398 -46.5 -3.50098 -76.5v-184v-181c1.33301 -62.667 4.66602 -105.667 9.99902 -129h-87c7.33301 25.333 11.333 68 12 128v286c0 68 -0.333008 109.667 -1 125s-1.83398 29.666 -3.50098 42.999
s-4.16699 26.333 -7.5 39h88zM284.003 789.001c-20.667 -34 -44 -59.667 -70 -77s-54.667 -26 -86 -26c-32 0 -60.667 8.66699 -86 26s-50 43 -74 77l33 19c41.333 -57.333 83.333 -86 126 -86c44 0 86.667 28.667 128 86z" />
    <glyph glyph-name="ibreve" unicode="&#x12d;" horiz-adv-x="160" 
d="M112 2h-66c6.66699 140.667 6.66699 270.667 0 390h66c-4 -132 -4 -262 0 -390zM240 564c-25.333 -36.667 -47.334 -61.333 -66.001 -74c-25.333 -19.333 -55.333 -29 -90 -29c-37.333 0 -68.666 9.66699 -93.999 29c-16.667 11.333 -38.667 36 -66 74l32 19
c41.333 -57.333 83.333 -86 126 -86c44 0 86.667 28.667 128 86z" />
    <glyph glyph-name="Iogonek" unicode="&#x12e;" horiz-adv-x="230" 
d="M199 -196c-22 -17.333 -53.9941 -25.6689 -95.9941 -25.002c-28.667 0 -51.834 8.33301 -69.501 25s-25.834 37.334 -24.501 62.001c0 12 2 24.5 6 37.5s9.16699 26 15.5 39s13.666 25.5 21.999 37.5s17.5 23 27.5 33c6 28.667 9 128.334 9 299.001v147.5
c0 37.667 -0.333008 64.167 -1 79.5s-1.83398 29.666 -3.50098 42.999s-4.16699 26.333 -7.5 39h88c-3.33301 -12.667 -5.83301 -29.5 -7.5 -50.5s-2.83398 -46.5 -3.50098 -76.5v-184v-181c1.33301 -62.667 4.66602 -105.667 9.99902 -129h-27l-23 -24
c-8 -8.66699 -15.667 -18 -23 -28s-13.333 -20.667 -18 -32s-7 -22.666 -7 -33.999s4 -20.833 12 -28.5s18.667 -11.5 32 -11.5c26 0 48.333 7.33301 67 22z" />
    <glyph glyph-name="iogonek" unicode="&#x12f;" horiz-adv-x="160" 
d="M135 519c0 -12 -5 -22.833 -15 -32.5s-21.333 -14.5 -34 -14.5c-12 0 -22.833 4.66699 -32.5 14s-14.5 20.333 -14.5 33s4.83301 23.834 14.5 33.501s20.5 14.5 32.5 14.5c12.667 0 24 -4.83301 34 -14.5s15 -20.834 15 -33.501zM169 -196
c-22 -17.333 -54 -25.668 -96 -25.001c-28.667 0 -51.834 8.33301 -69.501 25s-25.834 37.334 -24.501 62.001c0 12 2 24.667 6 38s9.33301 26.5 16 39.5s14.334 25.667 23.001 38s18 23.5 28 33.5c2.66699 70.667 4 137 4 199s-1.66699 120.333 -5 175h66
c-4 -132 -4 -262 0 -390h-20c-2.66699 -3.33301 -8.66699 -13 -18 -29s-21.666 -38.333 -36.999 -67c-4 -7.33301 -6 -14.333 -6 -21c0 -11.333 4 -20.833 12 -28.5s18.667 -11.5 32 -11.5c26 0 48.333 7.33301 67 22z" />
    <glyph glyph-name="Idotaccent" unicode="&#x130;" horiz-adv-x="230" 
d="M165 621c-3.33301 -12.667 -5.83008 -29.499 -7.49707 -50.499s-2.83398 -46.5 -3.50098 -76.5v-184v-181c1.33301 -62.667 4.66602 -105.667 9.99902 -129h-87c7.33301 25.333 11.333 68 12 128v286c0 68 -0.333008 109.667 -1 125s-1.83398 29.666 -3.50098 42.999
s-4.16699 26.333 -7.5 39h88zM176.003 741.001c0 -15.333 -5.33301 -28.333 -16 -39s-23.667 -16 -39 -16s-28.333 5.33301 -39 16s-16 23.667 -16 39s5.33301 28.333 16 39s23.667 16 39 16s28.333 -5.33301 39 -16s16 -23.667 16 -39z" />
    <glyph glyph-name="dotlessi" unicode="&#x131;" horiz-adv-x="160" 
d="M117 -1h-66c6.66699 140.667 6.66699 270.667 0 390h66c-4 -132 -4 -262 0 -390z" />
    <glyph glyph-name="IJ" unicode="&#x132;" horiz-adv-x="403" 
d="M118 621c-3.33301 -12.667 -5.83008 -29.499 -7.49707 -50.499s-2.83398 -46.5 -3.50098 -76.5v-184v-181c1.33301 -62.667 4.66602 -105.667 9.99902 -129h-87c7.33301 25.333 11.333 68 12 128v286c0 68 -0.333008 109.667 -1 125s-1.83398 29.666 -3.50098 42.999
s-4.16699 26.333 -7.5 39h88zM363.003 622.001c-4.66699 -16.667 -7 -81.333 -7 -194c0 -245.333 -3.33301 -377 -10 -395c-11.333 -30 -40.666 -45 -87.999 -45c-10 0 -18.833 0.833008 -26.5 2.5s-14.667 3.5 -21 5.5s-12.5 3.5 -18.5 4.5s-12 0.833008 -18 -0.5
c-1.33301 48.667 -1.33301 72.667 0 72l36 -1c0.666992 -8.66699 6.66699 -16 18 -22c8.66699 -4.66699 18 -7 28 -7c19.333 0 29.666 8.66699 30.999 26c1.33301 16 2.33301 53.833 3 113.5s1 142.167 1 247.5c0 112 -2.33301 176.333 -7 193h79z" />
    <glyph glyph-name="ij" unicode="&#x133;" horiz-adv-x="306" 
d="M128 509c0 -12 -5 -22.833 -15 -32.5s-21.333 -14.5 -34 -14.5c-12 0 -22.833 4.66699 -32.5 14s-14.5 20.333 -14.5 33s4.83301 23.834 14.5 33.501s20.5 14.5 32.5 14.5c12.667 0 24 -4.83301 34 -14.5s15 -20.834 15 -33.501zM110 -1h-66c6 136.667 6 266 0 388h66
c-4.66699 -126.667 -4.66699 -256 0 -388zM281 504c0 -12 -5 -22.833 -15 -32.5s-21.333 -14.5 -34 -14.5c-12 0 -22.833 4.66699 -32.5 14s-14.5 20.333 -14.5 33s4.66699 23.834 14 33.501s20.333 14.5 33 14.5s24 -4.83301 34 -14.5s15 -20.834 15 -33.501zM265 382
c-1.33301 -11.333 -2.33301 -39.833 -3 -85.5s-1 -108.834 -1 -189.501v-169c-2 -52.667 -7 -88 -15 -106c-17.333 -37.333 -48 -56 -92 -56c-9.33301 0 -17 1 -23 3c-10 5.33301 -25.667 11.333 -47 18l10.5 20.5l16.5 31.5c14.667 -16.667 29 -24.667 43 -24
c24 2 39 17.667 45 47c2 10 3 88 3 234c0 62.667 -0.333008 116.834 -1 162.501s-1.66699 83.5 -3 113.5h67z" />
    <glyph glyph-name="Jcircumflex" unicode="&#x134;" horiz-adv-x="235" 
d="M203 622c-4.66699 -16.667 -7 -81.333 -7 -194c0 -245.333 -3.33301 -377 -10 -395c-11.333 -30 -40.666 -45 -87.999 -45c-10 0 -18.833 0.833008 -26.5 2.5s-14.667 3.5 -21 5.5s-12.5 3.5 -18.5 4.5s-12 0.833008 -18 -0.5c-1.33301 48.667 -1.33301 72.667 0 72
l36 -1c0.666992 -8.66699 6.66699 -16 18 -22c8.66699 -4.66699 18 -7 28 -7c19.333 0 29.666 8.66699 30.999 26c1.33301 16 2.33301 53.833 3 113.5s1 142.167 1 247.5c0 112 -2.33301 176.333 -7 193h79zM344 726.001l-43 -41l-138 106
c-0.666992 0 -46.667 -34.667 -138 -104l-37 39l177 124l89.5 -62z" />
    <glyph glyph-name="jcircumflex" unicode="&#x135;" horiz-adv-x="240" 
d="M179 394c-1.33301 -11.333 -2.33398 -40.001 -3.00098 -86.001s-1 -109.333 -1 -190v-149c-2 -38 -7 -66.667 -15 -86c-16.667 -36.667 -47.667 -55 -93 -55c-4.66699 0 -8.66699 0.166992 -12 0.5s-6.66602 0.833008 -9.99902 1.5c-10 5.33301 -25.667 11.333 -47 18
l10.5 20.5l16.5 31.5c14.667 -16.667 29 -24.667 43 -24c24 2 39 17.667 45 47c2 10.667 3 75.334 3 194.001c0 62.667 -0.333008 117 -1 163s-1.66699 84 -3 114h67zM329.999 509.999l-43 -41l-138 106c-0.666992 0 -46.667 -34.667 -138 -104l-37 39l177 124l89.5 -62z
" />
    <glyph glyph-name="Kcommaaccent" unicode="&#x136;" horiz-adv-x="590" 
d="M552 0l-109 -0.000976562c-9.33301 28.667 -24.666 56 -45.999 82c-9.33301 11.333 -22.666 26 -39.999 44l-64 64c-60.667 58.667 -110.334 101.334 -149.001 128.001l123 124l72 73l34 35c23.333 27.333 35.666 51.666 36.999 72.999h125c-21.333 -16 -53 -46 -95 -90
l-65 -67l-65 -66l-31.5 -31l-41.5 -41c42.667 -35.333 77.667 -65.333 105 -90c97.333 -91.333 167.333 -170.666 210 -237.999zM154 622.999c-8 -31.333 -12 -134.334 -12 -309.001v-183c0.666992 -32 1.83398 -58.667 3.50098 -80s4.16699 -38.333 7.5 -51h-88
c7.33301 25.333 11.333 68 12 128v287c0 68 -0.333008 109.667 -1 125s-1.83398 29.833 -3.50098 43.5s-4.16699 26.834 -7.5 39.501h89zM281 -127.002c0 -66.667 -26.333 -106.333 -79 -119v35c27.333 5.33301 41 31.333 41 78h-28v67h66v-61z" />
    <glyph glyph-name="kcommaaccent" unicode="&#x137;" horiz-adv-x="411" 
d="M394 29l-41.001 -40.999l-193 190l-63 -48c-1.33301 -39.333 -1.33301 -62 0 -68c2 -20 10.667 -37.333 26 -52c-21.333 -13.333 -42.666 -20 -63.999 -20c-5.33301 0 -9 0.333008 -11 1c-6 2 -9 29.667 -9 83c0 25.333 1 74.666 3 147.999c2 72.667 3 126.667 3 162
c0 50 -0.666992 93 -2 129s-3.33301 65 -6 87h68c-1.33301 -22.667 -2.5 -51.5 -3.5 -86.5s-1.5 -76.833 -1.5 -125.5v-197l86 78l138 130l41 -39l-162 -146l73.5 -71zM221.999 -162.999c0 -66.667 -26.333 -106.333 -79 -119v35c27.333 5.33301 41 31.333 41 78h-28v67h66
v-61z" />
    <glyph glyph-name="Lacute" unicode="&#x139;" horiz-adv-x="530" 
d="M485 -5c-42.667 2 -80.9971 3.50098 -114.997 4.50098s-64.333 1.16699 -91 0.5c-20.667 -0.666992 -47.834 -1.5 -81.501 -2.5l-120.5 -3.5c6.66699 22 10 132.333 10 331v183.5c0 29 0.333008 26.5 1 -7.5c-0.666992 28 -1.83398 52 -3.50098 72
s-4.16699 36.333 -7.5 49h88c-3.33301 -12.667 -5.83301 -29.834 -7.5 -51.501s-2.83398 -48.5 -3.50098 -80.5v-179l-1 -254h211c36 0 57 4 63 12c4 6 7 16.333 9 31h49c-2 -48 -2 -83 0 -105zM222.003 848.001l-80 -161l-51 16l56 170z" />
    <glyph glyph-name="lacute" unicode="&#x13a;" horiz-adv-x="191" 
d="M132 600c-1.33301 -28.667 -2.33203 -63.6689 -2.99902 -105.002s-1.33398 -90 -2.00098 -146c0 -20 0.166992 -47.167 0.5 -81.5s0.833008 -76.5 1.5 -126.5c0.666992 -50.667 1.16699 -87.667 1.5 -111s0.5 -33.333 0.5 -30h-65
c1.33301 34.667 2.33301 80.334 3 137.001s1 124.334 1 203.001c1.33301 116 -0.666992 202.667 -6 260h68zM167.001 836.998l-61 -167l-51 16l45 174z" />
    <glyph glyph-name="Lcommaaccent" unicode="&#x13b;" horiz-adv-x="530" 
d="M485 -5c-42.667 2 -80.9971 3.50098 -114.997 4.50098s-64.333 1.16699 -91 0.5c-20.667 -0.666992 -47.834 -1.5 -81.501 -2.5l-120.5 -3.5c6.66699 22 10 132.333 10 331v183.5c0 29 0.333008 26.5 1 -7.5c-0.666992 28 -1.83398 52 -3.50098 72
s-4.16699 36.333 -7.5 49h88c-3.33301 -12.667 -5.83301 -29.834 -7.5 -51.501s-2.83398 -48.5 -3.50098 -80.5v-179l-1 -254h211c36 0 57 4 63 12c4 6 7 16.333 9 31h49c-2 -48 -2 -83 0 -105zM251.003 -145.999c0 -66.667 -26.333 -106.333 -79 -119v35
c27.333 5.33301 41 31.333 41 78h-28v67h66v-61z" />
    <glyph glyph-name="lcommaaccent" unicode="&#x13c;" horiz-adv-x="160" 
d="M112 600c-1.33301 -28.667 -2.33203 -63.6689 -2.99902 -105.002s-1.33398 -90 -2.00098 -146c0 -20 0.166992 -47.167 0.5 -81.5s0.833008 -76.5 1.5 -126.5c0.666992 -50.667 1.16699 -87.667 1.5 -111s0.5 -33.333 0.5 -30h-65
c1.33301 34.667 2.33301 80.334 3 137.001s1 124.334 1 203.001c1.33301 116 -0.666992 202.667 -6 260h68zM110.001 -167.002c0 -66.667 -26.333 -106.333 -79 -119v35c27.333 5.33301 41 31.333 41 78h-28v67h66v-61z" />
    <glyph glyph-name="Lcaron" unicode="&#x13d;" horiz-adv-x="530" 
d="M485 -5c-42.667 2 -80.9971 3.50098 -114.997 4.50098s-64.333 1.16699 -91 0.5c-20.667 -0.666992 -47.834 -1.5 -81.501 -2.5l-120.5 -3.5c6.66699 22 10 132.333 10 331v183.5c0 29 0.333008 26.5 1 -7.5c-0.666992 28 -1.83398 52 -3.50098 72
s-4.16699 36.333 -7.5 49h88c-3.33301 -12.667 -5.83301 -29.834 -7.5 -51.501s-2.83398 -48.5 -3.50098 -80.5v-179l-1 -254h211c36 0 57 4 63 12c4 6 7 16.333 9 31h49c-2 -48 -2 -83 0 -105zM446.003 607.001l-61 -167l-51 16l44 174z" />
    <glyph glyph-name="lcaron" unicode="&#x13e;" horiz-adv-x="302" 
d="M132 600c-1.33301 -28.667 -2.33203 -63.6689 -2.99902 -105.002s-1.33398 -90 -2.00098 -146c0 -20 0.166992 -47.167 0.5 -81.5s0.833008 -76.5 1.5 -126.5c0.666992 -50.667 1.16699 -87.667 1.5 -111s0.5 -33.333 0.5 -30h-65
c1.33301 34.667 2.33301 80.334 3 137.001s1 124.334 1 203.001c1.33301 116 -0.666992 202.667 -6 260h68zM299.001 601.998l-61 -167l-51 16l44 174z" />
    <glyph glyph-name="Ldot" unicode="&#x13f;" horiz-adv-x="530" 
d="M485 -5c-42.667 2 -80.9971 3.50098 -114.997 4.50098s-64.333 1.16699 -91 0.5c-20.667 -0.666992 -47.834 -1.5 -81.501 -2.5l-120.5 -3.5c6.66699 22 10 132.333 10 331v183.5c0 29 0.333008 26.5 1 -7.5c-0.666992 28 -1.83398 52 -3.50098 72
s-4.16699 36.333 -7.5 49h88c-3.33301 -12.667 -5.83301 -29.834 -7.5 -51.501s-2.83398 -48.5 -3.50098 -80.5v-179l-1 -254h211c36 0 57 4 63 12c4 6 7 16.333 9 31h49c-2 -48 -2 -83 0 -105zM391.003 502.001c0 -15.333 -5.33301 -28.333 -16 -39s-23.667 -16 -39 -16
s-28.333 5.33301 -39 16s-16 23.667 -16 39s5.33301 28.333 16 39s23.667 16 39 16s28.333 -5.33301 39 -16s16 -23.667 16 -39z" />
    <glyph glyph-name="ldot" unicode="&#x140;" horiz-adv-x="294" 
d="M132 600c-1.33301 -28.667 -2.33203 -63.6689 -2.99902 -105.002s-1.33398 -90 -2.00098 -146c0 -20 0.166992 -47.167 0.5 -81.5s0.833008 -76.5 1.5 -126.5c0.666992 -50.667 1.16699 -87.667 1.5 -111s0.5 -33.333 0.5 -30h-65
c1.33301 34.667 2.33301 80.334 3 137.001s1 124.334 1 203.001c1.33301 116 -0.666992 202.667 -6 260h68zM266.001 286.998c0 -32.667 -15.332 -48.999 -45.999 -48.999s-46.334 15.333 -47.001 46c-0.666992 13.333 3.5 24.666 12.5 33.999s20.5 14 34.5 14
c13.333 0 24.333 -4.5 33 -13.5s13 -19.5 13 -31.5z" />
    <glyph glyph-name="Lslash" unicode="&#x141;" horiz-adv-x="503" 
d="M475 -5c-42.667 2 -80.999 3.49902 -114.999 4.49902s-64.333 1.16699 -91 0.5c-20.667 -0.666992 -47.834 -1.5 -81.501 -2.5l-120.5 -3.5c3.33301 12.667 6 42.834 8 90.501s2.66699 113.5 2 197.5l-111 -69l-24 42l135 82c0 1.33301 0.166992 9.66602 0.5 24.999
l1.5 68c0.666992 22 0.833984 42 0.500977 60s-0.833008 33.667 -1.5 47c-0.666992 19.333 -1.83398 36.333 -3.50098 51s-4.16699 27.334 -7.5 38.001h88c-8 -32 -11.667 -115.667 -11 -251l152 86l24 -42l-176 -99l-1 -260h211c36 0 57 4 63 12c4 6 7 16.333 9 31h49
c-3.33301 -49.333 -3.33301 -85.333 0 -108z" />
    <glyph glyph-name="lslash" unicode="&#x142;" horiz-adv-x="160" 
d="M217 382l-108.001 -62.001c0 -22.667 0.166992 -50.5 0.5 -83.5s0.833008 -71.5 1.5 -115.5l1.5 -93c0.333008 -20 0.5 -29.333 0.5 -28h-65c0.666992 22.667 1.33398 57.834 2.00098 105.501s1.33398 108.5 2.00098 182.5l-79 -45l-24 42l103 58v28.5
c0 14.333 0.333008 34.166 1 59.499c0.666992 32.667 0.666992 60 0 82c-0.666992 15.333 -1.66699 30.166 -3 44.499l-4 42.5h68c-1.33301 -17.333 -2.33301 -44.666 -3 -81.999s-1.33398 -84.666 -2.00098 -141.999l84 48z" />
    <glyph glyph-name="Nacute" unicode="&#x143;" horiz-adv-x="640" 
d="M578 623c-3.33301 -12.667 -5.83398 -29.499 -7.50098 -50.499s-2.83398 -46.833 -3.50098 -77.5c0.666992 18 1 11.667 1 -19v-166v-310h-58l-87 125l-76 111l-135.5 201c-33.667 50.667 -56.167 86 -67.5 106v-233v-181c0.666992 -30.667 1.83398 -56.667 3.50098 -78
s4.16699 -38.333 7.5 -51h-83c3.33301 12.667 5.83301 29.5 7.5 50.5s2.83398 46.833 3.50098 77.5v184v123c0 31.333 -0.333008 53 -1 65c-3.33301 64 -9.66602 105 -18.999 123c63.333 -0.666992 94.666 -0.666992 93.999 0l83.5 -115.5l75.5 -107.5
c54.667 -79.333 97.5 -143.833 128.5 -193.5s50.833 -84.834 59.5 -105.501v210v156.5c0 30.333 0.333008 39.5 1 27.5c-0.666992 60 -4.66699 102.667 -12 128h85zM420.999 848.001l-80 -161l-51 16l56 170z" />
    <glyph glyph-name="nacute" unicode="&#x144;" horiz-adv-x="402" 
d="M367 0l-68 -0.000976562v57c0 18.667 0.333008 37.334 1 56.001c0.666992 26.667 0.666992 51.667 0 75s-1.83398 43.5 -3.50098 60.5s-4.16699 30.833 -7.5 41.5c-12 35.333 -34.333 53.333 -67 54c-34 0.666992 -63.667 -8 -89 -26l-33 -30v-288h-65
c2 68.667 3 182.334 3 341.001v18c0 8 -0.333008 17.667 -1 29l61 1l-1 -47c40.667 35.333 85.334 53 134.001 53c46 0 79.333 -14.333 100 -43c22.667 -31.333 34 -86.333 34 -165v-62c0 -21.333 0.333008 -43.666 1 -66.999c0.666992 -22.667 1 -38.834 1 -48.501
s0 -12.834 0 -9.50098zM251 612.999l-61 -167l-51 16l45 174z" />
    <glyph glyph-name="Ncommaaccent" unicode="&#x145;" horiz-adv-x="640" 
d="M574 623c-3.33301 -12.667 -5.83398 -29.499 -7.50098 -50.499s-2.83398 -46.833 -3.50098 -77.5c0.666992 18 1 11.667 1 -19v-166v-310h-58l-87 125l-76 111l-135.5 201c-33.667 50.667 -56.167 86 -67.5 106v-233v-181c0.666992 -30.667 1.83398 -56.667 3.50098 -78
s4.16699 -38.333 7.5 -51h-83c3.33301 12.667 5.83301 29.5 7.5 50.5s2.83398 46.833 3.50098 77.5v184v123c0 31.333 -0.333008 53 -1 65c-3.33301 64 -9.66602 105 -18.999 123c63.333 -0.666992 94.666 -0.666992 93.999 0l83.5 -115.5l75.5 -107.5
c54.667 -79.333 97.5 -143.833 128.5 -193.5s50.833 -84.834 59.5 -105.501v210v156.5c0 30.333 0.333008 39.5 1 27.5c-0.666992 60 -4.66699 102.667 -12 128h85zM338.999 -145.999c0 -66.667 -26.333 -106.333 -79 -119v35c27.333 5.33301 41 31.333 41 78h-28v67h66v-61
z" />
    <glyph glyph-name="ncommaaccent" unicode="&#x146;" horiz-adv-x="402" 
d="M392 0l-68 -0.000976562v57c0 18.667 0.333008 37.334 1 56.001c0.666992 26.667 0.666992 51.667 0 75s-1.83398 43.5 -3.50098 60.5s-4.16699 30.833 -7.5 41.5c-12 35.333 -34.333 53.333 -67 54c-34 0.666992 -63.667 -8 -89 -26l-33 -30v-288h-65
c2 68.667 3 182.334 3 341.001v18c0 8 -0.333008 17.667 -1 29l61 1l-1 -47c40.667 35.333 85.334 53 134.001 53c46 0 79.333 -14.333 100 -43c22.667 -31.333 34 -86.333 34 -165v-62c0 -21.333 0.333008 -43.666 1 -66.999c0.666992 -22.667 1 -38.834 1 -48.501
s0 -12.834 0 -9.50098zM252 -167.001c0 -66.667 -26.333 -106.333 -79 -119v35c27.333 5.33301 41 31.333 41 78h-28v67h66v-61z" />
    <glyph glyph-name="Ncaron" unicode="&#x147;" horiz-adv-x="640" 
d="M578 623c-3.33301 -12.667 -5.83398 -29.499 -7.50098 -50.499s-2.83398 -46.833 -3.50098 -77.5c0.666992 18 1 11.667 1 -19v-166v-310h-58l-87 125l-76 111l-135.5 201c-33.667 50.667 -56.167 86 -67.5 106v-233v-181c0.666992 -30.667 1.83398 -56.667 3.50098 -78
s4.16699 -38.333 7.5 -51h-83c3.33301 12.667 5.83301 29.5 7.5 50.5s2.83398 46.833 3.50098 77.5v184v123c0 31.333 -0.333008 53 -1 65c-3.33301 64 -9.66602 105 -18.999 123c63.333 -0.666992 94.666 -0.666992 93.999 0l83.5 -115.5l75.5 -107.5
c54.667 -79.333 97.5 -143.833 128.5 -193.5s50.833 -84.834 59.5 -105.501v210v156.5c0 30.333 0.333008 39.5 1 27.5c-0.666992 60 -4.66699 102.667 -12 128h85zM501.999 812.001l-89.5 -62l-89.5 -62l-177 124l37 39c91.333 -69.333 137.333 -104 138 -104l138 106z" />
    <glyph glyph-name="ncaron" unicode="&#x148;" horiz-adv-x="402" 
d="M366 0l-68 -0.000976562v57c0 18.667 0.333008 37.334 1 56.001c0.666992 26.667 0.666992 51.667 0 75s-1.83398 43.5 -3.50098 60.5s-4.16699 30.833 -7.5 41.5c-12 35.333 -34.333 53.333 -67 54c-34 0.666992 -63.667 -8 -89 -26l-33 -30v-288h-65
c2 68.667 3 182.334 3 341.001v18c0 8 -0.333008 17.667 -1 29l61 1l-1 -47c40.667 35.333 85.334 53 134.001 53c46 0 79.333 -14.333 100 -43c22.667 -31.333 34 -86.333 34 -165v-62c0 -21.333 0.333008 -43.666 1 -66.999c0.666992 -22.667 1 -38.834 1 -48.501
s0 -12.834 0 -9.50098zM319 582.999l-11 -13l-29 -33.5l-40 -45.5l-44 -50h-25l-129 137l40 36l100 -124l8 10.5l21 27.5l30 40l35 49z" />
    <glyph glyph-name="napostrophe" unicode="&#x149;" horiz-adv-x="402" 
d="M395 0l-68 -0.000976562v57c0 18.667 0.333008 37.334 1 56.001c0.666992 26.667 0.666992 51.667 0 75s-1.83398 43.5 -3.50098 60.5s-4.16699 30.833 -7.5 41.5c-12 35.333 -34.333 53.333 -67 54c-34 0.666992 -63.667 -8 -89 -26l-33 -30v-288h-65
c2 68.667 3 182.334 3 341.001v18c0 8 -0.333008 17.667 -1 29l61 1l-1 -47c40.667 35.333 85.334 53 134.001 53c46 0 79.333 -14.333 100 -43c22.667 -31.333 34 -86.333 34 -165v-62c0 -21.333 0.333008 -43.666 1 -66.999c0.666992 -22.667 1 -38.834 1 -48.501
s0 -12.834 0 -9.50098zM165 614.999l-61 -167l-51 16l44 174z" />
    <glyph glyph-name="Eng" unicode="&#x14a;" horiz-adv-x="627" 
d="M578 626c-3.33301 -12.667 -5.83398 -29.668 -7.50098 -51.001s-2.83398 -47.666 -3.50098 -78.999c0.666992 18.667 1 12.5 1 -18.5v-167.5v-295c0 -44 -9 -81.333 -27 -112c-20 -36 -49.333 -60 -88 -72c-20.667 -6.66699 -42.667 -10 -66 -10
c-42.667 0 -75.334 10 -98.001 30l20 67c32.667 -29.333 61.667 -44 87 -44c8 0 15.667 1 23 3c60.667 18.667 91 59.667 91 123l-168 249l-139 210.5c-34 53 -56.667 89.5 -68 109.5v-259v-181c0.666992 -31.333 1.83398 -57.666 3.50098 -78.999s4.16699 -38 7.5 -50h-74
c3.33301 12.667 5.83301 29.5 7.5 50.5s2.83398 46.833 3.50098 77.5v184v124c0 31.333 -0.333008 53.333 -1 66c-3.33301 64.667 -9.66602 106 -18.999 124c62.667 0 94 0.333008 94 1l162 -234c56 -83.333 99.667 -150.5 131 -201.5s51.333 -86.833 60 -107.5v227v158
c0 30.667 0.333008 39.667 1 27c-0.666992 61.333 -4.66699 104.666 -12 129.999h79z" />
    <glyph glyph-name="eng" unicode="&#x14b;" horiz-adv-x="402" 
d="M366 187c-0.666992 -30.667 -1.00391 -61.168 -1.00391 -91.501v-91.5c-0.666992 -62.667 -5.66699 -103 -15 -121c-19.333 -38 -49.666 -57 -90.999 -57c-10.667 0 -18.667 1.33301 -24 4c-10 5.33301 -25.667 11.333 -47 18l10.5 20.5l16.5 31.5
c14.667 -16.667 29 -24.667 43 -24c27.333 3.33301 42.333 19 45 47c1.33301 20 2.33301 108.333 3 265c0 47.333 -4 82 -12 104c-12.667 32 -35.667 48.667 -69 50c-33.333 0.666992 -63.333 -7 -90 -23c-5.33301 -4.66699 -10.666 -9 -15.999 -13
s-10.666 -8.33301 -15.999 -13v-293h-65c2 68.667 3 182.334 3 341.001l-1 47h61l-1 -37c40.667 29.333 85.334 44 134.001 44c46.667 0 80 -13.667 100 -41c22 -31.333 32.667 -87 32 -167z" />
    <glyph glyph-name="Omacron" unicode="&#x14c;" horiz-adv-x="710" 
d="M643 304c0 -86 -26.667 -159.333 -80 -220c-56 -62.667 -126.333 -94 -211 -94c-88 0 -159 31.333 -213 94c-52 58.667 -78 132 -78 220c0 93.333 24.333 170.333 73 231c52.667 66 125.334 99 218.001 99c93.333 0 166.666 -33 219.999 -99
c47.333 -60.667 71 -137.667 71 -231zM571 304c0 78.667 -17.667 141.667 -53 189c-38.667 50.667 -94.334 76 -167.001 76c-68 0 -122.333 -28 -163 -84c-37.333 -50.667 -56 -111.334 -56 -182.001c0 -66.667 19.667 -123.667 59 -171c42 -51.333 95.667 -77 161 -77
c66.667 0 120.334 25.333 161.001 76c38.667 46.667 58 104.334 58 173.001zM515 684h-316v50h316v-50z" />
    <glyph glyph-name="omacron" unicode="&#x14d;" horiz-adv-x="471" 
d="M438 194c0 -60.667 -19.334 -109.333 -58.001 -146c-39.333 -37.333 -87 -56 -143 -56c-61.333 0 -111.333 20 -150 60c-37.333 38 -55.333 86 -54 144c0.666992 56.667 19.667 103.667 57 141c38 38 87 57 147 57c60.667 0 109.334 -18.333 146.001 -55s55 -85 55 -145z
M376.999 194.001c0 20.667 -3.16992 40.001 -9.50293 58.001s-15.666 33.667 -27.999 47s-27 23.666 -44 30.999s-35.833 11 -56.5 11c-42 0 -77 -14 -105 -42c-27.333 -28.667 -41 -63.667 -41 -105c0 -40.667 14 -75.334 42 -104.001
c28.667 -28.667 63.334 -43 104.001 -43c40 0 72.833 13.333 98.5 40s38.834 62.334 39.501 107.001zM390.996 461.002h-308l1 48h307v-48z" />
    <glyph glyph-name="Obreve" unicode="&#x14e;" horiz-adv-x="710" 
d="M643 304c0 -86 -26.667 -159.333 -80 -220c-56 -62.667 -126.333 -94 -211 -94c-88 0 -159 31.333 -213 94c-52 58.667 -78 132 -78 220c0 93.333 24.333 170.333 73 231c52.667 66 125.334 99 218.001 99c93.333 0 166.666 -33 219.999 -99
c47.333 -60.667 71 -137.667 71 -231zM571 304c0 78.667 -17.667 141.667 -53 189c-38.667 50.667 -94.334 76 -167.001 76c-68 0 -122.333 -28 -163 -84c-37.333 -50.667 -56 -111.334 -56 -182.001c0 -66.667 19.667 -123.667 59 -171c42 -51.333 95.667 -77 161 -77
c66.667 0 120.334 25.333 161.001 76c38.667 46.667 58 104.334 58 173.001zM521 790c-20.667 -34 -44 -59.667 -70 -77s-54.667 -26 -86 -26c-32 0 -60.667 8.66699 -86 26s-50 43 -74 77l33 19c41.333 -57.333 83.333 -86 126 -86c44 0 86.667 28.667 128 86z" />
    <glyph glyph-name="obreve" unicode="&#x14f;" horiz-adv-x="471" 
d="M438 194c0 -60.667 -19.334 -109.333 -58.001 -146c-39.333 -37.333 -87 -56 -143 -56c-61.333 0 -111.333 20 -150 60c-37.333 38 -55.333 86 -54 144c0.666992 56.667 19.667 103.667 57 141c38 38 87 57 147 57c60.667 0 109.334 -18.333 146.001 -55s55 -85 55 -145z
M376.999 194.001c0 20.667 -3.16992 40.001 -9.50293 58.001s-15.666 33.667 -27.999 47s-27 23.666 -44 30.999s-35.833 11 -56.5 11c-42 0 -77 -14 -105 -42c-27.333 -28.667 -41 -63.667 -41 -105c0 -40.667 14 -75.334 42 -104.001
c28.667 -28.667 63.334 -43 104.001 -43c40 0 72.833 13.333 98.5 40s38.834 62.334 39.501 107.001zM397.996 569.002c-20.667 -34 -44 -59.667 -70 -77s-54.667 -26 -86 -26c-32 0 -60.667 8.66699 -86 26s-50 43 -74 77l33 19c41.333 -57.333 83.333 -86 126 -86
c44 0 86.667 28.667 128 86z" />
    <glyph glyph-name="Ohungarumlaut" unicode="&#x150;" horiz-adv-x="710" 
d="M643 304c0 -86 -26.667 -159.333 -80 -220c-56 -62.667 -126.333 -94 -211 -94c-88 0 -159 31.333 -213 94c-52 58.667 -78 132 -78 220c0 93.333 24.333 170.333 73 231c52.667 66 125.334 99 218.001 99c93.333 0 166.666 -33 219.999 -99
c47.333 -60.667 71 -137.667 71 -231zM571 304c0 78.667 -17.667 141.667 -53 189c-38.667 50.667 -94.334 76 -167.001 76c-68 0 -122.333 -28 -163 -84c-37.333 -50.667 -56 -111.334 -56 -182.001c0 -66.667 19.667 -123.667 59 -171c42 -51.333 95.667 -77 161 -77
c66.667 0 120.334 25.333 161.001 76c38.667 46.667 58 104.334 58 173.001zM386 852l-61 -167l-51 16l45 174zM505 853l-61 -167l-51 16l45 174z" />
    <glyph glyph-name="ohungarumlaut" unicode="&#x151;" horiz-adv-x="471" 
d="M438 194c0 -60.667 -19.334 -109.333 -58.001 -146c-39.333 -37.333 -87 -56 -143 -56c-61.333 0 -111.333 20 -150 60c-37.333 38 -55.333 86 -54 144c0.666992 56.667 19.667 103.667 57 141c38 38 87 57 147 57c60.667 0 109.334 -18.333 146.001 -55s55 -85 55 -145z
M376.999 194.001c0 20.667 -3.16992 40.001 -9.50293 58.001s-15.666 33.667 -27.999 47s-27 23.666 -44 30.999s-35.833 11 -56.5 11c-42 0 -77 -14 -105 -42c-27.333 -28.667 -41 -63.667 -41 -105c0 -40.667 14 -75.334 42 -104.001
c28.667 -28.667 63.334 -43 104.001 -43c40 0 72.833 13.333 98.5 40s38.834 62.334 39.501 107.001zM369.996 612.002l-61 -167l-51 16l44 174zM259.996 612.002l-61 -167l-51 16l44 174z" />
    <glyph glyph-name="OE" unicode="&#x152;" horiz-adv-x="851" 
d="M413 -1c-18.667 -3.33301 -36.1689 -5.83301 -52.502 -7.5s-31.166 -2.5 -44.499 -2.5c-96.667 0 -172 31.333 -226 94c-50 56.667 -75 131.334 -75 224.001c0 95.333 25.333 172.666 76 231.999c54 64 129 96 225 96c20 0 52 -3 96 -9
c26 -2.66699 84.667 -4.66699 176 -6c26.667 -0.666992 57.167 -0.5 91.5 0.5s72.833 2.5 115.5 4.5c-3.33301 -24 -3.33301 -56 0 -96h-50c0 6 -2.33301 14 -7 24c-5.33301 5.33301 -27 8 -65 8h-185c-0.666992 -60.667 -0.666992 -127.334 0 -200.001
c144.667 0 228 4.66699 250 14v-86c-31.333 10 -114.666 14 -249.999 12c-0.666992 -74.667 -0.666992 -154 0 -238h211c36 0 57 4 63 12c4 6 7 16.333 9 31h49c-3.33301 -49.333 -3.33301 -85.333 0 -108c-42.667 2 -81 3.5 -115 4.5s-64.333 1.16699 -91 0.5
c-20.667 -0.666992 -47.667 -1.16699 -81 -1.5s-73.333 -1.16602 -120 -2.49902zM420.998 548c-28 13.333 -63.334 20.001 -106.001 20.001c-69.333 0 -125.666 -26.667 -168.999 -80c-38.667 -48.667 -58 -109.334 -58 -182.001c0 -69.333 18.667 -127.333 56 -174
c40.667 -50 98 -75.333 172 -76c45.333 0 80 7 104 21c0.666992 12.667 1.16699 39.667 1.5 81s0.5 97.666 0.5 168.999v150c0 36.667 -0.333008 60.334 -1 71.001z" />
    <glyph glyph-name="oe" unicode="&#x153;" horiz-adv-x="779" 
d="M406 81c-37.333 -59.333 -93.667 -88.999 -169 -88.999c-61.333 0 -111.333 20 -150 60c-37.333 38 -55.333 86 -54 144c0.666992 56.667 19.667 103.667 57 141c38 38 87 57 147 57c78.667 0 135.667 -29 171 -87c36 56.667 88 85.667 156 87
c60 0.666992 105.667 -18 137 -56c28 -35.333 41.667 -82.333 41 -141h-303c-0.666992 -42.667 13 -78.667 41 -108c27.333 -28 62.666 -42.667 105.999 -44c40 -0.666992 75.667 14.666 107 45.999l29 -53c-52 -28.667 -99 -44 -141 -46
c-79.333 -4 -137.666 25.667 -174.999 89zM668.999 250.001c-7.33301 60 -42.666 90 -105.999 90c-24.667 0 -47.334 -8 -68.001 -24s-36 -38 -46 -66h220zM376.999 198.001c0 20 -3.33398 38.832 -10.001 56.499s-16.167 32.834 -28.5 45.501s-27 22.667 -44 30
s-35.5 11 -55.5 11c-42 0 -77 -14 -105 -42c-27.333 -28.667 -41 -63.667 -41 -105c0 -40.667 14 -75.334 42 -104.001c28.667 -28.667 63.334 -43 104.001 -43c42.667 0 76.667 14.667 102 44c24 26.667 36 62.334 36 107.001z" />
    <glyph glyph-name="Racute" unicode="&#x154;" horiz-adv-x="540" 
d="M502 0h-88.001c0.666992 2.66699 1.16699 5.16699 1.5 7.5s0.5 5.16602 0.5 8.49902c0 42.667 -13 90.667 -39 144c-30 64 -67.667 103 -113 117c-17.333 5.33301 -41 8.33301 -71 9c-6.66699 -0.666992 -13.167 -1 -19.5 -1s-12.833 -0.333008 -19.5 -1v-170
c0.666992 -25.333 1.83398 -47.5 3.50098 -66.5s4.16699 -34.833 7.5 -47.5h-88c3.33301 12.667 5.83301 29.167 7.5 49.5s2.83398 45.5 3.50098 75.5v184v184c-0.666992 31.333 -1.83398 57.666 -3.50098 78.999s-4.16699 38.333 -7.5 51h219c24.667 0 48.167 -3 70.5 -9
s42 -15.5 59 -28.5s30.333 -30 40 -51s14.5 -46.5 14.5 -76.5c0 -89.333 -49.667 -144.666 -149 -165.999c81.333 -27.333 138.333 -124.666 171 -291.999zM409.999 458c0 18.667 -2.83203 34.502 -8.49902 47.502s-13.5 23.5 -23.5 31.5s-22.167 14 -36.5 18
s-29.833 6.66699 -46.5 8c-19.333 2.66699 -65.333 3.66699 -138 3l-1 -221c40 -0.666992 71.5 -0.833984 94.5 -0.500977s37.833 1.16602 44.5 2.49902c37.333 5.33301 65.666 16 84.999 32s29.333 42.333 30 79zM334 848.002l-80 -161l-51 16l56 170z" />
    <glyph glyph-name="racute" unicode="&#x155;" horiz-adv-x="255" 
d="M237 328c-11.333 8.66699 -21.334 13 -30.001 13c-38.667 0 -67.667 -17.667 -87 -53c-13.333 -26 -19.333 -53 -18 -81v-57c0 -21.333 0.333008 -45.666 1 -72.999l1.5 -60s0.5 -18.334 0.5 -17.001l-64 -1c2 64.667 2 178 0 340
c-1.33301 9.33301 -2.33301 25.666 -3 48.999h63l-1 -69c14.667 50.667 48.334 76.334 101.001 77.001c14 0 26 -2.33301 36 -7v-61zM210.999 617l-61 -167l-51 16l45 174z" />
    <glyph glyph-name="Rcommaaccent" unicode="&#x156;" horiz-adv-x="540" 
d="M502 0h-88.002c0.666992 2.66699 1.16699 5.16699 1.5 7.5s0.5 5.16602 0.5 8.49902c0 42.667 -13 90.667 -39 144c-30 64 -67.667 103 -113 117c-17.333 5.33301 -41 8.33301 -71 9c-6.66699 -0.666992 -13.167 -1 -19.5 -1s-12.833 -0.333008 -19.5 -1v-170
c0.666992 -25.333 1.83398 -47.5 3.50098 -66.5s4.16699 -34.833 7.5 -47.5h-88c3.33301 12.667 5.83301 29.167 7.5 49.5s2.83398 45.5 3.50098 75.5v184v184c-0.666992 31.333 -1.83398 57.666 -3.50098 78.999s-4.16699 38.333 -7.5 51h219
c40.667 0 77.334 -9.33301 110.001 -28c49.333 -29.333 74 -75 74 -137c0 -89.333 -49.667 -144.666 -149 -165.999c81.333 -27.333 138.333 -124.666 171 -291.999zM409.998 458c0 34 -9.33203 59.335 -27.999 76.002c-12.667 12.667 -30 21 -52 25l-18 2
c-6 0.666992 -11.667 1.33398 -17 2.00098c-19.333 2.66699 -65.333 3.66699 -138 3l-1 -221c40 -0.666992 71.5 -0.833984 94.5 -0.500977s37.833 1.16602 44.5 2.49902c17.333 2.66699 31.5 5 42.5 7s18.833 4.33301 23.5 7c33.333 17.333 49.666 49.666 48.999 96.999z
M309.999 -149.998c0 -66.667 -26.333 -106.333 -79 -119v35c27.333 5.33301 41 31.333 41 78h-28v67h66v-61z" />
    <glyph glyph-name="rcommaaccent" unicode="&#x157;" horiz-adv-x="255" 
d="M237 328c-11.333 8.66699 -21.334 13 -30.001 13c-38.667 0 -67.667 -17.667 -87 -53c-13.333 -26 -19.333 -53 -18 -81v-57c0 -21.333 0.333008 -45.666 1 -72.999l1.5 -60s0.5 -18.334 0.5 -17.001l-64 -1c2 64.667 2 178 0 340
c-1.33301 9.33301 -2.33301 25.666 -3 48.999h63l-1 -69c14.667 50.667 48.334 76.334 101.001 77.001c14 0 26 -2.33301 36 -7v-61zM105.999 -163c0 -66.667 -26.333 -106.333 -79 -119v35c27.333 5.33301 41 31.333 41 78h-28v67h66v-61z" />
    <glyph glyph-name="Rcaron" unicode="&#x158;" horiz-adv-x="540" 
d="M502 0h-88.001c0.666992 2.66699 1.16699 5.16699 1.5 7.5s0.5 5.16602 0.5 8.49902c0 42.667 -13 90.667 -39 144c-30 64 -67.667 103 -113 117c-17.333 5.33301 -41 8.33301 -71 9c-6.66699 -0.666992 -13.167 -1 -19.5 -1s-12.833 -0.333008 -19.5 -1v-170
c0.666992 -25.333 1.83398 -47.5 3.50098 -66.5s4.16699 -34.833 7.5 -47.5h-88c3.33301 12.667 5.83301 29.167 7.5 49.5s2.83398 45.5 3.50098 75.5v184v184c-0.666992 31.333 -1.83398 57.666 -3.50098 78.999s-4.16699 38.333 -7.5 51h219c24.667 0 48.167 -3 70.5 -9
s42 -15.5 59 -28.5s30.333 -30 40 -51s14.5 -46.5 14.5 -76.5c0 -89.333 -49.667 -144.666 -149 -165.999c81.333 -27.333 138.333 -124.666 171 -291.999zM409.999 458c0 18.667 -2.83203 34.502 -8.49902 47.502s-13.5 23.5 -23.5 31.5s-22.167 14 -36.5 18
s-29.833 6.66699 -46.5 8c-19.333 2.66699 -65.333 3.66699 -138 3l-1 -221c40 -0.666992 71.5 -0.833984 94.5 -0.500977s37.833 1.16602 44.5 2.49902c37.333 5.33301 65.666 16 84.999 32s29.333 42.333 30 79zM439 812.002l-89.5 -62l-89.5 -62l-177 124l37 39
c91.333 -69.333 137.333 -104 138 -104l138 106z" />
    <glyph glyph-name="rcaron" unicode="&#x159;" horiz-adv-x="255" 
d="M237 328c-11.333 8.66699 -21.334 13 -30.001 13c-38.667 0 -67.667 -17.667 -87 -53c-13.333 -26 -19.333 -53 -18 -81v-57c0 -21.333 0.333008 -45.666 1 -72.999l1.5 -60s0.5 -18.334 0.5 -17.001l-64 -1c2 64.667 2 178 0 340
c-1.33301 9.33301 -2.33301 25.666 -3 48.999h63l-1 -69c14.667 50.667 48.334 76.334 101.001 77.001c14 0 26 -2.33301 36 -7v-61zM266.999 581l-11 -13l-29 -33.5l-40 -45.5l-44 -50h-25l-129 137l40 36l100 -124l8 10.5l21 27.5l30 40l35 49z" />
    <glyph glyph-name="Sacute" unicode="&#x15a;" horiz-adv-x="560" 
d="M471 157c-2.66699 -64.667 -35.6641 -111.002 -98.9971 -139.002c-47.333 -22 -107 -31.333 -179 -28c-27.333 0.666992 -64.333 9.66699 -111 27c-21.333 7.33301 -36.333 9.66602 -45 6.99902c0 18 1 51.667 3 101h38c2 -11.333 11.333 -23 28 -35
c38 -28 80.333 -42 127 -42c44.667 0 83.334 9.33301 116.001 28c40 22.667 57.333 55 52 97c-2.66699 26 -15.334 47 -38.001 63c-16 12.667 -41 24 -75 34l-44 12l-44 12c-49.333 15.333 -86 31.333 -110 48c-37.333 29.333 -56 67.333 -56 114
c0 59.333 22.667 105 68 137c40 28.667 91.667 42.334 155 41.001c17.333 0 51 -6.33301 101 -19c32.667 -7.33301 50.667 -10.666 54 -9.99902v-38.5c0 -16.333 0.333008 -36.833 1 -61.5h-38c-4 21.333 -9.33301 34.333 -16 39c-30.667 20.667 -68.334 31 -113.001 31
c-100.667 0 -149.334 -42 -146.001 -126c2 -50 54.333 -85 157 -105c147.333 -29.333 218.666 -91.666 213.999 -186.999zM327.003 847.998l-80 -161l-51 16l56 170z" />
    </font>
</defs>
</svg>
